G04 #@! TF.FileFunction,Copper,L2,Inr,Signal*
%FSLAX46Y46*%
G04 Gerber Fmt 4.6, Leading zero omitted, Abs format (unit mm)*
G04 Created by KiCad (PCBNEW (2014-11-13 BZR 5275)-product) date Sun 16 Nov 2014 04:47:41 PM EST*
%MOMM*%
G01*
G04 APERTURE LIST*
%ADD10C,0.100000*%
%ADD11R,1.524000X2.286000*%
%ADD12O,1.524000X2.286000*%
%ADD13R,1.524000X1.524000*%
%ADD14C,1.524000*%
%ADD15C,2.000000*%
%ADD16C,2.200000*%
%ADD17R,2.286000X1.524000*%
%ADD18O,2.286000X1.524000*%
%ADD19C,0.600000*%
%ADD20C,0.800000*%
%ADD21C,0.254000*%
G04 APERTURE END LIST*
D10*
D11*
X155730000Y-84500000D03*
D12*
X158270000Y-84500000D03*
D13*
X155000000Y-102999240D03*
D14*
X155000000Y-105000760D03*
D13*
X151000000Y-109000760D03*
D14*
X151000000Y-106999240D03*
D13*
X151000000Y-98999240D03*
D14*
X151000000Y-101000760D03*
D13*
X155000000Y-113000760D03*
D14*
X155000000Y-110999240D03*
D15*
X140000000Y-92500000D03*
D16*
X137450000Y-89950000D03*
X142550000Y-89950000D03*
X137450000Y-95050000D03*
X142550000Y-95050000D03*
D15*
X163000000Y-110000000D03*
D16*
X160450000Y-107450000D03*
X165550000Y-107450000D03*
X160450000Y-112550000D03*
X165550000Y-112550000D03*
D17*
X139500000Y-100920000D03*
D18*
X139500000Y-103460000D03*
X139500000Y-106000000D03*
X139500000Y-108540000D03*
X139500000Y-111080000D03*
D19*
X161500000Y-87000000D03*
X161500000Y-86250000D03*
X160750000Y-87000000D03*
X162250000Y-87000000D03*
X160750000Y-86250000D03*
X162250000Y-86250000D03*
X163250000Y-87750000D03*
X157000000Y-94750000D03*
X157000000Y-95500000D03*
X156250000Y-96500000D03*
X157000000Y-96500000D03*
X160000000Y-98000000D03*
X157000000Y-94000000D03*
X160750000Y-98000000D03*
X159250000Y-98000000D03*
X150500000Y-93750000D03*
X151250000Y-93750000D03*
X152000000Y-93750000D03*
X152750000Y-93750000D03*
X148500000Y-89250000D03*
X149250000Y-90000000D03*
X150500000Y-90750000D03*
X150500000Y-89250000D03*
X147500000Y-88250000D03*
X150500000Y-88250000D03*
X144500000Y-85250000D03*
X147500000Y-85250000D03*
X163500000Y-90750000D03*
X167000000Y-100000000D03*
X167000000Y-100750000D03*
X166250000Y-100750000D03*
X166250000Y-100000000D03*
X146000000Y-93750000D03*
X146000000Y-91500000D03*
D20*
X156250000Y-90250000D03*
X157000000Y-91000000D03*
X157750000Y-90250000D03*
X156250000Y-91750000D03*
X157750000Y-91750000D03*
D19*
X164750000Y-88750000D03*
X165500000Y-88750000D03*
X164750000Y-89750000D03*
X165500000Y-89750000D03*
X152500000Y-96250000D03*
X151750000Y-96250000D03*
X151750000Y-95250000D03*
X152500000Y-95250000D03*
X142750000Y-87500000D03*
X165750000Y-95750000D03*
X166500000Y-95750000D03*
X165750000Y-94750000D03*
X166500000Y-94750000D03*
D20*
X163000000Y-96000000D03*
X162250000Y-95500000D03*
X163750000Y-95500000D03*
X163750000Y-96500000D03*
X162250000Y-96500000D03*
D19*
X137000000Y-85000000D03*
X137000000Y-85000000D03*
X147500000Y-84000000D03*
X147500000Y-84000000D03*
X162759002Y-100250000D03*
X162759002Y-100250000D03*
X162759002Y-100250000D03*
X165500000Y-93250000D03*
X165500000Y-93250000D03*
D21*
G36*
X167315000Y-114315000D02*
X167295323Y-114315000D01*
X167295323Y-112838407D01*
X167295323Y-107738407D01*
X167272836Y-107048547D01*
X167052099Y-106515641D01*
X166774868Y-106404737D01*
X166595263Y-106584342D01*
X166595263Y-106225132D01*
X166484359Y-105947901D01*
X165838407Y-105704677D01*
X165148547Y-105727164D01*
X164615641Y-105947901D01*
X164504737Y-106225132D01*
X165550000Y-107270395D01*
X166595263Y-106225132D01*
X166595263Y-106584342D01*
X165729605Y-107450000D01*
X166774868Y-108495263D01*
X167052099Y-108384359D01*
X167295323Y-107738407D01*
X167295323Y-112838407D01*
X167272836Y-112148547D01*
X167052099Y-111615641D01*
X166774868Y-111504737D01*
X166595263Y-111684342D01*
X166595263Y-111325132D01*
X166595263Y-108674868D01*
X165550000Y-107629605D01*
X165370395Y-107809210D01*
X165370395Y-107450000D01*
X164325132Y-106404737D01*
X164047901Y-106515641D01*
X163804677Y-107161593D01*
X163827164Y-107851453D01*
X164047901Y-108384359D01*
X164325132Y-108495263D01*
X165370395Y-107450000D01*
X165370395Y-107809210D01*
X164504737Y-108674868D01*
X164615641Y-108952099D01*
X165261593Y-109195323D01*
X165951453Y-109172836D01*
X166484359Y-108952099D01*
X166595263Y-108674868D01*
X166595263Y-111325132D01*
X166484359Y-111047901D01*
X165838407Y-110804677D01*
X165148547Y-110827164D01*
X164635284Y-111039764D01*
X164635284Y-109676205D01*
X164386894Y-109075057D01*
X163927363Y-108614722D01*
X163694164Y-108517889D01*
X163694164Y-100064833D01*
X163552119Y-99721057D01*
X163289329Y-99457808D01*
X162945801Y-99315162D01*
X162573835Y-99314838D01*
X162230059Y-99456883D01*
X161966810Y-99719673D01*
X161824164Y-100063201D01*
X161823840Y-100435167D01*
X161965885Y-100778943D01*
X162228675Y-101042192D01*
X162572203Y-101184838D01*
X162944169Y-101185162D01*
X163287945Y-101043117D01*
X163551194Y-100780327D01*
X163693840Y-100436799D01*
X163694164Y-100064833D01*
X163694164Y-108517889D01*
X163326648Y-108365284D01*
X162676205Y-108364716D01*
X162195323Y-108563412D01*
X162195323Y-107738407D01*
X162172836Y-107048547D01*
X161952099Y-106515641D01*
X161674868Y-106404737D01*
X161495263Y-106584342D01*
X161495263Y-106225132D01*
X161384359Y-105947901D01*
X160738407Y-105704677D01*
X160048547Y-105727164D01*
X159667000Y-105885206D01*
X159667000Y-85008000D01*
X159667000Y-84627000D01*
X159667000Y-84373000D01*
X159667000Y-83992000D01*
X159512059Y-83467059D01*
X159168026Y-83041370D01*
X158687277Y-82779740D01*
X158613070Y-82764780D01*
X158397000Y-82887280D01*
X158397000Y-84373000D01*
X159667000Y-84373000D01*
X159667000Y-84627000D01*
X158397000Y-84627000D01*
X158397000Y-86112720D01*
X158613070Y-86235220D01*
X158687277Y-86220260D01*
X159168026Y-85958630D01*
X159512059Y-85532941D01*
X159667000Y-85008000D01*
X159667000Y-105885206D01*
X159515641Y-105947901D01*
X159404737Y-106225132D01*
X160450000Y-107270395D01*
X161495263Y-106225132D01*
X161495263Y-106584342D01*
X160629605Y-107450000D01*
X161674868Y-108495263D01*
X161952099Y-108384359D01*
X162195323Y-107738407D01*
X162195323Y-108563412D01*
X162075057Y-108613106D01*
X161614722Y-109072637D01*
X161495263Y-109360326D01*
X161495263Y-108674868D01*
X160450000Y-107629605D01*
X160270395Y-107809210D01*
X160270395Y-107450000D01*
X159225132Y-106404737D01*
X158947901Y-106515641D01*
X158704677Y-107161593D01*
X158727164Y-107851453D01*
X158947901Y-108384359D01*
X159225132Y-108495263D01*
X160270395Y-107450000D01*
X160270395Y-107809210D01*
X159404737Y-108674868D01*
X159515641Y-108952099D01*
X160161593Y-109195323D01*
X160851453Y-109172836D01*
X161384359Y-108952099D01*
X161495263Y-108674868D01*
X161495263Y-109360326D01*
X161365284Y-109673352D01*
X161364716Y-110323795D01*
X161613106Y-110924943D01*
X162072637Y-111385278D01*
X162673352Y-111634716D01*
X163323795Y-111635284D01*
X163924943Y-111386894D01*
X164385278Y-110927363D01*
X164634716Y-110326648D01*
X164635284Y-109676205D01*
X164635284Y-111039764D01*
X164615641Y-111047901D01*
X164504737Y-111325132D01*
X165550000Y-112370395D01*
X166595263Y-111325132D01*
X166595263Y-111684342D01*
X165729605Y-112550000D01*
X166774868Y-113595263D01*
X167052099Y-113484359D01*
X167295323Y-112838407D01*
X167295323Y-114315000D01*
X166595263Y-114315000D01*
X166595263Y-113774868D01*
X165550000Y-112729605D01*
X165370395Y-112909210D01*
X165370395Y-112550000D01*
X164325132Y-111504737D01*
X164047901Y-111615641D01*
X163804677Y-112261593D01*
X163827164Y-112951453D01*
X164047901Y-113484359D01*
X164325132Y-113595263D01*
X165370395Y-112550000D01*
X165370395Y-112909210D01*
X164504737Y-113774868D01*
X164615641Y-114052099D01*
X165261593Y-114295323D01*
X165951453Y-114272836D01*
X166484359Y-114052099D01*
X166595263Y-113774868D01*
X166595263Y-114315000D01*
X162195323Y-114315000D01*
X162195323Y-112838407D01*
X162172836Y-112148547D01*
X161952099Y-111615641D01*
X161674868Y-111504737D01*
X161495263Y-111684342D01*
X161495263Y-111325132D01*
X161384359Y-111047901D01*
X160738407Y-110804677D01*
X160048547Y-110827164D01*
X159515641Y-111047901D01*
X159404737Y-111325132D01*
X160450000Y-112370395D01*
X161495263Y-111325132D01*
X161495263Y-111684342D01*
X160629605Y-112550000D01*
X161674868Y-113595263D01*
X161952099Y-113484359D01*
X162195323Y-112838407D01*
X162195323Y-114315000D01*
X161495263Y-114315000D01*
X161495263Y-113774868D01*
X160450000Y-112729605D01*
X160270395Y-112909210D01*
X160270395Y-112550000D01*
X159225132Y-111504737D01*
X158947901Y-111615641D01*
X158704677Y-112261593D01*
X158727164Y-112951453D01*
X158947901Y-113484359D01*
X159225132Y-113595263D01*
X160270395Y-112550000D01*
X160270395Y-112909210D01*
X159404737Y-113774868D01*
X159515641Y-114052099D01*
X160161593Y-114295323D01*
X160851453Y-114272836D01*
X161384359Y-114052099D01*
X161495263Y-113774868D01*
X161495263Y-114315000D01*
X158143000Y-114315000D01*
X158143000Y-86112720D01*
X158143000Y-84627000D01*
X158123000Y-84627000D01*
X158123000Y-84373000D01*
X158143000Y-84373000D01*
X158143000Y-82887280D01*
X157926930Y-82764780D01*
X157852723Y-82779740D01*
X157371974Y-83041370D01*
X157127000Y-83344488D01*
X157127000Y-83230691D01*
X157030327Y-82997302D01*
X156851699Y-82818673D01*
X156618310Y-82722000D01*
X156365691Y-82722000D01*
X154841691Y-82722000D01*
X154608302Y-82818673D01*
X154429673Y-82997301D01*
X154333000Y-83230690D01*
X154333000Y-83483309D01*
X154333000Y-85769309D01*
X154429673Y-86002698D01*
X154608301Y-86181327D01*
X154841690Y-86278000D01*
X155094309Y-86278000D01*
X156618309Y-86278000D01*
X156851698Y-86181327D01*
X157030327Y-86002699D01*
X157127000Y-85769310D01*
X157127000Y-85655511D01*
X157371974Y-85958630D01*
X157852723Y-86220260D01*
X157926930Y-86235220D01*
X158143000Y-86112720D01*
X158143000Y-114315000D01*
X156409144Y-114315000D01*
X156409144Y-105208458D01*
X156381362Y-104653392D01*
X156222397Y-104269617D01*
X156167417Y-104253847D01*
X156300327Y-104120939D01*
X156397000Y-103887550D01*
X156397000Y-103634931D01*
X156397000Y-102110931D01*
X156300327Y-101877542D01*
X156121699Y-101698913D01*
X156008000Y-101651817D01*
X156008000Y-91508000D01*
X156008000Y-87492000D01*
X150492000Y-87492000D01*
X150492000Y-91508000D01*
X156008000Y-91508000D01*
X156008000Y-101651817D01*
X155888310Y-101602240D01*
X155635691Y-101602240D01*
X154111691Y-101602240D01*
X153878302Y-101698913D01*
X153699673Y-101877541D01*
X153603000Y-102110930D01*
X153603000Y-102363549D01*
X153603000Y-103887549D01*
X153699673Y-104120938D01*
X153832581Y-104253847D01*
X153777603Y-104269617D01*
X153590856Y-104793062D01*
X153618638Y-105348128D01*
X153777603Y-105731903D01*
X154019787Y-105801368D01*
X154820395Y-105000760D01*
X154806252Y-104986617D01*
X154985857Y-104807012D01*
X155000000Y-104821155D01*
X155014142Y-104807012D01*
X155193747Y-104986617D01*
X155179605Y-105000760D01*
X155980213Y-105801368D01*
X156222397Y-105731903D01*
X156409144Y-105208458D01*
X156409144Y-114315000D01*
X156397242Y-114315000D01*
X156397242Y-110722579D01*
X156185010Y-110208937D01*
X155800608Y-109823863D01*
X155800608Y-105980973D01*
X155000000Y-105180365D01*
X154199392Y-105980973D01*
X154268857Y-106223157D01*
X154792302Y-106409904D01*
X155347368Y-106382122D01*
X155731143Y-106223157D01*
X155800608Y-105980973D01*
X155800608Y-109823863D01*
X155792370Y-109815611D01*
X155279100Y-109602483D01*
X154723339Y-109601998D01*
X154209697Y-109814230D01*
X153816371Y-110206870D01*
X153603243Y-110720140D01*
X153602758Y-111275901D01*
X153807446Y-111771287D01*
X153699673Y-111879062D01*
X153603000Y-112112451D01*
X153603000Y-112715010D01*
X153761750Y-112873760D01*
X154873000Y-112873760D01*
X154873000Y-112853760D01*
X155127000Y-112853760D01*
X155127000Y-112873760D01*
X156238250Y-112873760D01*
X156397000Y-112715010D01*
X156397000Y-112112451D01*
X156300327Y-111879062D01*
X156192210Y-111770944D01*
X156396757Y-111278340D01*
X156397242Y-110722579D01*
X156397242Y-114315000D01*
X156088110Y-114315000D01*
X156121699Y-114301087D01*
X156300327Y-114122458D01*
X156397000Y-113889069D01*
X156397000Y-113286510D01*
X156238250Y-113127760D01*
X155127000Y-113127760D01*
X155127000Y-113147760D01*
X154873000Y-113147760D01*
X154873000Y-113127760D01*
X153761750Y-113127760D01*
X153603000Y-113286510D01*
X153603000Y-113889069D01*
X153699673Y-114122458D01*
X153878301Y-114301087D01*
X153911889Y-114315000D01*
X153435162Y-114315000D01*
X153435162Y-96064833D01*
X153304930Y-95749648D01*
X153434838Y-95436799D01*
X153435162Y-95064833D01*
X153293117Y-94721057D01*
X153030327Y-94457808D01*
X152686799Y-94315162D01*
X152314833Y-94314838D01*
X152124957Y-94393292D01*
X151936799Y-94315162D01*
X151564833Y-94314838D01*
X151221057Y-94456883D01*
X150957808Y-94719673D01*
X150815162Y-95063201D01*
X150814838Y-95435167D01*
X150945069Y-95750351D01*
X150815162Y-96063201D01*
X150814838Y-96435167D01*
X150956883Y-96778943D01*
X151219673Y-97042192D01*
X151563201Y-97184838D01*
X151935167Y-97185162D01*
X152125042Y-97106707D01*
X152313201Y-97184838D01*
X152685167Y-97185162D01*
X153028943Y-97043117D01*
X153292192Y-96780327D01*
X153434838Y-96436799D01*
X153435162Y-96064833D01*
X153435162Y-114315000D01*
X152409144Y-114315000D01*
X152409144Y-101208458D01*
X152381362Y-100653392D01*
X152222397Y-100269617D01*
X152167417Y-100253847D01*
X152300327Y-100120939D01*
X152397000Y-99887550D01*
X152397000Y-99634931D01*
X152397000Y-98110931D01*
X152300327Y-97877542D01*
X152121699Y-97698913D01*
X151888310Y-97602240D01*
X151635691Y-97602240D01*
X150111691Y-97602240D01*
X149878302Y-97698913D01*
X149699673Y-97877541D01*
X149603000Y-98110930D01*
X149603000Y-98363549D01*
X149603000Y-99887549D01*
X149699673Y-100120938D01*
X149832581Y-100253847D01*
X149777603Y-100269617D01*
X149590856Y-100793062D01*
X149618638Y-101348128D01*
X149777603Y-101731903D01*
X150019787Y-101801368D01*
X150820395Y-101000760D01*
X150806252Y-100986617D01*
X150985857Y-100807012D01*
X151000000Y-100821155D01*
X151014142Y-100807012D01*
X151193747Y-100986617D01*
X151179605Y-101000760D01*
X151980213Y-101801368D01*
X152222397Y-101731903D01*
X152409144Y-101208458D01*
X152409144Y-114315000D01*
X152397242Y-114315000D01*
X152397242Y-106722579D01*
X152185010Y-106208937D01*
X151800608Y-105823863D01*
X151800608Y-101980973D01*
X151000000Y-101180365D01*
X150199392Y-101980973D01*
X150268857Y-102223157D01*
X150792302Y-102409904D01*
X151347368Y-102382122D01*
X151731143Y-102223157D01*
X151800608Y-101980973D01*
X151800608Y-105823863D01*
X151792370Y-105815611D01*
X151279100Y-105602483D01*
X150723339Y-105601998D01*
X150209697Y-105814230D01*
X149816371Y-106206870D01*
X149603243Y-106720140D01*
X149602758Y-107275901D01*
X149807446Y-107771287D01*
X149699673Y-107879062D01*
X149603000Y-108112451D01*
X149603000Y-108715010D01*
X149761750Y-108873760D01*
X150873000Y-108873760D01*
X150873000Y-108853760D01*
X151127000Y-108853760D01*
X151127000Y-108873760D01*
X152238250Y-108873760D01*
X152397000Y-108715010D01*
X152397000Y-108112451D01*
X152300327Y-107879062D01*
X152192210Y-107770944D01*
X152396757Y-107278340D01*
X152397242Y-106722579D01*
X152397242Y-114315000D01*
X152397000Y-114315000D01*
X152397000Y-109889069D01*
X152397000Y-109286510D01*
X152238250Y-109127760D01*
X151127000Y-109127760D01*
X151127000Y-110239010D01*
X151285750Y-110397760D01*
X151635691Y-110397760D01*
X151888310Y-110397760D01*
X152121699Y-110301087D01*
X152300327Y-110122458D01*
X152397000Y-109889069D01*
X152397000Y-114315000D01*
X150873000Y-114315000D01*
X150873000Y-110239010D01*
X150873000Y-109127760D01*
X149761750Y-109127760D01*
X149603000Y-109286510D01*
X149603000Y-109889069D01*
X149699673Y-110122458D01*
X149878301Y-110301087D01*
X150111690Y-110397760D01*
X150364309Y-110397760D01*
X150714250Y-110397760D01*
X150873000Y-110239010D01*
X150873000Y-114315000D01*
X148435162Y-114315000D01*
X148435162Y-83814833D01*
X148293117Y-83471057D01*
X148030327Y-83207808D01*
X147686799Y-83065162D01*
X147314833Y-83064838D01*
X146971057Y-83206883D01*
X146707808Y-83469673D01*
X146565162Y-83813201D01*
X146564838Y-84185167D01*
X146706883Y-84528943D01*
X146969673Y-84792192D01*
X147313201Y-84934838D01*
X147685167Y-84935162D01*
X148028943Y-84793117D01*
X148292192Y-84530327D01*
X148434838Y-84186799D01*
X148435162Y-83814833D01*
X148435162Y-114315000D01*
X144295323Y-114315000D01*
X144295323Y-95338407D01*
X144295323Y-90238407D01*
X144272836Y-89548547D01*
X144052099Y-89015641D01*
X143774868Y-88904737D01*
X143685162Y-88994443D01*
X143685162Y-87314833D01*
X143543117Y-86971057D01*
X143280327Y-86707808D01*
X142936799Y-86565162D01*
X142564833Y-86564838D01*
X142221057Y-86706883D01*
X141957808Y-86969673D01*
X141815162Y-87313201D01*
X141814838Y-87685167D01*
X141956883Y-88028943D01*
X142154562Y-88226967D01*
X142148547Y-88227164D01*
X141615641Y-88447901D01*
X141504737Y-88725132D01*
X142550000Y-89770395D01*
X143595263Y-88725132D01*
X143484359Y-88447901D01*
X143180886Y-88333632D01*
X143278943Y-88293117D01*
X143542192Y-88030327D01*
X143684838Y-87686799D01*
X143685162Y-87314833D01*
X143685162Y-88994443D01*
X142729605Y-89950000D01*
X143774868Y-90995263D01*
X144052099Y-90884359D01*
X144295323Y-90238407D01*
X144295323Y-95338407D01*
X144272836Y-94648547D01*
X144052099Y-94115641D01*
X143774868Y-94004737D01*
X143595263Y-94184342D01*
X143595263Y-93825132D01*
X143595263Y-91174868D01*
X142550000Y-90129605D01*
X142370395Y-90309210D01*
X142370395Y-89950000D01*
X141325132Y-88904737D01*
X141047901Y-89015641D01*
X140804677Y-89661593D01*
X140827164Y-90351453D01*
X141047901Y-90884359D01*
X141325132Y-90995263D01*
X142370395Y-89950000D01*
X142370395Y-90309210D01*
X141504737Y-91174868D01*
X141615641Y-91452099D01*
X142261593Y-91695323D01*
X142951453Y-91672836D01*
X143484359Y-91452099D01*
X143595263Y-91174868D01*
X143595263Y-93825132D01*
X143484359Y-93547901D01*
X142838407Y-93304677D01*
X142148547Y-93327164D01*
X141635284Y-93539764D01*
X141635284Y-92176205D01*
X141386894Y-91575057D01*
X140927363Y-91114722D01*
X140326648Y-90865284D01*
X139676205Y-90864716D01*
X139195323Y-91063412D01*
X139195323Y-90238407D01*
X139172836Y-89548547D01*
X138952099Y-89015641D01*
X138674868Y-88904737D01*
X138495263Y-89084342D01*
X138495263Y-88725132D01*
X138384359Y-88447901D01*
X137935162Y-88278762D01*
X137935162Y-84814833D01*
X137793117Y-84471057D01*
X137530327Y-84207808D01*
X137186799Y-84065162D01*
X136814833Y-84064838D01*
X136471057Y-84206883D01*
X136207808Y-84469673D01*
X136065162Y-84813201D01*
X136064838Y-85185167D01*
X136206883Y-85528943D01*
X136469673Y-85792192D01*
X136813201Y-85934838D01*
X137185167Y-85935162D01*
X137528943Y-85793117D01*
X137792192Y-85530327D01*
X137934838Y-85186799D01*
X137935162Y-84814833D01*
X137935162Y-88278762D01*
X137738407Y-88204677D01*
X137048547Y-88227164D01*
X136515641Y-88447901D01*
X136404737Y-88725132D01*
X137450000Y-89770395D01*
X138495263Y-88725132D01*
X138495263Y-89084342D01*
X137629605Y-89950000D01*
X138674868Y-90995263D01*
X138952099Y-90884359D01*
X139195323Y-90238407D01*
X139195323Y-91063412D01*
X139075057Y-91113106D01*
X138614722Y-91572637D01*
X138495263Y-91860326D01*
X138495263Y-91174868D01*
X137450000Y-90129605D01*
X137270395Y-90309210D01*
X137270395Y-89950000D01*
X136225132Y-88904737D01*
X135947901Y-89015641D01*
X135704677Y-89661593D01*
X135727164Y-90351453D01*
X135947901Y-90884359D01*
X136225132Y-90995263D01*
X137270395Y-89950000D01*
X137270395Y-90309210D01*
X136404737Y-91174868D01*
X136515641Y-91452099D01*
X137161593Y-91695323D01*
X137851453Y-91672836D01*
X138384359Y-91452099D01*
X138495263Y-91174868D01*
X138495263Y-91860326D01*
X138365284Y-92173352D01*
X138364716Y-92823795D01*
X138613106Y-93424943D01*
X139072637Y-93885278D01*
X139673352Y-94134716D01*
X140323795Y-94135284D01*
X140924943Y-93886894D01*
X141385278Y-93427363D01*
X141634716Y-92826648D01*
X141635284Y-92176205D01*
X141635284Y-93539764D01*
X141615641Y-93547901D01*
X141504737Y-93825132D01*
X142550000Y-94870395D01*
X143595263Y-93825132D01*
X143595263Y-94184342D01*
X142729605Y-95050000D01*
X143774868Y-96095263D01*
X144052099Y-95984359D01*
X144295323Y-95338407D01*
X144295323Y-114315000D01*
X143595263Y-114315000D01*
X143595263Y-96274868D01*
X142550000Y-95229605D01*
X142370395Y-95409210D01*
X142370395Y-95050000D01*
X141325132Y-94004737D01*
X141047901Y-94115641D01*
X140804677Y-94761593D01*
X140827164Y-95451453D01*
X141047901Y-95984359D01*
X141325132Y-96095263D01*
X142370395Y-95050000D01*
X142370395Y-95409210D01*
X141504737Y-96274868D01*
X141615641Y-96552099D01*
X142261593Y-96795323D01*
X142951453Y-96772836D01*
X143484359Y-96552099D01*
X143595263Y-96274868D01*
X143595263Y-114315000D01*
X141312833Y-114315000D01*
X141312833Y-111080000D01*
X141206493Y-110545391D01*
X140903661Y-110092172D01*
X140481361Y-109810000D01*
X140903661Y-109527828D01*
X141206493Y-109074609D01*
X141312833Y-108540000D01*
X141312833Y-103460000D01*
X141206493Y-102925391D01*
X140903661Y-102472172D01*
X140671430Y-102317000D01*
X140769309Y-102317000D01*
X141002698Y-102220327D01*
X141181327Y-102041699D01*
X141278000Y-101808310D01*
X141278000Y-101555691D01*
X141278000Y-100031691D01*
X141181327Y-99798302D01*
X141002699Y-99619673D01*
X140769310Y-99523000D01*
X140516691Y-99523000D01*
X139195323Y-99523000D01*
X139195323Y-95338407D01*
X139172836Y-94648547D01*
X138952099Y-94115641D01*
X138674868Y-94004737D01*
X138495263Y-94184342D01*
X138495263Y-93825132D01*
X138384359Y-93547901D01*
X137738407Y-93304677D01*
X137048547Y-93327164D01*
X136515641Y-93547901D01*
X136404737Y-93825132D01*
X137450000Y-94870395D01*
X138495263Y-93825132D01*
X138495263Y-94184342D01*
X137629605Y-95050000D01*
X138674868Y-96095263D01*
X138952099Y-95984359D01*
X139195323Y-95338407D01*
X139195323Y-99523000D01*
X138495263Y-99523000D01*
X138495263Y-96274868D01*
X137450000Y-95229605D01*
X137270395Y-95409210D01*
X137270395Y-95050000D01*
X136225132Y-94004737D01*
X135947901Y-94115641D01*
X135704677Y-94761593D01*
X135727164Y-95451453D01*
X135947901Y-95984359D01*
X136225132Y-96095263D01*
X137270395Y-95050000D01*
X137270395Y-95409210D01*
X136404737Y-96274868D01*
X136515641Y-96552099D01*
X137161593Y-96795323D01*
X137851453Y-96772836D01*
X138384359Y-96552099D01*
X138495263Y-96274868D01*
X138495263Y-99523000D01*
X138230691Y-99523000D01*
X137997302Y-99619673D01*
X137818673Y-99798301D01*
X137722000Y-100031690D01*
X137722000Y-100284309D01*
X137722000Y-101808309D01*
X137818673Y-102041698D01*
X137997301Y-102220327D01*
X138230690Y-102317000D01*
X138328569Y-102317000D01*
X138096339Y-102472172D01*
X137793507Y-102925391D01*
X137687167Y-103460000D01*
X137793507Y-103994609D01*
X138096339Y-104447828D01*
X138531839Y-104738820D01*
X138467059Y-104757941D01*
X138041370Y-105101974D01*
X137779740Y-105582723D01*
X137764780Y-105656930D01*
X137887280Y-105873000D01*
X139373000Y-105873000D01*
X139373000Y-105853000D01*
X139627000Y-105853000D01*
X139627000Y-105873000D01*
X141112720Y-105873000D01*
X141235220Y-105656930D01*
X141220260Y-105582723D01*
X140958630Y-105101974D01*
X140532941Y-104757941D01*
X140468160Y-104738820D01*
X140903661Y-104447828D01*
X141206493Y-103994609D01*
X141312833Y-103460000D01*
X141312833Y-108540000D01*
X141206493Y-108005391D01*
X140903661Y-107552172D01*
X140468160Y-107261179D01*
X140532941Y-107242059D01*
X140958630Y-106898026D01*
X141220260Y-106417277D01*
X141235220Y-106343070D01*
X141112720Y-106127000D01*
X139627000Y-106127000D01*
X139627000Y-106147000D01*
X139373000Y-106147000D01*
X139373000Y-106127000D01*
X137887280Y-106127000D01*
X137764780Y-106343070D01*
X137779740Y-106417277D01*
X138041370Y-106898026D01*
X138467059Y-107242059D01*
X138531839Y-107261179D01*
X138096339Y-107552172D01*
X137793507Y-108005391D01*
X137687167Y-108540000D01*
X137793507Y-109074609D01*
X138096339Y-109527828D01*
X138518638Y-109810000D01*
X138096339Y-110092172D01*
X137793507Y-110545391D01*
X137687167Y-111080000D01*
X137793507Y-111614609D01*
X138096339Y-112067828D01*
X138549558Y-112370660D01*
X139084167Y-112477000D01*
X139915833Y-112477000D01*
X140450442Y-112370660D01*
X140903661Y-112067828D01*
X141206493Y-111614609D01*
X141312833Y-111080000D01*
X141312833Y-114315000D01*
X135685000Y-114315000D01*
X135685000Y-82685000D01*
X136000000Y-82685000D01*
X167315000Y-82685000D01*
X167315000Y-94274018D01*
X167293117Y-94221057D01*
X167030327Y-93957808D01*
X166686799Y-93815162D01*
X166314833Y-93814838D01*
X166217215Y-93855172D01*
X166292192Y-93780327D01*
X166434838Y-93436799D01*
X166435162Y-93064833D01*
X166435162Y-89564833D01*
X166304930Y-89249648D01*
X166434838Y-88936799D01*
X166435162Y-88564833D01*
X166293117Y-88221057D01*
X166030327Y-87957808D01*
X165686799Y-87815162D01*
X165314833Y-87814838D01*
X165124957Y-87893292D01*
X164936799Y-87815162D01*
X164564833Y-87814838D01*
X164221057Y-87956883D01*
X163957808Y-88219673D01*
X163815162Y-88563201D01*
X163814838Y-88935167D01*
X163945069Y-89250351D01*
X163815162Y-89563201D01*
X163814838Y-89935167D01*
X163956883Y-90278943D01*
X164219673Y-90542192D01*
X164563201Y-90684838D01*
X164935167Y-90685162D01*
X165125042Y-90606707D01*
X165313201Y-90684838D01*
X165685167Y-90685162D01*
X166028943Y-90543117D01*
X166292192Y-90280327D01*
X166434838Y-89936799D01*
X166435162Y-89564833D01*
X166435162Y-93064833D01*
X166293117Y-92721057D01*
X166030327Y-92457808D01*
X165686799Y-92315162D01*
X165508000Y-92315006D01*
X165508000Y-91242000D01*
X161742000Y-91242000D01*
X161742000Y-94590029D01*
X161664485Y-94622058D01*
X161373081Y-94912954D01*
X161215180Y-95293223D01*
X161214821Y-95704971D01*
X161336829Y-96000256D01*
X161215180Y-96293223D01*
X161214821Y-96704971D01*
X161372058Y-97085515D01*
X161662954Y-97376919D01*
X162043223Y-97534820D01*
X162454971Y-97535179D01*
X162835515Y-97377942D01*
X163000031Y-97213712D01*
X163162954Y-97376919D01*
X163543223Y-97534820D01*
X163954971Y-97535179D01*
X164335515Y-97377942D01*
X164626919Y-97087046D01*
X164784820Y-96706777D01*
X164785179Y-96295029D01*
X164663170Y-95999743D01*
X164784820Y-95706777D01*
X164785179Y-95295029D01*
X164769878Y-95258000D01*
X164941893Y-95258000D01*
X164815162Y-95563201D01*
X164814838Y-95935167D01*
X164956883Y-96278943D01*
X165219673Y-96542192D01*
X165563201Y-96684838D01*
X165935167Y-96685162D01*
X166125042Y-96606707D01*
X166313201Y-96684838D01*
X166685167Y-96685162D01*
X167028943Y-96543117D01*
X167292192Y-96280327D01*
X167315000Y-96225399D01*
X167315000Y-114315000D01*
X167315000Y-114315000D01*
G37*
X167315000Y-114315000D02*
X167295323Y-114315000D01*
X167295323Y-112838407D01*
X167295323Y-107738407D01*
X167272836Y-107048547D01*
X167052099Y-106515641D01*
X166774868Y-106404737D01*
X166595263Y-106584342D01*
X166595263Y-106225132D01*
X166484359Y-105947901D01*
X165838407Y-105704677D01*
X165148547Y-105727164D01*
X164615641Y-105947901D01*
X164504737Y-106225132D01*
X165550000Y-107270395D01*
X166595263Y-106225132D01*
X166595263Y-106584342D01*
X165729605Y-107450000D01*
X166774868Y-108495263D01*
X167052099Y-108384359D01*
X167295323Y-107738407D01*
X167295323Y-112838407D01*
X167272836Y-112148547D01*
X167052099Y-111615641D01*
X166774868Y-111504737D01*
X166595263Y-111684342D01*
X166595263Y-111325132D01*
X166595263Y-108674868D01*
X165550000Y-107629605D01*
X165370395Y-107809210D01*
X165370395Y-107450000D01*
X164325132Y-106404737D01*
X164047901Y-106515641D01*
X163804677Y-107161593D01*
X163827164Y-107851453D01*
X164047901Y-108384359D01*
X164325132Y-108495263D01*
X165370395Y-107450000D01*
X165370395Y-107809210D01*
X164504737Y-108674868D01*
X164615641Y-108952099D01*
X165261593Y-109195323D01*
X165951453Y-109172836D01*
X166484359Y-108952099D01*
X166595263Y-108674868D01*
X166595263Y-111325132D01*
X166484359Y-111047901D01*
X165838407Y-110804677D01*
X165148547Y-110827164D01*
X164635284Y-111039764D01*
X164635284Y-109676205D01*
X164386894Y-109075057D01*
X163927363Y-108614722D01*
X163694164Y-108517889D01*
X163694164Y-100064833D01*
X163552119Y-99721057D01*
X163289329Y-99457808D01*
X162945801Y-99315162D01*
X162573835Y-99314838D01*
X162230059Y-99456883D01*
X161966810Y-99719673D01*
X161824164Y-100063201D01*
X161823840Y-100435167D01*
X161965885Y-100778943D01*
X162228675Y-101042192D01*
X162572203Y-101184838D01*
X162944169Y-101185162D01*
X163287945Y-101043117D01*
X163551194Y-100780327D01*
X163693840Y-100436799D01*
X163694164Y-100064833D01*
X163694164Y-108517889D01*
X163326648Y-108365284D01*
X162676205Y-108364716D01*
X162195323Y-108563412D01*
X162195323Y-107738407D01*
X162172836Y-107048547D01*
X161952099Y-106515641D01*
X161674868Y-106404737D01*
X161495263Y-106584342D01*
X161495263Y-106225132D01*
X161384359Y-105947901D01*
X160738407Y-105704677D01*
X160048547Y-105727164D01*
X159667000Y-105885206D01*
X159667000Y-85008000D01*
X159667000Y-84627000D01*
X159667000Y-84373000D01*
X159667000Y-83992000D01*
X159512059Y-83467059D01*
X159168026Y-83041370D01*
X158687277Y-82779740D01*
X158613070Y-82764780D01*
X158397000Y-82887280D01*
X158397000Y-84373000D01*
X159667000Y-84373000D01*
X159667000Y-84627000D01*
X158397000Y-84627000D01*
X158397000Y-86112720D01*
X158613070Y-86235220D01*
X158687277Y-86220260D01*
X159168026Y-85958630D01*
X159512059Y-85532941D01*
X159667000Y-85008000D01*
X159667000Y-105885206D01*
X159515641Y-105947901D01*
X159404737Y-106225132D01*
X160450000Y-107270395D01*
X161495263Y-106225132D01*
X161495263Y-106584342D01*
X160629605Y-107450000D01*
X161674868Y-108495263D01*
X161952099Y-108384359D01*
X162195323Y-107738407D01*
X162195323Y-108563412D01*
X162075057Y-108613106D01*
X161614722Y-109072637D01*
X161495263Y-109360326D01*
X161495263Y-108674868D01*
X160450000Y-107629605D01*
X160270395Y-107809210D01*
X160270395Y-107450000D01*
X159225132Y-106404737D01*
X158947901Y-106515641D01*
X158704677Y-107161593D01*
X158727164Y-107851453D01*
X158947901Y-108384359D01*
X159225132Y-108495263D01*
X160270395Y-107450000D01*
X160270395Y-107809210D01*
X159404737Y-108674868D01*
X159515641Y-108952099D01*
X160161593Y-109195323D01*
X160851453Y-109172836D01*
X161384359Y-108952099D01*
X161495263Y-108674868D01*
X161495263Y-109360326D01*
X161365284Y-109673352D01*
X161364716Y-110323795D01*
X161613106Y-110924943D01*
X162072637Y-111385278D01*
X162673352Y-111634716D01*
X163323795Y-111635284D01*
X163924943Y-111386894D01*
X164385278Y-110927363D01*
X164634716Y-110326648D01*
X164635284Y-109676205D01*
X164635284Y-111039764D01*
X164615641Y-111047901D01*
X164504737Y-111325132D01*
X165550000Y-112370395D01*
X166595263Y-111325132D01*
X166595263Y-111684342D01*
X165729605Y-112550000D01*
X166774868Y-113595263D01*
X167052099Y-113484359D01*
X167295323Y-112838407D01*
X167295323Y-114315000D01*
X166595263Y-114315000D01*
X166595263Y-113774868D01*
X165550000Y-112729605D01*
X165370395Y-112909210D01*
X165370395Y-112550000D01*
X164325132Y-111504737D01*
X164047901Y-111615641D01*
X163804677Y-112261593D01*
X163827164Y-112951453D01*
X164047901Y-113484359D01*
X164325132Y-113595263D01*
X165370395Y-112550000D01*
X165370395Y-112909210D01*
X164504737Y-113774868D01*
X164615641Y-114052099D01*
X165261593Y-114295323D01*
X165951453Y-114272836D01*
X166484359Y-114052099D01*
X166595263Y-113774868D01*
X166595263Y-114315000D01*
X162195323Y-114315000D01*
X162195323Y-112838407D01*
X162172836Y-112148547D01*
X161952099Y-111615641D01*
X161674868Y-111504737D01*
X161495263Y-111684342D01*
X161495263Y-111325132D01*
X161384359Y-111047901D01*
X160738407Y-110804677D01*
X160048547Y-110827164D01*
X159515641Y-111047901D01*
X159404737Y-111325132D01*
X160450000Y-112370395D01*
X161495263Y-111325132D01*
X161495263Y-111684342D01*
X160629605Y-112550000D01*
X161674868Y-113595263D01*
X161952099Y-113484359D01*
X162195323Y-112838407D01*
X162195323Y-114315000D01*
X161495263Y-114315000D01*
X161495263Y-113774868D01*
X160450000Y-112729605D01*
X160270395Y-112909210D01*
X160270395Y-112550000D01*
X159225132Y-111504737D01*
X158947901Y-111615641D01*
X158704677Y-112261593D01*
X158727164Y-112951453D01*
X158947901Y-113484359D01*
X159225132Y-113595263D01*
X160270395Y-112550000D01*
X160270395Y-112909210D01*
X159404737Y-113774868D01*
X159515641Y-114052099D01*
X160161593Y-114295323D01*
X160851453Y-114272836D01*
X161384359Y-114052099D01*
X161495263Y-113774868D01*
X161495263Y-114315000D01*
X158143000Y-114315000D01*
X158143000Y-86112720D01*
X158143000Y-84627000D01*
X158123000Y-84627000D01*
X158123000Y-84373000D01*
X158143000Y-84373000D01*
X158143000Y-82887280D01*
X157926930Y-82764780D01*
X157852723Y-82779740D01*
X157371974Y-83041370D01*
X157127000Y-83344488D01*
X157127000Y-83230691D01*
X157030327Y-82997302D01*
X156851699Y-82818673D01*
X156618310Y-82722000D01*
X156365691Y-82722000D01*
X154841691Y-82722000D01*
X154608302Y-82818673D01*
X154429673Y-82997301D01*
X154333000Y-83230690D01*
X154333000Y-83483309D01*
X154333000Y-85769309D01*
X154429673Y-86002698D01*
X154608301Y-86181327D01*
X154841690Y-86278000D01*
X155094309Y-86278000D01*
X156618309Y-86278000D01*
X156851698Y-86181327D01*
X157030327Y-86002699D01*
X157127000Y-85769310D01*
X157127000Y-85655511D01*
X157371974Y-85958630D01*
X157852723Y-86220260D01*
X157926930Y-86235220D01*
X158143000Y-86112720D01*
X158143000Y-114315000D01*
X156409144Y-114315000D01*
X156409144Y-105208458D01*
X156381362Y-104653392D01*
X156222397Y-104269617D01*
X156167417Y-104253847D01*
X156300327Y-104120939D01*
X156397000Y-103887550D01*
X156397000Y-103634931D01*
X156397000Y-102110931D01*
X156300327Y-101877542D01*
X156121699Y-101698913D01*
X156008000Y-101651817D01*
X156008000Y-91508000D01*
X156008000Y-87492000D01*
X150492000Y-87492000D01*
X150492000Y-91508000D01*
X156008000Y-91508000D01*
X156008000Y-101651817D01*
X155888310Y-101602240D01*
X155635691Y-101602240D01*
X154111691Y-101602240D01*
X153878302Y-101698913D01*
X153699673Y-101877541D01*
X153603000Y-102110930D01*
X153603000Y-102363549D01*
X153603000Y-103887549D01*
X153699673Y-104120938D01*
X153832581Y-104253847D01*
X153777603Y-104269617D01*
X153590856Y-104793062D01*
X153618638Y-105348128D01*
X153777603Y-105731903D01*
X154019787Y-105801368D01*
X154820395Y-105000760D01*
X154806252Y-104986617D01*
X154985857Y-104807012D01*
X155000000Y-104821155D01*
X155014142Y-104807012D01*
X155193747Y-104986617D01*
X155179605Y-105000760D01*
X155980213Y-105801368D01*
X156222397Y-105731903D01*
X156409144Y-105208458D01*
X156409144Y-114315000D01*
X156397242Y-114315000D01*
X156397242Y-110722579D01*
X156185010Y-110208937D01*
X155800608Y-109823863D01*
X155800608Y-105980973D01*
X155000000Y-105180365D01*
X154199392Y-105980973D01*
X154268857Y-106223157D01*
X154792302Y-106409904D01*
X155347368Y-106382122D01*
X155731143Y-106223157D01*
X155800608Y-105980973D01*
X155800608Y-109823863D01*
X155792370Y-109815611D01*
X155279100Y-109602483D01*
X154723339Y-109601998D01*
X154209697Y-109814230D01*
X153816371Y-110206870D01*
X153603243Y-110720140D01*
X153602758Y-111275901D01*
X153807446Y-111771287D01*
X153699673Y-111879062D01*
X153603000Y-112112451D01*
X153603000Y-112715010D01*
X153761750Y-112873760D01*
X154873000Y-112873760D01*
X154873000Y-112853760D01*
X155127000Y-112853760D01*
X155127000Y-112873760D01*
X156238250Y-112873760D01*
X156397000Y-112715010D01*
X156397000Y-112112451D01*
X156300327Y-111879062D01*
X156192210Y-111770944D01*
X156396757Y-111278340D01*
X156397242Y-110722579D01*
X156397242Y-114315000D01*
X156088110Y-114315000D01*
X156121699Y-114301087D01*
X156300327Y-114122458D01*
X156397000Y-113889069D01*
X156397000Y-113286510D01*
X156238250Y-113127760D01*
X155127000Y-113127760D01*
X155127000Y-113147760D01*
X154873000Y-113147760D01*
X154873000Y-113127760D01*
X153761750Y-113127760D01*
X153603000Y-113286510D01*
X153603000Y-113889069D01*
X153699673Y-114122458D01*
X153878301Y-114301087D01*
X153911889Y-114315000D01*
X153435162Y-114315000D01*
X153435162Y-96064833D01*
X153304930Y-95749648D01*
X153434838Y-95436799D01*
X153435162Y-95064833D01*
X153293117Y-94721057D01*
X153030327Y-94457808D01*
X152686799Y-94315162D01*
X152314833Y-94314838D01*
X152124957Y-94393292D01*
X151936799Y-94315162D01*
X151564833Y-94314838D01*
X151221057Y-94456883D01*
X150957808Y-94719673D01*
X150815162Y-95063201D01*
X150814838Y-95435167D01*
X150945069Y-95750351D01*
X150815162Y-96063201D01*
X150814838Y-96435167D01*
X150956883Y-96778943D01*
X151219673Y-97042192D01*
X151563201Y-97184838D01*
X151935167Y-97185162D01*
X152125042Y-97106707D01*
X152313201Y-97184838D01*
X152685167Y-97185162D01*
X153028943Y-97043117D01*
X153292192Y-96780327D01*
X153434838Y-96436799D01*
X153435162Y-96064833D01*
X153435162Y-114315000D01*
X152409144Y-114315000D01*
X152409144Y-101208458D01*
X152381362Y-100653392D01*
X152222397Y-100269617D01*
X152167417Y-100253847D01*
X152300327Y-100120939D01*
X152397000Y-99887550D01*
X152397000Y-99634931D01*
X152397000Y-98110931D01*
X152300327Y-97877542D01*
X152121699Y-97698913D01*
X151888310Y-97602240D01*
X151635691Y-97602240D01*
X150111691Y-97602240D01*
X149878302Y-97698913D01*
X149699673Y-97877541D01*
X149603000Y-98110930D01*
X149603000Y-98363549D01*
X149603000Y-99887549D01*
X149699673Y-100120938D01*
X149832581Y-100253847D01*
X149777603Y-100269617D01*
X149590856Y-100793062D01*
X149618638Y-101348128D01*
X149777603Y-101731903D01*
X150019787Y-101801368D01*
X150820395Y-101000760D01*
X150806252Y-100986617D01*
X150985857Y-100807012D01*
X151000000Y-100821155D01*
X151014142Y-100807012D01*
X151193747Y-100986617D01*
X151179605Y-101000760D01*
X151980213Y-101801368D01*
X152222397Y-101731903D01*
X152409144Y-101208458D01*
X152409144Y-114315000D01*
X152397242Y-114315000D01*
X152397242Y-106722579D01*
X152185010Y-106208937D01*
X151800608Y-105823863D01*
X151800608Y-101980973D01*
X151000000Y-101180365D01*
X150199392Y-101980973D01*
X150268857Y-102223157D01*
X150792302Y-102409904D01*
X151347368Y-102382122D01*
X151731143Y-102223157D01*
X151800608Y-101980973D01*
X151800608Y-105823863D01*
X151792370Y-105815611D01*
X151279100Y-105602483D01*
X150723339Y-105601998D01*
X150209697Y-105814230D01*
X149816371Y-106206870D01*
X149603243Y-106720140D01*
X149602758Y-107275901D01*
X149807446Y-107771287D01*
X149699673Y-107879062D01*
X149603000Y-108112451D01*
X149603000Y-108715010D01*
X149761750Y-108873760D01*
X150873000Y-108873760D01*
X150873000Y-108853760D01*
X151127000Y-108853760D01*
X151127000Y-108873760D01*
X152238250Y-108873760D01*
X152397000Y-108715010D01*
X152397000Y-108112451D01*
X152300327Y-107879062D01*
X152192210Y-107770944D01*
X152396757Y-107278340D01*
X152397242Y-106722579D01*
X152397242Y-114315000D01*
X152397000Y-114315000D01*
X152397000Y-109889069D01*
X152397000Y-109286510D01*
X152238250Y-109127760D01*
X151127000Y-109127760D01*
X151127000Y-110239010D01*
X151285750Y-110397760D01*
X151635691Y-110397760D01*
X151888310Y-110397760D01*
X152121699Y-110301087D01*
X152300327Y-110122458D01*
X152397000Y-109889069D01*
X152397000Y-114315000D01*
X150873000Y-114315000D01*
X150873000Y-110239010D01*
X150873000Y-109127760D01*
X149761750Y-109127760D01*
X149603000Y-109286510D01*
X149603000Y-109889069D01*
X149699673Y-110122458D01*
X149878301Y-110301087D01*
X150111690Y-110397760D01*
X150364309Y-110397760D01*
X150714250Y-110397760D01*
X150873000Y-110239010D01*
X150873000Y-114315000D01*
X148435162Y-114315000D01*
X148435162Y-83814833D01*
X148293117Y-83471057D01*
X148030327Y-83207808D01*
X147686799Y-83065162D01*
X147314833Y-83064838D01*
X146971057Y-83206883D01*
X146707808Y-83469673D01*
X146565162Y-83813201D01*
X146564838Y-84185167D01*
X146706883Y-84528943D01*
X146969673Y-84792192D01*
X147313201Y-84934838D01*
X147685167Y-84935162D01*
X148028943Y-84793117D01*
X148292192Y-84530327D01*
X148434838Y-84186799D01*
X148435162Y-83814833D01*
X148435162Y-114315000D01*
X144295323Y-114315000D01*
X144295323Y-95338407D01*
X144295323Y-90238407D01*
X144272836Y-89548547D01*
X144052099Y-89015641D01*
X143774868Y-88904737D01*
X143685162Y-88994443D01*
X143685162Y-87314833D01*
X143543117Y-86971057D01*
X143280327Y-86707808D01*
X142936799Y-86565162D01*
X142564833Y-86564838D01*
X142221057Y-86706883D01*
X141957808Y-86969673D01*
X141815162Y-87313201D01*
X141814838Y-87685167D01*
X141956883Y-88028943D01*
X142154562Y-88226967D01*
X142148547Y-88227164D01*
X141615641Y-88447901D01*
X141504737Y-88725132D01*
X142550000Y-89770395D01*
X143595263Y-88725132D01*
X143484359Y-88447901D01*
X143180886Y-88333632D01*
X143278943Y-88293117D01*
X143542192Y-88030327D01*
X143684838Y-87686799D01*
X143685162Y-87314833D01*
X143685162Y-88994443D01*
X142729605Y-89950000D01*
X143774868Y-90995263D01*
X144052099Y-90884359D01*
X144295323Y-90238407D01*
X144295323Y-95338407D01*
X144272836Y-94648547D01*
X144052099Y-94115641D01*
X143774868Y-94004737D01*
X143595263Y-94184342D01*
X143595263Y-93825132D01*
X143595263Y-91174868D01*
X142550000Y-90129605D01*
X142370395Y-90309210D01*
X142370395Y-89950000D01*
X141325132Y-88904737D01*
X141047901Y-89015641D01*
X140804677Y-89661593D01*
X140827164Y-90351453D01*
X141047901Y-90884359D01*
X141325132Y-90995263D01*
X142370395Y-89950000D01*
X142370395Y-90309210D01*
X141504737Y-91174868D01*
X141615641Y-91452099D01*
X142261593Y-91695323D01*
X142951453Y-91672836D01*
X143484359Y-91452099D01*
X143595263Y-91174868D01*
X143595263Y-93825132D01*
X143484359Y-93547901D01*
X142838407Y-93304677D01*
X142148547Y-93327164D01*
X141635284Y-93539764D01*
X141635284Y-92176205D01*
X141386894Y-91575057D01*
X140927363Y-91114722D01*
X140326648Y-90865284D01*
X139676205Y-90864716D01*
X139195323Y-91063412D01*
X139195323Y-90238407D01*
X139172836Y-89548547D01*
X138952099Y-89015641D01*
X138674868Y-88904737D01*
X138495263Y-89084342D01*
X138495263Y-88725132D01*
X138384359Y-88447901D01*
X137935162Y-88278762D01*
X137935162Y-84814833D01*
X137793117Y-84471057D01*
X137530327Y-84207808D01*
X137186799Y-84065162D01*
X136814833Y-84064838D01*
X136471057Y-84206883D01*
X136207808Y-84469673D01*
X136065162Y-84813201D01*
X136064838Y-85185167D01*
X136206883Y-85528943D01*
X136469673Y-85792192D01*
X136813201Y-85934838D01*
X137185167Y-85935162D01*
X137528943Y-85793117D01*
X137792192Y-85530327D01*
X137934838Y-85186799D01*
X137935162Y-84814833D01*
X137935162Y-88278762D01*
X137738407Y-88204677D01*
X137048547Y-88227164D01*
X136515641Y-88447901D01*
X136404737Y-88725132D01*
X137450000Y-89770395D01*
X138495263Y-88725132D01*
X138495263Y-89084342D01*
X137629605Y-89950000D01*
X138674868Y-90995263D01*
X138952099Y-90884359D01*
X139195323Y-90238407D01*
X139195323Y-91063412D01*
X139075057Y-91113106D01*
X138614722Y-91572637D01*
X138495263Y-91860326D01*
X138495263Y-91174868D01*
X137450000Y-90129605D01*
X137270395Y-90309210D01*
X137270395Y-89950000D01*
X136225132Y-88904737D01*
X135947901Y-89015641D01*
X135704677Y-89661593D01*
X135727164Y-90351453D01*
X135947901Y-90884359D01*
X136225132Y-90995263D01*
X137270395Y-89950000D01*
X137270395Y-90309210D01*
X136404737Y-91174868D01*
X136515641Y-91452099D01*
X137161593Y-91695323D01*
X137851453Y-91672836D01*
X138384359Y-91452099D01*
X138495263Y-91174868D01*
X138495263Y-91860326D01*
X138365284Y-92173352D01*
X138364716Y-92823795D01*
X138613106Y-93424943D01*
X139072637Y-93885278D01*
X139673352Y-94134716D01*
X140323795Y-94135284D01*
X140924943Y-93886894D01*
X141385278Y-93427363D01*
X141634716Y-92826648D01*
X141635284Y-92176205D01*
X141635284Y-93539764D01*
X141615641Y-93547901D01*
X141504737Y-93825132D01*
X142550000Y-94870395D01*
X143595263Y-93825132D01*
X143595263Y-94184342D01*
X142729605Y-95050000D01*
X143774868Y-96095263D01*
X144052099Y-95984359D01*
X144295323Y-95338407D01*
X144295323Y-114315000D01*
X143595263Y-114315000D01*
X143595263Y-96274868D01*
X142550000Y-95229605D01*
X142370395Y-95409210D01*
X142370395Y-95050000D01*
X141325132Y-94004737D01*
X141047901Y-94115641D01*
X140804677Y-94761593D01*
X140827164Y-95451453D01*
X141047901Y-95984359D01*
X141325132Y-96095263D01*
X142370395Y-95050000D01*
X142370395Y-95409210D01*
X141504737Y-96274868D01*
X141615641Y-96552099D01*
X142261593Y-96795323D01*
X142951453Y-96772836D01*
X143484359Y-96552099D01*
X143595263Y-96274868D01*
X143595263Y-114315000D01*
X141312833Y-114315000D01*
X141312833Y-111080000D01*
X141206493Y-110545391D01*
X140903661Y-110092172D01*
X140481361Y-109810000D01*
X140903661Y-109527828D01*
X141206493Y-109074609D01*
X141312833Y-108540000D01*
X141312833Y-103460000D01*
X141206493Y-102925391D01*
X140903661Y-102472172D01*
X140671430Y-102317000D01*
X140769309Y-102317000D01*
X141002698Y-102220327D01*
X141181327Y-102041699D01*
X141278000Y-101808310D01*
X141278000Y-101555691D01*
X141278000Y-100031691D01*
X141181327Y-99798302D01*
X141002699Y-99619673D01*
X140769310Y-99523000D01*
X140516691Y-99523000D01*
X139195323Y-99523000D01*
X139195323Y-95338407D01*
X139172836Y-94648547D01*
X138952099Y-94115641D01*
X138674868Y-94004737D01*
X138495263Y-94184342D01*
X138495263Y-93825132D01*
X138384359Y-93547901D01*
X137738407Y-93304677D01*
X137048547Y-93327164D01*
X136515641Y-93547901D01*
X136404737Y-93825132D01*
X137450000Y-94870395D01*
X138495263Y-93825132D01*
X138495263Y-94184342D01*
X137629605Y-95050000D01*
X138674868Y-96095263D01*
X138952099Y-95984359D01*
X139195323Y-95338407D01*
X139195323Y-99523000D01*
X138495263Y-99523000D01*
X138495263Y-96274868D01*
X137450000Y-95229605D01*
X137270395Y-95409210D01*
X137270395Y-95050000D01*
X136225132Y-94004737D01*
X135947901Y-94115641D01*
X135704677Y-94761593D01*
X135727164Y-95451453D01*
X135947901Y-95984359D01*
X136225132Y-96095263D01*
X137270395Y-95050000D01*
X137270395Y-95409210D01*
X136404737Y-96274868D01*
X136515641Y-96552099D01*
X137161593Y-96795323D01*
X137851453Y-96772836D01*
X138384359Y-96552099D01*
X138495263Y-96274868D01*
X138495263Y-99523000D01*
X138230691Y-99523000D01*
X137997302Y-99619673D01*
X137818673Y-99798301D01*
X137722000Y-100031690D01*
X137722000Y-100284309D01*
X137722000Y-101808309D01*
X137818673Y-102041698D01*
X137997301Y-102220327D01*
X138230690Y-102317000D01*
X138328569Y-102317000D01*
X138096339Y-102472172D01*
X137793507Y-102925391D01*
X137687167Y-103460000D01*
X137793507Y-103994609D01*
X138096339Y-104447828D01*
X138531839Y-104738820D01*
X138467059Y-104757941D01*
X138041370Y-105101974D01*
X137779740Y-105582723D01*
X137764780Y-105656930D01*
X137887280Y-105873000D01*
X139373000Y-105873000D01*
X139373000Y-105853000D01*
X139627000Y-105853000D01*
X139627000Y-105873000D01*
X141112720Y-105873000D01*
X141235220Y-105656930D01*
X141220260Y-105582723D01*
X140958630Y-105101974D01*
X140532941Y-104757941D01*
X140468160Y-104738820D01*
X140903661Y-104447828D01*
X141206493Y-103994609D01*
X141312833Y-103460000D01*
X141312833Y-108540000D01*
X141206493Y-108005391D01*
X140903661Y-107552172D01*
X140468160Y-107261179D01*
X140532941Y-107242059D01*
X140958630Y-106898026D01*
X141220260Y-106417277D01*
X141235220Y-106343070D01*
X141112720Y-106127000D01*
X139627000Y-106127000D01*
X139627000Y-106147000D01*
X139373000Y-106147000D01*
X139373000Y-106127000D01*
X137887280Y-106127000D01*
X137764780Y-106343070D01*
X137779740Y-106417277D01*
X138041370Y-106898026D01*
X138467059Y-107242059D01*
X138531839Y-107261179D01*
X138096339Y-107552172D01*
X137793507Y-108005391D01*
X137687167Y-108540000D01*
X137793507Y-109074609D01*
X138096339Y-109527828D01*
X138518638Y-109810000D01*
X138096339Y-110092172D01*
X137793507Y-110545391D01*
X137687167Y-111080000D01*
X137793507Y-111614609D01*
X138096339Y-112067828D01*
X138549558Y-112370660D01*
X139084167Y-112477000D01*
X139915833Y-112477000D01*
X140450442Y-112370660D01*
X140903661Y-112067828D01*
X141206493Y-111614609D01*
X141312833Y-111080000D01*
X141312833Y-114315000D01*
X135685000Y-114315000D01*
X135685000Y-82685000D01*
X136000000Y-82685000D01*
X167315000Y-82685000D01*
X167315000Y-94274018D01*
X167293117Y-94221057D01*
X167030327Y-93957808D01*
X166686799Y-93815162D01*
X166314833Y-93814838D01*
X166217215Y-93855172D01*
X166292192Y-93780327D01*
X166434838Y-93436799D01*
X166435162Y-93064833D01*
X166435162Y-89564833D01*
X166304930Y-89249648D01*
X166434838Y-88936799D01*
X166435162Y-88564833D01*
X166293117Y-88221057D01*
X166030327Y-87957808D01*
X165686799Y-87815162D01*
X165314833Y-87814838D01*
X165124957Y-87893292D01*
X164936799Y-87815162D01*
X164564833Y-87814838D01*
X164221057Y-87956883D01*
X163957808Y-88219673D01*
X163815162Y-88563201D01*
X163814838Y-88935167D01*
X163945069Y-89250351D01*
X163815162Y-89563201D01*
X163814838Y-89935167D01*
X163956883Y-90278943D01*
X164219673Y-90542192D01*
X164563201Y-90684838D01*
X164935167Y-90685162D01*
X165125042Y-90606707D01*
X165313201Y-90684838D01*
X165685167Y-90685162D01*
X166028943Y-90543117D01*
X166292192Y-90280327D01*
X166434838Y-89936799D01*
X166435162Y-89564833D01*
X166435162Y-93064833D01*
X166293117Y-92721057D01*
X166030327Y-92457808D01*
X165686799Y-92315162D01*
X165508000Y-92315006D01*
X165508000Y-91242000D01*
X161742000Y-91242000D01*
X161742000Y-94590029D01*
X161664485Y-94622058D01*
X161373081Y-94912954D01*
X161215180Y-95293223D01*
X161214821Y-95704971D01*
X161336829Y-96000256D01*
X161215180Y-96293223D01*
X161214821Y-96704971D01*
X161372058Y-97085515D01*
X161662954Y-97376919D01*
X162043223Y-97534820D01*
X162454971Y-97535179D01*
X162835515Y-97377942D01*
X163000031Y-97213712D01*
X163162954Y-97376919D01*
X163543223Y-97534820D01*
X163954971Y-97535179D01*
X164335515Y-97377942D01*
X164626919Y-97087046D01*
X164784820Y-96706777D01*
X164785179Y-96295029D01*
X164663170Y-95999743D01*
X164784820Y-95706777D01*
X164785179Y-95295029D01*
X164769878Y-95258000D01*
X164941893Y-95258000D01*
X164815162Y-95563201D01*
X164814838Y-95935167D01*
X164956883Y-96278943D01*
X165219673Y-96542192D01*
X165563201Y-96684838D01*
X165935167Y-96685162D01*
X166125042Y-96606707D01*
X166313201Y-96684838D01*
X166685167Y-96685162D01*
X167028943Y-96543117D01*
X167292192Y-96280327D01*
X167315000Y-96225399D01*
X167315000Y-114315000D01*
M02*
