G04 #@! TF.FileFunction,Copper,L3,Inr,Signal*
%FSLAX46Y46*%
G04 Gerber Fmt 4.6, Leading zero omitted, Abs format (unit mm)*
G04 Created by KiCad (PCBNEW (2014-11-13 BZR 5275)-product) date Sun 16 Nov 2014 06:56:20 PM EST*
%MOMM*%
G01*
G04 APERTURE LIST*
%ADD10C,0.100000*%
%ADD11R,1.524000X2.286000*%
%ADD12O,1.524000X2.286000*%
%ADD13R,1.524000X1.524000*%
%ADD14C,1.524000*%
%ADD15C,2.000000*%
%ADD16C,2.200000*%
%ADD17R,2.286000X1.524000*%
%ADD18O,2.286000X1.524000*%
%ADD19C,0.600000*%
%ADD20C,0.800000*%
%ADD21C,0.254000*%
G04 APERTURE END LIST*
D10*
D11*
X155730000Y-84500000D03*
D12*
X158270000Y-84500000D03*
D13*
X155000000Y-102999240D03*
D14*
X155000000Y-105000760D03*
D13*
X151000000Y-109000760D03*
D14*
X151000000Y-106999240D03*
D13*
X151000000Y-98999240D03*
D14*
X151000000Y-101000760D03*
D13*
X155000000Y-113000760D03*
D14*
X155000000Y-110999240D03*
D15*
X140000000Y-92500000D03*
D16*
X137450000Y-89950000D03*
X142550000Y-89950000D03*
X137450000Y-95050000D03*
X142550000Y-95050000D03*
D15*
X163000000Y-110000000D03*
D16*
X160450000Y-107450000D03*
X165550000Y-107450000D03*
X160450000Y-112550000D03*
X165550000Y-112550000D03*
D17*
X139500000Y-100920000D03*
D18*
X139500000Y-103460000D03*
X139500000Y-106000000D03*
X139500000Y-108540000D03*
X139500000Y-111080000D03*
D19*
X164000000Y-90750000D03*
D20*
X157750000Y-91750000D03*
X156250000Y-91750000D03*
X157750000Y-90250000D03*
X157000000Y-91000000D03*
X156250000Y-90250000D03*
D19*
X146000000Y-91500000D03*
X146000000Y-93750000D03*
X166250000Y-100000000D03*
X166250000Y-100750000D03*
X167000000Y-100750000D03*
X167000000Y-100000000D03*
X147500000Y-85250000D03*
X144500000Y-85250000D03*
X150500000Y-88250000D03*
X147500000Y-88250000D03*
X150500000Y-89250000D03*
X150500000Y-90750000D03*
X149250000Y-90000000D03*
X148500000Y-89250000D03*
X152750000Y-93750000D03*
X152000000Y-93750000D03*
X151250000Y-93750000D03*
X150500000Y-93750000D03*
X159250000Y-98000000D03*
X160750000Y-98000000D03*
X157000000Y-94000000D03*
X160000000Y-98000000D03*
X157000000Y-96500000D03*
X156250000Y-96500000D03*
X157000000Y-95500000D03*
X157000000Y-94750000D03*
X163250000Y-87750000D03*
X162250000Y-86250000D03*
X160750000Y-86250000D03*
X162250000Y-87000000D03*
X160750000Y-87000000D03*
X161500000Y-86250000D03*
X161500000Y-87000000D03*
X165500000Y-89750000D03*
X164750000Y-89750000D03*
X165500000Y-88750000D03*
X164750000Y-88750000D03*
X142750000Y-87500000D03*
X152500000Y-95250000D03*
X151750000Y-95250000D03*
X151750000Y-96250000D03*
X152500000Y-96250000D03*
X166500000Y-94750000D03*
X165750000Y-94750000D03*
X166500000Y-95750000D03*
X165750000Y-95750000D03*
D20*
X162250000Y-96500000D03*
X163750000Y-96500000D03*
X163750000Y-95500000D03*
X162250000Y-95500000D03*
X163000000Y-96000000D03*
D19*
X147500000Y-84000000D03*
X147500000Y-84000000D03*
X137000000Y-85000000D03*
X137000000Y-85000000D03*
X165500000Y-93250000D03*
X165500000Y-93250000D03*
X162759002Y-100250000D03*
X162759002Y-100250000D03*
X162759002Y-100250000D03*
D21*
G36*
X167373000Y-114373000D02*
X167295323Y-114373000D01*
X167295323Y-112838407D01*
X167295323Y-107738407D01*
X167277134Y-107180401D01*
X167277134Y-95596123D01*
X167159092Y-95310440D01*
X167098843Y-95250086D01*
X167158324Y-95190710D01*
X167276865Y-94905233D01*
X167277134Y-94596123D01*
X167159092Y-94310440D01*
X166940710Y-94091676D01*
X166655233Y-93973135D01*
X166346123Y-93972866D01*
X166124808Y-94064311D01*
X165905233Y-93973135D01*
X165784817Y-93973030D01*
X165939560Y-93909092D01*
X166158324Y-93690710D01*
X166276865Y-93405233D01*
X166277134Y-93096123D01*
X166277134Y-89596123D01*
X166159092Y-89310440D01*
X166098843Y-89250086D01*
X166158324Y-89190710D01*
X166276865Y-88905233D01*
X166277134Y-88596123D01*
X166159092Y-88310440D01*
X165940710Y-88091676D01*
X165655233Y-87973135D01*
X165346123Y-87972866D01*
X165124808Y-88064311D01*
X164905233Y-87973135D01*
X164596123Y-87972866D01*
X164310440Y-88090908D01*
X164091676Y-88309290D01*
X163973135Y-88594767D01*
X163972866Y-88903877D01*
X164090908Y-89189560D01*
X164151156Y-89249913D01*
X164091676Y-89309290D01*
X163973135Y-89594767D01*
X163972866Y-89903877D01*
X164090908Y-90189560D01*
X164309290Y-90408324D01*
X164594767Y-90526865D01*
X164903877Y-90527134D01*
X165125191Y-90435688D01*
X165344767Y-90526865D01*
X165653877Y-90527134D01*
X165939560Y-90409092D01*
X166158324Y-90190710D01*
X166276865Y-89905233D01*
X166277134Y-89596123D01*
X166277134Y-93096123D01*
X166159092Y-92810440D01*
X165940710Y-92591676D01*
X165655233Y-92473135D01*
X165508000Y-92473006D01*
X165508000Y-91242000D01*
X161742000Y-91242000D01*
X161742000Y-94767930D01*
X161506949Y-95002571D01*
X161373153Y-95324789D01*
X161372849Y-95673681D01*
X161506082Y-95996131D01*
X161509734Y-95999790D01*
X161506949Y-96002571D01*
X161373153Y-96324789D01*
X161372849Y-96673681D01*
X161506082Y-96996131D01*
X161752571Y-97243051D01*
X162074789Y-97376847D01*
X162423681Y-97377151D01*
X162746131Y-97243918D01*
X162993051Y-96997429D01*
X162999851Y-96981051D01*
X163006082Y-96996131D01*
X163252571Y-97243051D01*
X163574789Y-97376847D01*
X163923681Y-97377151D01*
X164246131Y-97243918D01*
X164493051Y-96997429D01*
X164626847Y-96675211D01*
X164627151Y-96326319D01*
X164493918Y-96003869D01*
X164490265Y-96000209D01*
X164493051Y-95997429D01*
X164626847Y-95675211D01*
X164627151Y-95326319D01*
X164598922Y-95258000D01*
X165143055Y-95258000D01*
X165091676Y-95309290D01*
X164973135Y-95594767D01*
X164972866Y-95903877D01*
X165090908Y-96189560D01*
X165309290Y-96408324D01*
X165594767Y-96526865D01*
X165903877Y-96527134D01*
X166125191Y-96435688D01*
X166344767Y-96526865D01*
X166653877Y-96527134D01*
X166939560Y-96409092D01*
X167158324Y-96190710D01*
X167276865Y-95905233D01*
X167277134Y-95596123D01*
X167277134Y-107180401D01*
X167272836Y-107048547D01*
X167052099Y-106515641D01*
X166774868Y-106404737D01*
X166595263Y-106584342D01*
X166595263Y-106225132D01*
X166484359Y-105947901D01*
X165838407Y-105704677D01*
X165148547Y-105727164D01*
X164615641Y-105947901D01*
X164504737Y-106225132D01*
X165550000Y-107270395D01*
X166595263Y-106225132D01*
X166595263Y-106584342D01*
X165729605Y-107450000D01*
X166774868Y-108495263D01*
X167052099Y-108384359D01*
X167295323Y-107738407D01*
X167295323Y-112838407D01*
X167272836Y-112148547D01*
X167052099Y-111615641D01*
X166774868Y-111504737D01*
X166595263Y-111684342D01*
X166595263Y-111325132D01*
X166595263Y-108674868D01*
X165550000Y-107629605D01*
X165370395Y-107809210D01*
X165370395Y-107450000D01*
X164325132Y-106404737D01*
X164047901Y-106515641D01*
X163804677Y-107161593D01*
X163827164Y-107851453D01*
X164047901Y-108384359D01*
X164325132Y-108495263D01*
X165370395Y-107450000D01*
X165370395Y-107809210D01*
X164504737Y-108674868D01*
X164615641Y-108952099D01*
X165261593Y-109195323D01*
X165951453Y-109172836D01*
X166484359Y-108952099D01*
X166595263Y-108674868D01*
X166595263Y-111325132D01*
X166484359Y-111047901D01*
X165838407Y-110804677D01*
X165148547Y-110827164D01*
X164615641Y-111047901D01*
X164504737Y-111325132D01*
X165550000Y-112370395D01*
X166595263Y-111325132D01*
X166595263Y-111684342D01*
X165729605Y-112550000D01*
X166774868Y-113595263D01*
X167052099Y-113484359D01*
X167295323Y-112838407D01*
X167295323Y-114373000D01*
X166595263Y-114373000D01*
X166595263Y-113774868D01*
X165550000Y-112729605D01*
X165370395Y-112909210D01*
X165370395Y-112550000D01*
X164477256Y-111656861D01*
X164477256Y-109707495D01*
X164252870Y-109164440D01*
X163837746Y-108748591D01*
X163536136Y-108623351D01*
X163536136Y-100096123D01*
X163418094Y-99810440D01*
X163199712Y-99591676D01*
X162914235Y-99473135D01*
X162605125Y-99472866D01*
X162319442Y-99590908D01*
X162100678Y-99809290D01*
X161982137Y-100094767D01*
X161981868Y-100403877D01*
X162099910Y-100689560D01*
X162318292Y-100908324D01*
X162603769Y-101026865D01*
X162912879Y-101027134D01*
X163198562Y-100909092D01*
X163417326Y-100690710D01*
X163535867Y-100405233D01*
X163536136Y-100096123D01*
X163536136Y-108623351D01*
X163295082Y-108523257D01*
X162707495Y-108522744D01*
X162195323Y-108734369D01*
X162195323Y-107738407D01*
X162172836Y-107048547D01*
X161952099Y-106515641D01*
X161674868Y-106404737D01*
X161495263Y-106584342D01*
X161495263Y-106225132D01*
X161384359Y-105947901D01*
X160738407Y-105704677D01*
X160048547Y-105727164D01*
X159667000Y-105885206D01*
X159667000Y-85008000D01*
X159667000Y-84627000D01*
X159667000Y-84373000D01*
X159667000Y-83992000D01*
X159512059Y-83467059D01*
X159168026Y-83041370D01*
X158687277Y-82779740D01*
X158613070Y-82764780D01*
X158397000Y-82887280D01*
X158397000Y-84373000D01*
X159667000Y-84373000D01*
X159667000Y-84627000D01*
X158397000Y-84627000D01*
X158397000Y-86112720D01*
X158613070Y-86235220D01*
X158687277Y-86220260D01*
X159168026Y-85958630D01*
X159512059Y-85532941D01*
X159667000Y-85008000D01*
X159667000Y-105885206D01*
X159515641Y-105947901D01*
X159404737Y-106225132D01*
X160450000Y-107270395D01*
X161495263Y-106225132D01*
X161495263Y-106584342D01*
X160629605Y-107450000D01*
X161674868Y-108495263D01*
X161952099Y-108384359D01*
X162195323Y-107738407D01*
X162195323Y-108734369D01*
X162164440Y-108747130D01*
X161748591Y-109162254D01*
X161523257Y-109704918D01*
X161522744Y-110292505D01*
X161747130Y-110835560D01*
X162162254Y-111251409D01*
X162704918Y-111476743D01*
X163292505Y-111477256D01*
X163835560Y-111252870D01*
X164251409Y-110837746D01*
X164476743Y-110295082D01*
X164477256Y-109707495D01*
X164477256Y-111656861D01*
X164325132Y-111504737D01*
X164047901Y-111615641D01*
X163804677Y-112261593D01*
X163827164Y-112951453D01*
X164047901Y-113484359D01*
X164325132Y-113595263D01*
X165370395Y-112550000D01*
X165370395Y-112909210D01*
X164504737Y-113774868D01*
X164615641Y-114052099D01*
X165261593Y-114295323D01*
X165951453Y-114272836D01*
X166484359Y-114052099D01*
X166595263Y-113774868D01*
X166595263Y-114373000D01*
X162195323Y-114373000D01*
X162195323Y-112838407D01*
X162172836Y-112148547D01*
X161952099Y-111615641D01*
X161674868Y-111504737D01*
X161495263Y-111684342D01*
X161495263Y-111325132D01*
X161495263Y-108674868D01*
X160450000Y-107629605D01*
X160270395Y-107809210D01*
X160270395Y-107450000D01*
X159225132Y-106404737D01*
X158947901Y-106515641D01*
X158704677Y-107161593D01*
X158727164Y-107851453D01*
X158947901Y-108384359D01*
X159225132Y-108495263D01*
X160270395Y-107450000D01*
X160270395Y-107809210D01*
X159404737Y-108674868D01*
X159515641Y-108952099D01*
X160161593Y-109195323D01*
X160851453Y-109172836D01*
X161384359Y-108952099D01*
X161495263Y-108674868D01*
X161495263Y-111325132D01*
X161384359Y-111047901D01*
X160738407Y-110804677D01*
X160048547Y-110827164D01*
X159515641Y-111047901D01*
X159404737Y-111325132D01*
X160450000Y-112370395D01*
X161495263Y-111325132D01*
X161495263Y-111684342D01*
X160629605Y-112550000D01*
X161674868Y-113595263D01*
X161952099Y-113484359D01*
X162195323Y-112838407D01*
X162195323Y-114373000D01*
X161495263Y-114373000D01*
X161495263Y-113774868D01*
X160450000Y-112729605D01*
X160270395Y-112909210D01*
X160270395Y-112550000D01*
X159225132Y-111504737D01*
X158947901Y-111615641D01*
X158704677Y-112261593D01*
X158727164Y-112951453D01*
X158947901Y-113484359D01*
X159225132Y-113595263D01*
X160270395Y-112550000D01*
X160270395Y-112909210D01*
X159404737Y-113774868D01*
X159515641Y-114052099D01*
X160161593Y-114295323D01*
X160851453Y-114272836D01*
X161384359Y-114052099D01*
X161495263Y-113774868D01*
X161495263Y-114373000D01*
X158143000Y-114373000D01*
X158143000Y-86112720D01*
X158143000Y-84627000D01*
X158123000Y-84627000D01*
X158123000Y-84373000D01*
X158143000Y-84373000D01*
X158143000Y-82887280D01*
X157926930Y-82764780D01*
X157852723Y-82779740D01*
X157371974Y-83041370D01*
X157027941Y-83467059D01*
X156969000Y-83666751D01*
X156969000Y-83262119D01*
X156896381Y-83086801D01*
X156762199Y-82952619D01*
X156586881Y-82880000D01*
X156397119Y-82880000D01*
X154873119Y-82880000D01*
X154697801Y-82952619D01*
X154563619Y-83086801D01*
X154491000Y-83262119D01*
X154491000Y-83451881D01*
X154491000Y-85737881D01*
X154563619Y-85913199D01*
X154697801Y-86047381D01*
X154873119Y-86120000D01*
X155062881Y-86120000D01*
X156586881Y-86120000D01*
X156762199Y-86047381D01*
X156896381Y-85913199D01*
X156969000Y-85737881D01*
X156969000Y-85548119D01*
X156969000Y-85333248D01*
X157027941Y-85532941D01*
X157371974Y-85958630D01*
X157852723Y-86220260D01*
X157926930Y-86235220D01*
X158143000Y-86112720D01*
X158143000Y-114373000D01*
X156409144Y-114373000D01*
X156409144Y-105208458D01*
X156381362Y-104653392D01*
X156239000Y-104309700D01*
X156222397Y-104269617D01*
X155980215Y-104200152D01*
X156002406Y-104177961D01*
X156032199Y-104165621D01*
X156166381Y-104031439D01*
X156239000Y-103856121D01*
X156239000Y-103666359D01*
X156239000Y-102142359D01*
X156166381Y-101967041D01*
X156032199Y-101832859D01*
X156008000Y-101822835D01*
X156008000Y-91508000D01*
X156008000Y-87492000D01*
X150492000Y-87492000D01*
X150492000Y-91508000D01*
X156008000Y-91508000D01*
X156008000Y-101822835D01*
X155856881Y-101760240D01*
X155667119Y-101760240D01*
X154143119Y-101760240D01*
X153967801Y-101832859D01*
X153833619Y-101967041D01*
X153761000Y-102142359D01*
X153761000Y-102332121D01*
X153761000Y-103856121D01*
X153833619Y-104031439D01*
X153967801Y-104165621D01*
X153997593Y-104177961D01*
X154019784Y-104200152D01*
X153777603Y-104269617D01*
X153590856Y-104793062D01*
X153618638Y-105348128D01*
X153777603Y-105731903D01*
X154019787Y-105801368D01*
X154820395Y-105000760D01*
X154806252Y-104986617D01*
X154985857Y-104807012D01*
X155000000Y-104821155D01*
X155014142Y-104807012D01*
X155193747Y-104986617D01*
X155179605Y-105000760D01*
X155980213Y-105801368D01*
X156222397Y-105731903D01*
X156409144Y-105208458D01*
X156409144Y-114373000D01*
X155948085Y-114373000D01*
X156121699Y-114301087D01*
X156300327Y-114122458D01*
X156397000Y-113889069D01*
X156397000Y-113286510D01*
X156397000Y-112715010D01*
X156397000Y-112112451D01*
X156300327Y-111879062D01*
X156121699Y-111700433D01*
X156060870Y-111675236D01*
X156238784Y-111246773D01*
X156239214Y-110753869D01*
X156050985Y-110298320D01*
X155800608Y-110047505D01*
X155800608Y-105980973D01*
X155000000Y-105180365D01*
X154820395Y-105359970D01*
X154199392Y-105980973D01*
X154268857Y-106223157D01*
X154792302Y-106409904D01*
X155347368Y-106382122D01*
X155731143Y-106223157D01*
X155800608Y-105980973D01*
X155800608Y-110047505D01*
X155702753Y-109949480D01*
X155247533Y-109760456D01*
X154754629Y-109760026D01*
X154299080Y-109948255D01*
X153950240Y-110296487D01*
X153761216Y-110751707D01*
X153760786Y-111244611D01*
X153938777Y-111675382D01*
X153878301Y-111700433D01*
X153699673Y-111879062D01*
X153603000Y-112112451D01*
X153603000Y-112715010D01*
X153761750Y-112873760D01*
X154873000Y-112873760D01*
X154873000Y-112853760D01*
X155127000Y-112853760D01*
X155127000Y-112873760D01*
X156238250Y-112873760D01*
X156397000Y-112715010D01*
X156397000Y-113286510D01*
X156238250Y-113127760D01*
X155127000Y-113127760D01*
X155127000Y-113147760D01*
X154873000Y-113147760D01*
X154873000Y-113127760D01*
X153761750Y-113127760D01*
X153603000Y-113286510D01*
X153603000Y-113889069D01*
X153699673Y-114122458D01*
X153878301Y-114301087D01*
X154051914Y-114373000D01*
X153277134Y-114373000D01*
X153277134Y-96096123D01*
X153159092Y-95810440D01*
X153098843Y-95750086D01*
X153158324Y-95690710D01*
X153276865Y-95405233D01*
X153277134Y-95096123D01*
X153159092Y-94810440D01*
X152940710Y-94591676D01*
X152655233Y-94473135D01*
X152346123Y-94472866D01*
X152124808Y-94564311D01*
X151905233Y-94473135D01*
X151596123Y-94472866D01*
X151310440Y-94590908D01*
X151091676Y-94809290D01*
X150973135Y-95094767D01*
X150972866Y-95403877D01*
X151090908Y-95689560D01*
X151151156Y-95749913D01*
X151091676Y-95809290D01*
X150973135Y-96094767D01*
X150972866Y-96403877D01*
X151090908Y-96689560D01*
X151309290Y-96908324D01*
X151594767Y-97026865D01*
X151903877Y-97027134D01*
X152125191Y-96935688D01*
X152344767Y-97026865D01*
X152653877Y-97027134D01*
X152939560Y-96909092D01*
X153158324Y-96690710D01*
X153276865Y-96405233D01*
X153277134Y-96096123D01*
X153277134Y-114373000D01*
X152409144Y-114373000D01*
X152409144Y-101208458D01*
X152381362Y-100653392D01*
X152239000Y-100309700D01*
X152222397Y-100269617D01*
X151980215Y-100200152D01*
X152002406Y-100177961D01*
X152032199Y-100165621D01*
X152166381Y-100031439D01*
X152239000Y-99856121D01*
X152239000Y-99666359D01*
X152239000Y-98142359D01*
X152166381Y-97967041D01*
X152032199Y-97832859D01*
X151856881Y-97760240D01*
X151667119Y-97760240D01*
X150143119Y-97760240D01*
X149967801Y-97832859D01*
X149833619Y-97967041D01*
X149761000Y-98142359D01*
X149761000Y-98332121D01*
X149761000Y-99856121D01*
X149833619Y-100031439D01*
X149967801Y-100165621D01*
X149997593Y-100177961D01*
X150019784Y-100200152D01*
X149777603Y-100269617D01*
X149590856Y-100793062D01*
X149618638Y-101348128D01*
X149777603Y-101731903D01*
X150019787Y-101801368D01*
X150820395Y-101000760D01*
X150806252Y-100986617D01*
X150985857Y-100807012D01*
X151000000Y-100821155D01*
X151014142Y-100807012D01*
X151193747Y-100986617D01*
X151179605Y-101000760D01*
X151980213Y-101801368D01*
X152222397Y-101731903D01*
X152409144Y-101208458D01*
X152409144Y-114373000D01*
X152397000Y-114373000D01*
X152397000Y-109889069D01*
X152397000Y-109286510D01*
X152397000Y-108715010D01*
X152397000Y-108112451D01*
X152300327Y-107879062D01*
X152121699Y-107700433D01*
X152060870Y-107675236D01*
X152238784Y-107246773D01*
X152239214Y-106753869D01*
X152050985Y-106298320D01*
X151800608Y-106047505D01*
X151800608Y-101980973D01*
X151000000Y-101180365D01*
X150820395Y-101359970D01*
X150199392Y-101980973D01*
X150268857Y-102223157D01*
X150792302Y-102409904D01*
X151347368Y-102382122D01*
X151731143Y-102223157D01*
X151800608Y-101980973D01*
X151800608Y-106047505D01*
X151702753Y-105949480D01*
X151247533Y-105760456D01*
X150754629Y-105760026D01*
X150299080Y-105948255D01*
X149950240Y-106296487D01*
X149761216Y-106751707D01*
X149760786Y-107244611D01*
X149938777Y-107675382D01*
X149878301Y-107700433D01*
X149699673Y-107879062D01*
X149603000Y-108112451D01*
X149603000Y-108715010D01*
X149761750Y-108873760D01*
X150873000Y-108873760D01*
X150873000Y-108853760D01*
X151127000Y-108853760D01*
X151127000Y-108873760D01*
X152238250Y-108873760D01*
X152397000Y-108715010D01*
X152397000Y-109286510D01*
X152238250Y-109127760D01*
X151127000Y-109127760D01*
X151127000Y-110239010D01*
X151285750Y-110397760D01*
X151635691Y-110397760D01*
X151888310Y-110397760D01*
X152121699Y-110301087D01*
X152300327Y-110122458D01*
X152397000Y-109889069D01*
X152397000Y-114373000D01*
X150873000Y-114373000D01*
X150873000Y-110239010D01*
X150873000Y-109127760D01*
X149761750Y-109127760D01*
X149603000Y-109286510D01*
X149603000Y-109889069D01*
X149699673Y-110122458D01*
X149878301Y-110301087D01*
X150111690Y-110397760D01*
X150364309Y-110397760D01*
X150714250Y-110397760D01*
X150873000Y-110239010D01*
X150873000Y-114373000D01*
X148277134Y-114373000D01*
X148277134Y-83846123D01*
X148159092Y-83560440D01*
X147940710Y-83341676D01*
X147655233Y-83223135D01*
X147346123Y-83222866D01*
X147060440Y-83340908D01*
X146841676Y-83559290D01*
X146723135Y-83844767D01*
X146722866Y-84153877D01*
X146840908Y-84439560D01*
X147059290Y-84658324D01*
X147344767Y-84776865D01*
X147653877Y-84777134D01*
X147939560Y-84659092D01*
X148158324Y-84440710D01*
X148276865Y-84155233D01*
X148277134Y-83846123D01*
X148277134Y-114373000D01*
X144295323Y-114373000D01*
X144295323Y-95338407D01*
X144295323Y-90238407D01*
X144272836Y-89548547D01*
X144052099Y-89015641D01*
X143774868Y-88904737D01*
X143595263Y-89084342D01*
X143595263Y-88725132D01*
X143484359Y-88447901D01*
X142964410Y-88252121D01*
X143189560Y-88159092D01*
X143408324Y-87940710D01*
X143526865Y-87655233D01*
X143527134Y-87346123D01*
X143409092Y-87060440D01*
X143190710Y-86841676D01*
X142905233Y-86723135D01*
X142596123Y-86722866D01*
X142310440Y-86840908D01*
X142091676Y-87059290D01*
X141973135Y-87344767D01*
X141972866Y-87653877D01*
X142090908Y-87939560D01*
X142309290Y-88158324D01*
X142451307Y-88217295D01*
X142148547Y-88227164D01*
X141615641Y-88447901D01*
X141504737Y-88725132D01*
X142550000Y-89770395D01*
X143595263Y-88725132D01*
X143595263Y-89084342D01*
X142729605Y-89950000D01*
X143774868Y-90995263D01*
X144052099Y-90884359D01*
X144295323Y-90238407D01*
X144295323Y-95338407D01*
X144272836Y-94648547D01*
X144052099Y-94115641D01*
X143774868Y-94004737D01*
X143595263Y-94184342D01*
X143595263Y-93825132D01*
X143595263Y-91174868D01*
X142550000Y-90129605D01*
X142370395Y-90309210D01*
X142370395Y-89950000D01*
X141325132Y-88904737D01*
X141047901Y-89015641D01*
X140804677Y-89661593D01*
X140827164Y-90351453D01*
X141047901Y-90884359D01*
X141325132Y-90995263D01*
X142370395Y-89950000D01*
X142370395Y-90309210D01*
X141504737Y-91174868D01*
X141615641Y-91452099D01*
X142261593Y-91695323D01*
X142951453Y-91672836D01*
X143484359Y-91452099D01*
X143595263Y-91174868D01*
X143595263Y-93825132D01*
X143484359Y-93547901D01*
X142838407Y-93304677D01*
X142148547Y-93327164D01*
X141615641Y-93547901D01*
X141504737Y-93825132D01*
X142550000Y-94870395D01*
X143595263Y-93825132D01*
X143595263Y-94184342D01*
X142729605Y-95050000D01*
X143774868Y-96095263D01*
X144052099Y-95984359D01*
X144295323Y-95338407D01*
X144295323Y-114373000D01*
X143595263Y-114373000D01*
X143595263Y-96274868D01*
X142550000Y-95229605D01*
X142370395Y-95409210D01*
X142370395Y-95050000D01*
X141477256Y-94156861D01*
X141477256Y-92207495D01*
X141252870Y-91664440D01*
X140837746Y-91248591D01*
X140295082Y-91023257D01*
X139707495Y-91022744D01*
X139195323Y-91234369D01*
X139195323Y-90238407D01*
X139172836Y-89548547D01*
X138952099Y-89015641D01*
X138674868Y-88904737D01*
X138495263Y-89084342D01*
X138495263Y-88725132D01*
X138384359Y-88447901D01*
X137777134Y-88219259D01*
X137777134Y-84846123D01*
X137659092Y-84560440D01*
X137440710Y-84341676D01*
X137155233Y-84223135D01*
X136846123Y-84222866D01*
X136560440Y-84340908D01*
X136341676Y-84559290D01*
X136223135Y-84844767D01*
X136222866Y-85153877D01*
X136340908Y-85439560D01*
X136559290Y-85658324D01*
X136844767Y-85776865D01*
X137153877Y-85777134D01*
X137439560Y-85659092D01*
X137658324Y-85440710D01*
X137776865Y-85155233D01*
X137777134Y-84846123D01*
X137777134Y-88219259D01*
X137738407Y-88204677D01*
X137048547Y-88227164D01*
X136515641Y-88447901D01*
X136404737Y-88725132D01*
X137450000Y-89770395D01*
X138495263Y-88725132D01*
X138495263Y-89084342D01*
X137629605Y-89950000D01*
X138674868Y-90995263D01*
X138952099Y-90884359D01*
X139195323Y-90238407D01*
X139195323Y-91234369D01*
X139164440Y-91247130D01*
X138748591Y-91662254D01*
X138523257Y-92204918D01*
X138522744Y-92792505D01*
X138747130Y-93335560D01*
X139162254Y-93751409D01*
X139704918Y-93976743D01*
X140292505Y-93977256D01*
X140835560Y-93752870D01*
X141251409Y-93337746D01*
X141476743Y-92795082D01*
X141477256Y-92207495D01*
X141477256Y-94156861D01*
X141325132Y-94004737D01*
X141047901Y-94115641D01*
X140804677Y-94761593D01*
X140827164Y-95451453D01*
X141047901Y-95984359D01*
X141325132Y-96095263D01*
X142370395Y-95050000D01*
X142370395Y-95409210D01*
X141504737Y-96274868D01*
X141615641Y-96552099D01*
X142261593Y-96795323D01*
X142951453Y-96772836D01*
X143484359Y-96552099D01*
X143595263Y-96274868D01*
X143595263Y-114373000D01*
X141235220Y-114373000D01*
X141235220Y-106343070D01*
X141235220Y-105656930D01*
X141220260Y-105582723D01*
X140958630Y-105101974D01*
X140532941Y-104757941D01*
X140163951Y-104649030D01*
X140386883Y-104604687D01*
X140788843Y-104336105D01*
X141057425Y-103934145D01*
X141151738Y-103460000D01*
X141120000Y-103300441D01*
X141120000Y-101776881D01*
X141120000Y-101587119D01*
X141120000Y-100063119D01*
X141047381Y-99887801D01*
X140913199Y-99753619D01*
X140737881Y-99681000D01*
X140548119Y-99681000D01*
X139195323Y-99681000D01*
X139195323Y-95338407D01*
X139172836Y-94648547D01*
X138952099Y-94115641D01*
X138674868Y-94004737D01*
X138495263Y-94184342D01*
X138495263Y-93825132D01*
X138495263Y-91174868D01*
X137450000Y-90129605D01*
X137270395Y-90309210D01*
X137270395Y-89950000D01*
X136225132Y-88904737D01*
X135947901Y-89015641D01*
X135704677Y-89661593D01*
X135727164Y-90351453D01*
X135947901Y-90884359D01*
X136225132Y-90995263D01*
X137270395Y-89950000D01*
X137270395Y-90309210D01*
X136404737Y-91174868D01*
X136515641Y-91452099D01*
X137161593Y-91695323D01*
X137851453Y-91672836D01*
X138384359Y-91452099D01*
X138495263Y-91174868D01*
X138495263Y-93825132D01*
X138384359Y-93547901D01*
X137738407Y-93304677D01*
X137048547Y-93327164D01*
X136515641Y-93547901D01*
X136404737Y-93825132D01*
X137450000Y-94870395D01*
X138495263Y-93825132D01*
X138495263Y-94184342D01*
X137629605Y-95050000D01*
X138674868Y-96095263D01*
X138952099Y-95984359D01*
X139195323Y-95338407D01*
X139195323Y-99681000D01*
X138495263Y-99681000D01*
X138495263Y-96274868D01*
X137450000Y-95229605D01*
X137270395Y-95409210D01*
X137270395Y-95050000D01*
X136225132Y-94004737D01*
X135947901Y-94115641D01*
X135704677Y-94761593D01*
X135727164Y-95451453D01*
X135947901Y-95984359D01*
X136225132Y-96095263D01*
X137270395Y-95050000D01*
X137270395Y-95409210D01*
X136404737Y-96274868D01*
X136515641Y-96552099D01*
X137161593Y-96795323D01*
X137851453Y-96772836D01*
X138384359Y-96552099D01*
X138495263Y-96274868D01*
X138495263Y-99681000D01*
X138262119Y-99681000D01*
X138086801Y-99753619D01*
X137952619Y-99887801D01*
X137880000Y-100063119D01*
X137880000Y-100252881D01*
X137880000Y-101776881D01*
X137952619Y-101952199D01*
X138086801Y-102086381D01*
X138262119Y-102159000D01*
X138451881Y-102159000D01*
X140737881Y-102159000D01*
X140913199Y-102086381D01*
X141047381Y-101952199D01*
X141120000Y-101776881D01*
X141120000Y-103300441D01*
X141057425Y-102985855D01*
X140788843Y-102583895D01*
X140386883Y-102315313D01*
X139912738Y-102221000D01*
X139087262Y-102221000D01*
X138613117Y-102315313D01*
X138211157Y-102583895D01*
X137942575Y-102985855D01*
X137848262Y-103460000D01*
X137942575Y-103934145D01*
X138211157Y-104336105D01*
X138613117Y-104604687D01*
X138836048Y-104649030D01*
X138467059Y-104757941D01*
X138041370Y-105101974D01*
X137779740Y-105582723D01*
X137764780Y-105656930D01*
X137887280Y-105873000D01*
X139373000Y-105873000D01*
X139373000Y-105853000D01*
X139627000Y-105853000D01*
X139627000Y-105873000D01*
X141112720Y-105873000D01*
X141235220Y-105656930D01*
X141235220Y-106343070D01*
X141112720Y-106127000D01*
X139627000Y-106127000D01*
X139627000Y-106147000D01*
X139373000Y-106147000D01*
X139373000Y-106127000D01*
X137887280Y-106127000D01*
X137764780Y-106343070D01*
X137779740Y-106417277D01*
X138041370Y-106898026D01*
X138467059Y-107242059D01*
X138836048Y-107350969D01*
X138613117Y-107395313D01*
X138211157Y-107663895D01*
X137942575Y-108065855D01*
X137848262Y-108540000D01*
X137942575Y-109014145D01*
X138211157Y-109416105D01*
X138613117Y-109684687D01*
X139087262Y-109779000D01*
X139912738Y-109779000D01*
X140386883Y-109684687D01*
X140788843Y-109416105D01*
X141057425Y-109014145D01*
X141151738Y-108540000D01*
X141057425Y-108065855D01*
X140788843Y-107663895D01*
X140386883Y-107395313D01*
X140163951Y-107350969D01*
X140532941Y-107242059D01*
X140958630Y-106898026D01*
X141220260Y-106417277D01*
X141235220Y-106343070D01*
X141235220Y-114373000D01*
X141151738Y-114373000D01*
X141151738Y-111080000D01*
X141057425Y-110605855D01*
X140788843Y-110203895D01*
X140386883Y-109935313D01*
X139912738Y-109841000D01*
X139087262Y-109841000D01*
X138613117Y-109935313D01*
X138211157Y-110203895D01*
X137942575Y-110605855D01*
X137848262Y-111080000D01*
X137942575Y-111554145D01*
X138211157Y-111956105D01*
X138613117Y-112224687D01*
X139087262Y-112319000D01*
X139912738Y-112319000D01*
X140386883Y-112224687D01*
X140788843Y-111956105D01*
X141057425Y-111554145D01*
X141151738Y-111080000D01*
X141151738Y-114373000D01*
X135627000Y-114373000D01*
X135627000Y-82627000D01*
X167373000Y-82627000D01*
X167373000Y-114373000D01*
X167373000Y-114373000D01*
G37*
X167373000Y-114373000D02*
X167295323Y-114373000D01*
X167295323Y-112838407D01*
X167295323Y-107738407D01*
X167277134Y-107180401D01*
X167277134Y-95596123D01*
X167159092Y-95310440D01*
X167098843Y-95250086D01*
X167158324Y-95190710D01*
X167276865Y-94905233D01*
X167277134Y-94596123D01*
X167159092Y-94310440D01*
X166940710Y-94091676D01*
X166655233Y-93973135D01*
X166346123Y-93972866D01*
X166124808Y-94064311D01*
X165905233Y-93973135D01*
X165784817Y-93973030D01*
X165939560Y-93909092D01*
X166158324Y-93690710D01*
X166276865Y-93405233D01*
X166277134Y-93096123D01*
X166277134Y-89596123D01*
X166159092Y-89310440D01*
X166098843Y-89250086D01*
X166158324Y-89190710D01*
X166276865Y-88905233D01*
X166277134Y-88596123D01*
X166159092Y-88310440D01*
X165940710Y-88091676D01*
X165655233Y-87973135D01*
X165346123Y-87972866D01*
X165124808Y-88064311D01*
X164905233Y-87973135D01*
X164596123Y-87972866D01*
X164310440Y-88090908D01*
X164091676Y-88309290D01*
X163973135Y-88594767D01*
X163972866Y-88903877D01*
X164090908Y-89189560D01*
X164151156Y-89249913D01*
X164091676Y-89309290D01*
X163973135Y-89594767D01*
X163972866Y-89903877D01*
X164090908Y-90189560D01*
X164309290Y-90408324D01*
X164594767Y-90526865D01*
X164903877Y-90527134D01*
X165125191Y-90435688D01*
X165344767Y-90526865D01*
X165653877Y-90527134D01*
X165939560Y-90409092D01*
X166158324Y-90190710D01*
X166276865Y-89905233D01*
X166277134Y-89596123D01*
X166277134Y-93096123D01*
X166159092Y-92810440D01*
X165940710Y-92591676D01*
X165655233Y-92473135D01*
X165508000Y-92473006D01*
X165508000Y-91242000D01*
X161742000Y-91242000D01*
X161742000Y-94767930D01*
X161506949Y-95002571D01*
X161373153Y-95324789D01*
X161372849Y-95673681D01*
X161506082Y-95996131D01*
X161509734Y-95999790D01*
X161506949Y-96002571D01*
X161373153Y-96324789D01*
X161372849Y-96673681D01*
X161506082Y-96996131D01*
X161752571Y-97243051D01*
X162074789Y-97376847D01*
X162423681Y-97377151D01*
X162746131Y-97243918D01*
X162993051Y-96997429D01*
X162999851Y-96981051D01*
X163006082Y-96996131D01*
X163252571Y-97243051D01*
X163574789Y-97376847D01*
X163923681Y-97377151D01*
X164246131Y-97243918D01*
X164493051Y-96997429D01*
X164626847Y-96675211D01*
X164627151Y-96326319D01*
X164493918Y-96003869D01*
X164490265Y-96000209D01*
X164493051Y-95997429D01*
X164626847Y-95675211D01*
X164627151Y-95326319D01*
X164598922Y-95258000D01*
X165143055Y-95258000D01*
X165091676Y-95309290D01*
X164973135Y-95594767D01*
X164972866Y-95903877D01*
X165090908Y-96189560D01*
X165309290Y-96408324D01*
X165594767Y-96526865D01*
X165903877Y-96527134D01*
X166125191Y-96435688D01*
X166344767Y-96526865D01*
X166653877Y-96527134D01*
X166939560Y-96409092D01*
X167158324Y-96190710D01*
X167276865Y-95905233D01*
X167277134Y-95596123D01*
X167277134Y-107180401D01*
X167272836Y-107048547D01*
X167052099Y-106515641D01*
X166774868Y-106404737D01*
X166595263Y-106584342D01*
X166595263Y-106225132D01*
X166484359Y-105947901D01*
X165838407Y-105704677D01*
X165148547Y-105727164D01*
X164615641Y-105947901D01*
X164504737Y-106225132D01*
X165550000Y-107270395D01*
X166595263Y-106225132D01*
X166595263Y-106584342D01*
X165729605Y-107450000D01*
X166774868Y-108495263D01*
X167052099Y-108384359D01*
X167295323Y-107738407D01*
X167295323Y-112838407D01*
X167272836Y-112148547D01*
X167052099Y-111615641D01*
X166774868Y-111504737D01*
X166595263Y-111684342D01*
X166595263Y-111325132D01*
X166595263Y-108674868D01*
X165550000Y-107629605D01*
X165370395Y-107809210D01*
X165370395Y-107450000D01*
X164325132Y-106404737D01*
X164047901Y-106515641D01*
X163804677Y-107161593D01*
X163827164Y-107851453D01*
X164047901Y-108384359D01*
X164325132Y-108495263D01*
X165370395Y-107450000D01*
X165370395Y-107809210D01*
X164504737Y-108674868D01*
X164615641Y-108952099D01*
X165261593Y-109195323D01*
X165951453Y-109172836D01*
X166484359Y-108952099D01*
X166595263Y-108674868D01*
X166595263Y-111325132D01*
X166484359Y-111047901D01*
X165838407Y-110804677D01*
X165148547Y-110827164D01*
X164615641Y-111047901D01*
X164504737Y-111325132D01*
X165550000Y-112370395D01*
X166595263Y-111325132D01*
X166595263Y-111684342D01*
X165729605Y-112550000D01*
X166774868Y-113595263D01*
X167052099Y-113484359D01*
X167295323Y-112838407D01*
X167295323Y-114373000D01*
X166595263Y-114373000D01*
X166595263Y-113774868D01*
X165550000Y-112729605D01*
X165370395Y-112909210D01*
X165370395Y-112550000D01*
X164477256Y-111656861D01*
X164477256Y-109707495D01*
X164252870Y-109164440D01*
X163837746Y-108748591D01*
X163536136Y-108623351D01*
X163536136Y-100096123D01*
X163418094Y-99810440D01*
X163199712Y-99591676D01*
X162914235Y-99473135D01*
X162605125Y-99472866D01*
X162319442Y-99590908D01*
X162100678Y-99809290D01*
X161982137Y-100094767D01*
X161981868Y-100403877D01*
X162099910Y-100689560D01*
X162318292Y-100908324D01*
X162603769Y-101026865D01*
X162912879Y-101027134D01*
X163198562Y-100909092D01*
X163417326Y-100690710D01*
X163535867Y-100405233D01*
X163536136Y-100096123D01*
X163536136Y-108623351D01*
X163295082Y-108523257D01*
X162707495Y-108522744D01*
X162195323Y-108734369D01*
X162195323Y-107738407D01*
X162172836Y-107048547D01*
X161952099Y-106515641D01*
X161674868Y-106404737D01*
X161495263Y-106584342D01*
X161495263Y-106225132D01*
X161384359Y-105947901D01*
X160738407Y-105704677D01*
X160048547Y-105727164D01*
X159667000Y-105885206D01*
X159667000Y-85008000D01*
X159667000Y-84627000D01*
X159667000Y-84373000D01*
X159667000Y-83992000D01*
X159512059Y-83467059D01*
X159168026Y-83041370D01*
X158687277Y-82779740D01*
X158613070Y-82764780D01*
X158397000Y-82887280D01*
X158397000Y-84373000D01*
X159667000Y-84373000D01*
X159667000Y-84627000D01*
X158397000Y-84627000D01*
X158397000Y-86112720D01*
X158613070Y-86235220D01*
X158687277Y-86220260D01*
X159168026Y-85958630D01*
X159512059Y-85532941D01*
X159667000Y-85008000D01*
X159667000Y-105885206D01*
X159515641Y-105947901D01*
X159404737Y-106225132D01*
X160450000Y-107270395D01*
X161495263Y-106225132D01*
X161495263Y-106584342D01*
X160629605Y-107450000D01*
X161674868Y-108495263D01*
X161952099Y-108384359D01*
X162195323Y-107738407D01*
X162195323Y-108734369D01*
X162164440Y-108747130D01*
X161748591Y-109162254D01*
X161523257Y-109704918D01*
X161522744Y-110292505D01*
X161747130Y-110835560D01*
X162162254Y-111251409D01*
X162704918Y-111476743D01*
X163292505Y-111477256D01*
X163835560Y-111252870D01*
X164251409Y-110837746D01*
X164476743Y-110295082D01*
X164477256Y-109707495D01*
X164477256Y-111656861D01*
X164325132Y-111504737D01*
X164047901Y-111615641D01*
X163804677Y-112261593D01*
X163827164Y-112951453D01*
X164047901Y-113484359D01*
X164325132Y-113595263D01*
X165370395Y-112550000D01*
X165370395Y-112909210D01*
X164504737Y-113774868D01*
X164615641Y-114052099D01*
X165261593Y-114295323D01*
X165951453Y-114272836D01*
X166484359Y-114052099D01*
X166595263Y-113774868D01*
X166595263Y-114373000D01*
X162195323Y-114373000D01*
X162195323Y-112838407D01*
X162172836Y-112148547D01*
X161952099Y-111615641D01*
X161674868Y-111504737D01*
X161495263Y-111684342D01*
X161495263Y-111325132D01*
X161495263Y-108674868D01*
X160450000Y-107629605D01*
X160270395Y-107809210D01*
X160270395Y-107450000D01*
X159225132Y-106404737D01*
X158947901Y-106515641D01*
X158704677Y-107161593D01*
X158727164Y-107851453D01*
X158947901Y-108384359D01*
X159225132Y-108495263D01*
X160270395Y-107450000D01*
X160270395Y-107809210D01*
X159404737Y-108674868D01*
X159515641Y-108952099D01*
X160161593Y-109195323D01*
X160851453Y-109172836D01*
X161384359Y-108952099D01*
X161495263Y-108674868D01*
X161495263Y-111325132D01*
X161384359Y-111047901D01*
X160738407Y-110804677D01*
X160048547Y-110827164D01*
X159515641Y-111047901D01*
X159404737Y-111325132D01*
X160450000Y-112370395D01*
X161495263Y-111325132D01*
X161495263Y-111684342D01*
X160629605Y-112550000D01*
X161674868Y-113595263D01*
X161952099Y-113484359D01*
X162195323Y-112838407D01*
X162195323Y-114373000D01*
X161495263Y-114373000D01*
X161495263Y-113774868D01*
X160450000Y-112729605D01*
X160270395Y-112909210D01*
X160270395Y-112550000D01*
X159225132Y-111504737D01*
X158947901Y-111615641D01*
X158704677Y-112261593D01*
X158727164Y-112951453D01*
X158947901Y-113484359D01*
X159225132Y-113595263D01*
X160270395Y-112550000D01*
X160270395Y-112909210D01*
X159404737Y-113774868D01*
X159515641Y-114052099D01*
X160161593Y-114295323D01*
X160851453Y-114272836D01*
X161384359Y-114052099D01*
X161495263Y-113774868D01*
X161495263Y-114373000D01*
X158143000Y-114373000D01*
X158143000Y-86112720D01*
X158143000Y-84627000D01*
X158123000Y-84627000D01*
X158123000Y-84373000D01*
X158143000Y-84373000D01*
X158143000Y-82887280D01*
X157926930Y-82764780D01*
X157852723Y-82779740D01*
X157371974Y-83041370D01*
X157027941Y-83467059D01*
X156969000Y-83666751D01*
X156969000Y-83262119D01*
X156896381Y-83086801D01*
X156762199Y-82952619D01*
X156586881Y-82880000D01*
X156397119Y-82880000D01*
X154873119Y-82880000D01*
X154697801Y-82952619D01*
X154563619Y-83086801D01*
X154491000Y-83262119D01*
X154491000Y-83451881D01*
X154491000Y-85737881D01*
X154563619Y-85913199D01*
X154697801Y-86047381D01*
X154873119Y-86120000D01*
X155062881Y-86120000D01*
X156586881Y-86120000D01*
X156762199Y-86047381D01*
X156896381Y-85913199D01*
X156969000Y-85737881D01*
X156969000Y-85548119D01*
X156969000Y-85333248D01*
X157027941Y-85532941D01*
X157371974Y-85958630D01*
X157852723Y-86220260D01*
X157926930Y-86235220D01*
X158143000Y-86112720D01*
X158143000Y-114373000D01*
X156409144Y-114373000D01*
X156409144Y-105208458D01*
X156381362Y-104653392D01*
X156239000Y-104309700D01*
X156222397Y-104269617D01*
X155980215Y-104200152D01*
X156002406Y-104177961D01*
X156032199Y-104165621D01*
X156166381Y-104031439D01*
X156239000Y-103856121D01*
X156239000Y-103666359D01*
X156239000Y-102142359D01*
X156166381Y-101967041D01*
X156032199Y-101832859D01*
X156008000Y-101822835D01*
X156008000Y-91508000D01*
X156008000Y-87492000D01*
X150492000Y-87492000D01*
X150492000Y-91508000D01*
X156008000Y-91508000D01*
X156008000Y-101822835D01*
X155856881Y-101760240D01*
X155667119Y-101760240D01*
X154143119Y-101760240D01*
X153967801Y-101832859D01*
X153833619Y-101967041D01*
X153761000Y-102142359D01*
X153761000Y-102332121D01*
X153761000Y-103856121D01*
X153833619Y-104031439D01*
X153967801Y-104165621D01*
X153997593Y-104177961D01*
X154019784Y-104200152D01*
X153777603Y-104269617D01*
X153590856Y-104793062D01*
X153618638Y-105348128D01*
X153777603Y-105731903D01*
X154019787Y-105801368D01*
X154820395Y-105000760D01*
X154806252Y-104986617D01*
X154985857Y-104807012D01*
X155000000Y-104821155D01*
X155014142Y-104807012D01*
X155193747Y-104986617D01*
X155179605Y-105000760D01*
X155980213Y-105801368D01*
X156222397Y-105731903D01*
X156409144Y-105208458D01*
X156409144Y-114373000D01*
X155948085Y-114373000D01*
X156121699Y-114301087D01*
X156300327Y-114122458D01*
X156397000Y-113889069D01*
X156397000Y-113286510D01*
X156397000Y-112715010D01*
X156397000Y-112112451D01*
X156300327Y-111879062D01*
X156121699Y-111700433D01*
X156060870Y-111675236D01*
X156238784Y-111246773D01*
X156239214Y-110753869D01*
X156050985Y-110298320D01*
X155800608Y-110047505D01*
X155800608Y-105980973D01*
X155000000Y-105180365D01*
X154820395Y-105359970D01*
X154199392Y-105980973D01*
X154268857Y-106223157D01*
X154792302Y-106409904D01*
X155347368Y-106382122D01*
X155731143Y-106223157D01*
X155800608Y-105980973D01*
X155800608Y-110047505D01*
X155702753Y-109949480D01*
X155247533Y-109760456D01*
X154754629Y-109760026D01*
X154299080Y-109948255D01*
X153950240Y-110296487D01*
X153761216Y-110751707D01*
X153760786Y-111244611D01*
X153938777Y-111675382D01*
X153878301Y-111700433D01*
X153699673Y-111879062D01*
X153603000Y-112112451D01*
X153603000Y-112715010D01*
X153761750Y-112873760D01*
X154873000Y-112873760D01*
X154873000Y-112853760D01*
X155127000Y-112853760D01*
X155127000Y-112873760D01*
X156238250Y-112873760D01*
X156397000Y-112715010D01*
X156397000Y-113286510D01*
X156238250Y-113127760D01*
X155127000Y-113127760D01*
X155127000Y-113147760D01*
X154873000Y-113147760D01*
X154873000Y-113127760D01*
X153761750Y-113127760D01*
X153603000Y-113286510D01*
X153603000Y-113889069D01*
X153699673Y-114122458D01*
X153878301Y-114301087D01*
X154051914Y-114373000D01*
X153277134Y-114373000D01*
X153277134Y-96096123D01*
X153159092Y-95810440D01*
X153098843Y-95750086D01*
X153158324Y-95690710D01*
X153276865Y-95405233D01*
X153277134Y-95096123D01*
X153159092Y-94810440D01*
X152940710Y-94591676D01*
X152655233Y-94473135D01*
X152346123Y-94472866D01*
X152124808Y-94564311D01*
X151905233Y-94473135D01*
X151596123Y-94472866D01*
X151310440Y-94590908D01*
X151091676Y-94809290D01*
X150973135Y-95094767D01*
X150972866Y-95403877D01*
X151090908Y-95689560D01*
X151151156Y-95749913D01*
X151091676Y-95809290D01*
X150973135Y-96094767D01*
X150972866Y-96403877D01*
X151090908Y-96689560D01*
X151309290Y-96908324D01*
X151594767Y-97026865D01*
X151903877Y-97027134D01*
X152125191Y-96935688D01*
X152344767Y-97026865D01*
X152653877Y-97027134D01*
X152939560Y-96909092D01*
X153158324Y-96690710D01*
X153276865Y-96405233D01*
X153277134Y-96096123D01*
X153277134Y-114373000D01*
X152409144Y-114373000D01*
X152409144Y-101208458D01*
X152381362Y-100653392D01*
X152239000Y-100309700D01*
X152222397Y-100269617D01*
X151980215Y-100200152D01*
X152002406Y-100177961D01*
X152032199Y-100165621D01*
X152166381Y-100031439D01*
X152239000Y-99856121D01*
X152239000Y-99666359D01*
X152239000Y-98142359D01*
X152166381Y-97967041D01*
X152032199Y-97832859D01*
X151856881Y-97760240D01*
X151667119Y-97760240D01*
X150143119Y-97760240D01*
X149967801Y-97832859D01*
X149833619Y-97967041D01*
X149761000Y-98142359D01*
X149761000Y-98332121D01*
X149761000Y-99856121D01*
X149833619Y-100031439D01*
X149967801Y-100165621D01*
X149997593Y-100177961D01*
X150019784Y-100200152D01*
X149777603Y-100269617D01*
X149590856Y-100793062D01*
X149618638Y-101348128D01*
X149777603Y-101731903D01*
X150019787Y-101801368D01*
X150820395Y-101000760D01*
X150806252Y-100986617D01*
X150985857Y-100807012D01*
X151000000Y-100821155D01*
X151014142Y-100807012D01*
X151193747Y-100986617D01*
X151179605Y-101000760D01*
X151980213Y-101801368D01*
X152222397Y-101731903D01*
X152409144Y-101208458D01*
X152409144Y-114373000D01*
X152397000Y-114373000D01*
X152397000Y-109889069D01*
X152397000Y-109286510D01*
X152397000Y-108715010D01*
X152397000Y-108112451D01*
X152300327Y-107879062D01*
X152121699Y-107700433D01*
X152060870Y-107675236D01*
X152238784Y-107246773D01*
X152239214Y-106753869D01*
X152050985Y-106298320D01*
X151800608Y-106047505D01*
X151800608Y-101980973D01*
X151000000Y-101180365D01*
X150820395Y-101359970D01*
X150199392Y-101980973D01*
X150268857Y-102223157D01*
X150792302Y-102409904D01*
X151347368Y-102382122D01*
X151731143Y-102223157D01*
X151800608Y-101980973D01*
X151800608Y-106047505D01*
X151702753Y-105949480D01*
X151247533Y-105760456D01*
X150754629Y-105760026D01*
X150299080Y-105948255D01*
X149950240Y-106296487D01*
X149761216Y-106751707D01*
X149760786Y-107244611D01*
X149938777Y-107675382D01*
X149878301Y-107700433D01*
X149699673Y-107879062D01*
X149603000Y-108112451D01*
X149603000Y-108715010D01*
X149761750Y-108873760D01*
X150873000Y-108873760D01*
X150873000Y-108853760D01*
X151127000Y-108853760D01*
X151127000Y-108873760D01*
X152238250Y-108873760D01*
X152397000Y-108715010D01*
X152397000Y-109286510D01*
X152238250Y-109127760D01*
X151127000Y-109127760D01*
X151127000Y-110239010D01*
X151285750Y-110397760D01*
X151635691Y-110397760D01*
X151888310Y-110397760D01*
X152121699Y-110301087D01*
X152300327Y-110122458D01*
X152397000Y-109889069D01*
X152397000Y-114373000D01*
X150873000Y-114373000D01*
X150873000Y-110239010D01*
X150873000Y-109127760D01*
X149761750Y-109127760D01*
X149603000Y-109286510D01*
X149603000Y-109889069D01*
X149699673Y-110122458D01*
X149878301Y-110301087D01*
X150111690Y-110397760D01*
X150364309Y-110397760D01*
X150714250Y-110397760D01*
X150873000Y-110239010D01*
X150873000Y-114373000D01*
X148277134Y-114373000D01*
X148277134Y-83846123D01*
X148159092Y-83560440D01*
X147940710Y-83341676D01*
X147655233Y-83223135D01*
X147346123Y-83222866D01*
X147060440Y-83340908D01*
X146841676Y-83559290D01*
X146723135Y-83844767D01*
X146722866Y-84153877D01*
X146840908Y-84439560D01*
X147059290Y-84658324D01*
X147344767Y-84776865D01*
X147653877Y-84777134D01*
X147939560Y-84659092D01*
X148158324Y-84440710D01*
X148276865Y-84155233D01*
X148277134Y-83846123D01*
X148277134Y-114373000D01*
X144295323Y-114373000D01*
X144295323Y-95338407D01*
X144295323Y-90238407D01*
X144272836Y-89548547D01*
X144052099Y-89015641D01*
X143774868Y-88904737D01*
X143595263Y-89084342D01*
X143595263Y-88725132D01*
X143484359Y-88447901D01*
X142964410Y-88252121D01*
X143189560Y-88159092D01*
X143408324Y-87940710D01*
X143526865Y-87655233D01*
X143527134Y-87346123D01*
X143409092Y-87060440D01*
X143190710Y-86841676D01*
X142905233Y-86723135D01*
X142596123Y-86722866D01*
X142310440Y-86840908D01*
X142091676Y-87059290D01*
X141973135Y-87344767D01*
X141972866Y-87653877D01*
X142090908Y-87939560D01*
X142309290Y-88158324D01*
X142451307Y-88217295D01*
X142148547Y-88227164D01*
X141615641Y-88447901D01*
X141504737Y-88725132D01*
X142550000Y-89770395D01*
X143595263Y-88725132D01*
X143595263Y-89084342D01*
X142729605Y-89950000D01*
X143774868Y-90995263D01*
X144052099Y-90884359D01*
X144295323Y-90238407D01*
X144295323Y-95338407D01*
X144272836Y-94648547D01*
X144052099Y-94115641D01*
X143774868Y-94004737D01*
X143595263Y-94184342D01*
X143595263Y-93825132D01*
X143595263Y-91174868D01*
X142550000Y-90129605D01*
X142370395Y-90309210D01*
X142370395Y-89950000D01*
X141325132Y-88904737D01*
X141047901Y-89015641D01*
X140804677Y-89661593D01*
X140827164Y-90351453D01*
X141047901Y-90884359D01*
X141325132Y-90995263D01*
X142370395Y-89950000D01*
X142370395Y-90309210D01*
X141504737Y-91174868D01*
X141615641Y-91452099D01*
X142261593Y-91695323D01*
X142951453Y-91672836D01*
X143484359Y-91452099D01*
X143595263Y-91174868D01*
X143595263Y-93825132D01*
X143484359Y-93547901D01*
X142838407Y-93304677D01*
X142148547Y-93327164D01*
X141615641Y-93547901D01*
X141504737Y-93825132D01*
X142550000Y-94870395D01*
X143595263Y-93825132D01*
X143595263Y-94184342D01*
X142729605Y-95050000D01*
X143774868Y-96095263D01*
X144052099Y-95984359D01*
X144295323Y-95338407D01*
X144295323Y-114373000D01*
X143595263Y-114373000D01*
X143595263Y-96274868D01*
X142550000Y-95229605D01*
X142370395Y-95409210D01*
X142370395Y-95050000D01*
X141477256Y-94156861D01*
X141477256Y-92207495D01*
X141252870Y-91664440D01*
X140837746Y-91248591D01*
X140295082Y-91023257D01*
X139707495Y-91022744D01*
X139195323Y-91234369D01*
X139195323Y-90238407D01*
X139172836Y-89548547D01*
X138952099Y-89015641D01*
X138674868Y-88904737D01*
X138495263Y-89084342D01*
X138495263Y-88725132D01*
X138384359Y-88447901D01*
X137777134Y-88219259D01*
X137777134Y-84846123D01*
X137659092Y-84560440D01*
X137440710Y-84341676D01*
X137155233Y-84223135D01*
X136846123Y-84222866D01*
X136560440Y-84340908D01*
X136341676Y-84559290D01*
X136223135Y-84844767D01*
X136222866Y-85153877D01*
X136340908Y-85439560D01*
X136559290Y-85658324D01*
X136844767Y-85776865D01*
X137153877Y-85777134D01*
X137439560Y-85659092D01*
X137658324Y-85440710D01*
X137776865Y-85155233D01*
X137777134Y-84846123D01*
X137777134Y-88219259D01*
X137738407Y-88204677D01*
X137048547Y-88227164D01*
X136515641Y-88447901D01*
X136404737Y-88725132D01*
X137450000Y-89770395D01*
X138495263Y-88725132D01*
X138495263Y-89084342D01*
X137629605Y-89950000D01*
X138674868Y-90995263D01*
X138952099Y-90884359D01*
X139195323Y-90238407D01*
X139195323Y-91234369D01*
X139164440Y-91247130D01*
X138748591Y-91662254D01*
X138523257Y-92204918D01*
X138522744Y-92792505D01*
X138747130Y-93335560D01*
X139162254Y-93751409D01*
X139704918Y-93976743D01*
X140292505Y-93977256D01*
X140835560Y-93752870D01*
X141251409Y-93337746D01*
X141476743Y-92795082D01*
X141477256Y-92207495D01*
X141477256Y-94156861D01*
X141325132Y-94004737D01*
X141047901Y-94115641D01*
X140804677Y-94761593D01*
X140827164Y-95451453D01*
X141047901Y-95984359D01*
X141325132Y-96095263D01*
X142370395Y-95050000D01*
X142370395Y-95409210D01*
X141504737Y-96274868D01*
X141615641Y-96552099D01*
X142261593Y-96795323D01*
X142951453Y-96772836D01*
X143484359Y-96552099D01*
X143595263Y-96274868D01*
X143595263Y-114373000D01*
X141235220Y-114373000D01*
X141235220Y-106343070D01*
X141235220Y-105656930D01*
X141220260Y-105582723D01*
X140958630Y-105101974D01*
X140532941Y-104757941D01*
X140163951Y-104649030D01*
X140386883Y-104604687D01*
X140788843Y-104336105D01*
X141057425Y-103934145D01*
X141151738Y-103460000D01*
X141120000Y-103300441D01*
X141120000Y-101776881D01*
X141120000Y-101587119D01*
X141120000Y-100063119D01*
X141047381Y-99887801D01*
X140913199Y-99753619D01*
X140737881Y-99681000D01*
X140548119Y-99681000D01*
X139195323Y-99681000D01*
X139195323Y-95338407D01*
X139172836Y-94648547D01*
X138952099Y-94115641D01*
X138674868Y-94004737D01*
X138495263Y-94184342D01*
X138495263Y-93825132D01*
X138495263Y-91174868D01*
X137450000Y-90129605D01*
X137270395Y-90309210D01*
X137270395Y-89950000D01*
X136225132Y-88904737D01*
X135947901Y-89015641D01*
X135704677Y-89661593D01*
X135727164Y-90351453D01*
X135947901Y-90884359D01*
X136225132Y-90995263D01*
X137270395Y-89950000D01*
X137270395Y-90309210D01*
X136404737Y-91174868D01*
X136515641Y-91452099D01*
X137161593Y-91695323D01*
X137851453Y-91672836D01*
X138384359Y-91452099D01*
X138495263Y-91174868D01*
X138495263Y-93825132D01*
X138384359Y-93547901D01*
X137738407Y-93304677D01*
X137048547Y-93327164D01*
X136515641Y-93547901D01*
X136404737Y-93825132D01*
X137450000Y-94870395D01*
X138495263Y-93825132D01*
X138495263Y-94184342D01*
X137629605Y-95050000D01*
X138674868Y-96095263D01*
X138952099Y-95984359D01*
X139195323Y-95338407D01*
X139195323Y-99681000D01*
X138495263Y-99681000D01*
X138495263Y-96274868D01*
X137450000Y-95229605D01*
X137270395Y-95409210D01*
X137270395Y-95050000D01*
X136225132Y-94004737D01*
X135947901Y-94115641D01*
X135704677Y-94761593D01*
X135727164Y-95451453D01*
X135947901Y-95984359D01*
X136225132Y-96095263D01*
X137270395Y-95050000D01*
X137270395Y-95409210D01*
X136404737Y-96274868D01*
X136515641Y-96552099D01*
X137161593Y-96795323D01*
X137851453Y-96772836D01*
X138384359Y-96552099D01*
X138495263Y-96274868D01*
X138495263Y-99681000D01*
X138262119Y-99681000D01*
X138086801Y-99753619D01*
X137952619Y-99887801D01*
X137880000Y-100063119D01*
X137880000Y-100252881D01*
X137880000Y-101776881D01*
X137952619Y-101952199D01*
X138086801Y-102086381D01*
X138262119Y-102159000D01*
X138451881Y-102159000D01*
X140737881Y-102159000D01*
X140913199Y-102086381D01*
X141047381Y-101952199D01*
X141120000Y-101776881D01*
X141120000Y-103300441D01*
X141057425Y-102985855D01*
X140788843Y-102583895D01*
X140386883Y-102315313D01*
X139912738Y-102221000D01*
X139087262Y-102221000D01*
X138613117Y-102315313D01*
X138211157Y-102583895D01*
X137942575Y-102985855D01*
X137848262Y-103460000D01*
X137942575Y-103934145D01*
X138211157Y-104336105D01*
X138613117Y-104604687D01*
X138836048Y-104649030D01*
X138467059Y-104757941D01*
X138041370Y-105101974D01*
X137779740Y-105582723D01*
X137764780Y-105656930D01*
X137887280Y-105873000D01*
X139373000Y-105873000D01*
X139373000Y-105853000D01*
X139627000Y-105853000D01*
X139627000Y-105873000D01*
X141112720Y-105873000D01*
X141235220Y-105656930D01*
X141235220Y-106343070D01*
X141112720Y-106127000D01*
X139627000Y-106127000D01*
X139627000Y-106147000D01*
X139373000Y-106147000D01*
X139373000Y-106127000D01*
X137887280Y-106127000D01*
X137764780Y-106343070D01*
X137779740Y-106417277D01*
X138041370Y-106898026D01*
X138467059Y-107242059D01*
X138836048Y-107350969D01*
X138613117Y-107395313D01*
X138211157Y-107663895D01*
X137942575Y-108065855D01*
X137848262Y-108540000D01*
X137942575Y-109014145D01*
X138211157Y-109416105D01*
X138613117Y-109684687D01*
X139087262Y-109779000D01*
X139912738Y-109779000D01*
X140386883Y-109684687D01*
X140788843Y-109416105D01*
X141057425Y-109014145D01*
X141151738Y-108540000D01*
X141057425Y-108065855D01*
X140788843Y-107663895D01*
X140386883Y-107395313D01*
X140163951Y-107350969D01*
X140532941Y-107242059D01*
X140958630Y-106898026D01*
X141220260Y-106417277D01*
X141235220Y-106343070D01*
X141235220Y-114373000D01*
X141151738Y-114373000D01*
X141151738Y-111080000D01*
X141057425Y-110605855D01*
X140788843Y-110203895D01*
X140386883Y-109935313D01*
X139912738Y-109841000D01*
X139087262Y-109841000D01*
X138613117Y-109935313D01*
X138211157Y-110203895D01*
X137942575Y-110605855D01*
X137848262Y-111080000D01*
X137942575Y-111554145D01*
X138211157Y-111956105D01*
X138613117Y-112224687D01*
X139087262Y-112319000D01*
X139912738Y-112319000D01*
X140386883Y-112224687D01*
X140788843Y-111956105D01*
X141057425Y-111554145D01*
X141151738Y-111080000D01*
X141151738Y-114373000D01*
X135627000Y-114373000D01*
X135627000Y-82627000D01*
X167373000Y-82627000D01*
X167373000Y-114373000D01*
M02*
