M48
;DRILL file {kicad (2014-11-13 BZR 5275)-product} date Sun 16 Nov 2014 06:17:15 PM EST
;FORMAT={-:-/ absolute / inch / decimal}
FMAT,2
INCH,TZ
T1C0.012
T2C0.020
T3C0.035
T4C0.040
T5C0.055
T6C0.059
%
G90
G05
M72
T1
X5.3937Y-3.3465
X5.3937Y-3.3465
X5.6201Y-3.4449
X5.689Y-3.3563
X5.748Y-3.6024
X5.748Y-3.6909
X5.8071Y-3.3071
X5.8071Y-3.3071
X5.8071Y-3.3563
X5.8071Y-3.4744
X5.8465Y-3.5138
X5.876Y-3.5433
X5.9252Y-3.4744
X5.9252Y-3.5138
X5.9252Y-3.5728
X5.9252Y-3.6909
X5.9547Y-3.6909
X5.9744Y-3.75
X5.9744Y-3.7894
X5.9843Y-3.6909
X6.0039Y-3.75
X6.0039Y-3.7894
X6.0138Y-3.6909
X6.1516Y-3.7992
X6.1811Y-3.7008
X6.1811Y-3.7303
X6.1811Y-3.7598
X6.1811Y-3.7992
X6.2697Y-3.8583
X6.2992Y-3.8583
X6.3287Y-3.3957
X6.3287Y-3.4252
X6.3287Y-3.8583
X6.3583Y-3.3957
X6.3583Y-3.4252
X6.3878Y-3.3957
X6.3878Y-3.4252
X6.4078Y-3.9469
X6.4078Y-3.9469
X6.4078Y-3.9469
X6.4272Y-3.4547
X6.4567Y-3.5728
X6.4862Y-3.4941
X6.4862Y-3.5335
X6.5157Y-3.4941
X6.5157Y-3.5335
X6.5157Y-3.6713
X6.5157Y-3.6713
X6.5256Y-3.7303
X6.5256Y-3.7697
X6.5453Y-3.937
X6.5453Y-3.9665
X6.5551Y-3.7303
X6.5551Y-3.7697
X6.5748Y-3.937
X6.5748Y-3.9665
T2
X6.1516Y-3.5531
X6.1516Y-3.6122
X6.1811Y-3.5827
X6.2106Y-3.5531
X6.2106Y-3.6122
X6.3878Y-3.7598
X6.3878Y-3.7992
X6.4173Y-3.7795
X6.4469Y-3.7598
X6.4469Y-3.7992
T3
X5.9449Y-3.8976
X5.9449Y-3.9764
X5.9449Y-4.2126
X5.9449Y-4.2914
X6.1024Y-4.0551
X6.1024Y-4.1339
X6.1024Y-4.37
X6.1024Y-4.4488
T4
X5.4921Y-3.9732
X5.4921Y-4.0732
X5.4921Y-4.1732
X5.4921Y-4.2732
X5.4921Y-4.3732
X6.1311Y-3.3268
X6.2311Y-3.3268
T5
X5.5118Y-3.6417
X6.4173Y-4.3307
T6
X5.4114Y-3.5413
X5.4114Y-3.7421
X5.6122Y-3.5413
X5.6122Y-3.7421
X6.3169Y-4.2303
X6.3169Y-4.4311
X6.5177Y-4.2303
X6.5177Y-4.4311
T0
M30
