G04 #@! TF.FileFunction,Copper,L1,Top,Signal*
%FSLAX46Y46*%
G04 Gerber Fmt 4.6, Leading zero omitted, Abs format (unit mm)*
G04 Created by KiCad (PCBNEW (2014-11-13 BZR 5275)-product) date Sun 16 Nov 2014 09:12:01 PM EST*
%MOMM*%
G01*
G04 APERTURE LIST*
%ADD10C,0.100000*%
%ADD11R,1.550000X0.600000*%
%ADD12O,1.550000X0.600000*%
%ADD13R,2.290000X2.290000*%
%ADD14R,0.900000X1.300000*%
%ADD15R,0.800000X1.300000*%
%ADD16R,1.524000X2.286000*%
%ADD17O,1.524000X2.286000*%
%ADD18R,0.650000X0.600000*%
%ADD19R,0.600000X0.650000*%
%ADD20R,1.450000X1.150000*%
%ADD21R,1.150000X1.450000*%
%ADD22R,1.524000X1.524000*%
%ADD23C,1.524000*%
%ADD24C,2.000000*%
%ADD25C,2.200000*%
%ADD26R,2.286000X1.524000*%
%ADD27O,2.286000X1.524000*%
%ADD28R,0.700000X0.650000*%
%ADD29R,0.650000X0.700000*%
%ADD30R,1.300000X0.900000*%
%ADD31R,1.300000X0.800000*%
%ADD32R,0.600000X0.600000*%
%ADD33R,1.000000X0.850000*%
%ADD34R,0.600000X1.100000*%
%ADD35R,0.450000X1.450000*%
%ADD36O,0.450000X1.450000*%
%ADD37R,1.890000X1.570000*%
%ADD38C,0.600000*%
%ADD39C,0.800000*%
%ADD40C,0.200000*%
%ADD41C,0.600000*%
%ADD42C,0.400000*%
%ADD43C,0.350000*%
%ADD44C,0.254000*%
%ADD45C,0.900000*%
%ADD46C,0.800000*%
G04 APERTURE END LIST*
D10*
D11*
X154300000Y-89095000D03*
D12*
X154300000Y-90365000D03*
X154300000Y-91635000D03*
X154300000Y-92905000D03*
X159700000Y-92905000D03*
X159700000Y-91635000D03*
X159700000Y-90365000D03*
X159700000Y-89095000D03*
D13*
X157000000Y-91000000D03*
D14*
X141050000Y-86100000D03*
X142950000Y-86100000D03*
D15*
X142000000Y-83900000D03*
D16*
X155730000Y-84500000D03*
D17*
X158270000Y-84500000D03*
D18*
X146550000Y-89000000D03*
X147450000Y-89000000D03*
X145450000Y-89000000D03*
X144550000Y-89000000D03*
X149550000Y-93000000D03*
X150450000Y-93000000D03*
D19*
X148500000Y-90950000D03*
X148500000Y-90050000D03*
X151500000Y-92050000D03*
X151500000Y-92950000D03*
D20*
X161500000Y-89900000D03*
X161500000Y-88100000D03*
D21*
X154100000Y-94750000D03*
X155900000Y-94750000D03*
X165100000Y-98750000D03*
X166900000Y-98750000D03*
D20*
X160000000Y-95100000D03*
X160000000Y-96900000D03*
D19*
X163250000Y-89450000D03*
X163250000Y-88550000D03*
D18*
X154550000Y-96500000D03*
X155450000Y-96500000D03*
X165550000Y-97000000D03*
X166450000Y-97000000D03*
D19*
X158250000Y-95550000D03*
X158250000Y-96450000D03*
D22*
X155000000Y-102999240D03*
D23*
X155000000Y-105000760D03*
D22*
X151000000Y-109000760D03*
D23*
X151000000Y-106999240D03*
D22*
X151000000Y-98999240D03*
D23*
X151000000Y-101000760D03*
D22*
X155000000Y-113000760D03*
D23*
X155000000Y-110999240D03*
D24*
X140000000Y-92500000D03*
D25*
X137450000Y-89950000D03*
X142550000Y-89950000D03*
X137450000Y-95050000D03*
X142550000Y-95050000D03*
D24*
X163000000Y-110000000D03*
D25*
X160450000Y-107450000D03*
X165550000Y-107450000D03*
X160450000Y-112550000D03*
X165550000Y-112550000D03*
D26*
X139500000Y-100920000D03*
D27*
X139500000Y-103460000D03*
X139500000Y-106000000D03*
X139500000Y-108540000D03*
X139500000Y-111080000D03*
D28*
X148500000Y-92050000D03*
X148500000Y-92950000D03*
D29*
X150450000Y-92000000D03*
X149550000Y-92000000D03*
D14*
X149050000Y-86100000D03*
X150950000Y-86100000D03*
D15*
X150000000Y-83900000D03*
D14*
X137050000Y-86100000D03*
X138950000Y-86100000D03*
D15*
X138000000Y-83900000D03*
D30*
X146600000Y-100950000D03*
X146600000Y-99050000D03*
D31*
X144400000Y-100000000D03*
D30*
X146600000Y-104950000D03*
X146600000Y-103050000D03*
D31*
X144400000Y-104000000D03*
D32*
X153450000Y-86500000D03*
X152550000Y-86500000D03*
X137550000Y-87500000D03*
X138450000Y-87500000D03*
X147450000Y-86000000D03*
X146550000Y-86000000D03*
X146500000Y-87950000D03*
X146500000Y-87050000D03*
X145500000Y-87950000D03*
X145500000Y-87050000D03*
X144550000Y-86000000D03*
X145450000Y-86000000D03*
X151450000Y-90000000D03*
X150550000Y-90000000D03*
X152500000Y-92050000D03*
X152500000Y-92950000D03*
X152500000Y-89050000D03*
X152500000Y-89950000D03*
X165450000Y-92500000D03*
X164550000Y-92500000D03*
X163500000Y-92200000D03*
X163500000Y-91300000D03*
D33*
X162000000Y-101750000D03*
X162000000Y-100250000D03*
X163500000Y-101750000D03*
X163500000Y-100250000D03*
X160500000Y-103250000D03*
X160500000Y-101750000D03*
X165000000Y-103250000D03*
X165000000Y-101750000D03*
X163500000Y-104750000D03*
X163500000Y-103250000D03*
X162000000Y-104750000D03*
X162000000Y-103250000D03*
D34*
X145050000Y-92600000D03*
X146950000Y-92600000D03*
X146000000Y-92600000D03*
X146950000Y-90400000D03*
X145050000Y-90400000D03*
D35*
X163975000Y-93850000D03*
D36*
X163325000Y-93850000D03*
X162675000Y-93850000D03*
X162025000Y-93850000D03*
X162025000Y-98150000D03*
X162675000Y-98150000D03*
X163325000Y-98150000D03*
X163975000Y-98150000D03*
D37*
X163000000Y-96000000D03*
D30*
X146600000Y-108950000D03*
X146600000Y-107050000D03*
D31*
X144400000Y-108000000D03*
D30*
X146600000Y-112950000D03*
X146600000Y-111050000D03*
D31*
X144400000Y-112000000D03*
D38*
X161500000Y-87000000D03*
X161500000Y-86250000D03*
X160750000Y-87000000D03*
X162250000Y-87000000D03*
X160750000Y-86250000D03*
X162250000Y-86250000D03*
X163250000Y-87750000D03*
X157000000Y-94750000D03*
X157000000Y-95500000D03*
X156250000Y-96500000D03*
X157000000Y-96500000D03*
X160000000Y-98000000D03*
X157000000Y-94000000D03*
X160750000Y-98000000D03*
X159250000Y-98000000D03*
X150500000Y-93750000D03*
X151250000Y-93750000D03*
X152000000Y-93750000D03*
X152750000Y-93750000D03*
X148500000Y-89250000D03*
X149250000Y-90000000D03*
X150500000Y-90750000D03*
X150500000Y-89250000D03*
X147500000Y-88250000D03*
X150500000Y-88250000D03*
X144500000Y-85250000D03*
X147500000Y-85250000D03*
X167000000Y-100000000D03*
X167000000Y-100750000D03*
X166250000Y-100750000D03*
X166250000Y-100000000D03*
X146000000Y-93750000D03*
X146000000Y-91500000D03*
D39*
X156250000Y-90250000D03*
X157000000Y-91000000D03*
X157750000Y-90250000D03*
X156250000Y-91750000D03*
X157750000Y-91750000D03*
D38*
X164000000Y-90750000D03*
X164750000Y-88750000D03*
X165500000Y-88750000D03*
X164750000Y-89750000D03*
X165500000Y-89750000D03*
X152500000Y-96250000D03*
X151750000Y-96250000D03*
X151750000Y-95250000D03*
X152500000Y-95250000D03*
X142750000Y-87500000D03*
X165750000Y-95750000D03*
X166500000Y-95750000D03*
X165750000Y-94750000D03*
X166500000Y-94750000D03*
D39*
X163000000Y-96000000D03*
X162250000Y-95500000D03*
X163750000Y-95500000D03*
X163750000Y-96500000D03*
X162250000Y-96500000D03*
D38*
X137000000Y-85000000D03*
X137000000Y-85000000D03*
X147500000Y-84000000D03*
X147500000Y-84000000D03*
X162759002Y-100250000D03*
X162759002Y-100250000D03*
X162759002Y-100250000D03*
X165500000Y-93250000D03*
X165500000Y-93250000D03*
D40*
X146950000Y-90100000D02*
X146950000Y-90400000D01*
D41*
X146950000Y-90400000D02*
X146550000Y-90000000D01*
X146550000Y-89000000D02*
X146550000Y-88550000D01*
X146500000Y-88500000D02*
X146500000Y-87950000D01*
X146550000Y-88550000D02*
X146500000Y-88500000D01*
X146550000Y-90000000D02*
X146550000Y-89000000D01*
D42*
X150949240Y-100950000D02*
X151000000Y-101000760D01*
X146600000Y-100950000D02*
X150949240Y-100950000D01*
X154949240Y-104950000D02*
X155000000Y-105000760D01*
X146600000Y-104950000D02*
X154949240Y-104950000D01*
X150949240Y-108950000D02*
X151000000Y-109000760D01*
X146600000Y-108950000D02*
X150949240Y-108950000D01*
X154949240Y-112950000D02*
X155000000Y-113000760D01*
X146600000Y-112950000D02*
X154949240Y-112950000D01*
X163250000Y-88550000D02*
X162800000Y-88550000D01*
X162350000Y-88100000D02*
X161500000Y-88100000D01*
X162800000Y-88550000D02*
X162350000Y-88100000D01*
X161500000Y-88100000D02*
X161500000Y-87000000D01*
X161500000Y-87000000D02*
X161500000Y-86250000D01*
X161500000Y-87000000D02*
X160750000Y-87000000D01*
X161500000Y-87000000D02*
X162250000Y-87000000D01*
X160750000Y-87000000D02*
X160750000Y-86250000D01*
X162250000Y-87000000D02*
X162250000Y-86250000D01*
X163250000Y-88550000D02*
X163250000Y-87750000D01*
X155900000Y-94750000D02*
X155900000Y-95600000D01*
X155450000Y-96050000D02*
X155450000Y-96500000D01*
X155900000Y-95600000D02*
X155450000Y-96050000D01*
X158250000Y-96450000D02*
X158700000Y-96450000D01*
X159150000Y-96900000D02*
X160000000Y-96900000D01*
X158700000Y-96450000D02*
X159150000Y-96900000D01*
X155900000Y-94750000D02*
X157000000Y-94750000D01*
X157000000Y-94750000D02*
X157000000Y-95500000D01*
X155450000Y-96500000D02*
X156250000Y-96500000D01*
X156250000Y-96500000D02*
X157000000Y-96500000D01*
X160000000Y-96900000D02*
X160000000Y-98000000D01*
X157000000Y-94750000D02*
X157000000Y-94000000D01*
X160000000Y-98000000D02*
X160750000Y-98000000D01*
X160000000Y-98000000D02*
X159250000Y-98000000D01*
D41*
X152500000Y-92950000D02*
X151500000Y-92950000D01*
X152500000Y-92950000D02*
X151050000Y-92950000D01*
X151000000Y-93000000D02*
X150450000Y-93000000D01*
X151050000Y-92950000D02*
X151000000Y-93000000D01*
X150450000Y-93700000D02*
X150500000Y-93750000D01*
X150450000Y-93000000D02*
X150450000Y-93700000D01*
X150500000Y-93750000D02*
X151250000Y-93750000D01*
X151250000Y-93750000D02*
X152000000Y-93750000D01*
X152000000Y-93750000D02*
X152750000Y-93750000D01*
X148500000Y-90050000D02*
X148500000Y-89250000D01*
X149200000Y-90050000D02*
X149250000Y-90000000D01*
X148500000Y-90050000D02*
X149200000Y-90050000D01*
X150550000Y-90700000D02*
X150500000Y-90750000D01*
X150550000Y-90000000D02*
X150550000Y-90700000D01*
X150550000Y-89300000D02*
X150500000Y-89250000D01*
X150550000Y-90000000D02*
X150550000Y-89300000D01*
X147450000Y-88300000D02*
X147500000Y-88250000D01*
X147450000Y-89000000D02*
X147450000Y-88300000D01*
X150500000Y-89250000D02*
X150500000Y-88250000D01*
X147450000Y-88200000D02*
X147500000Y-88250000D01*
X147450000Y-86000000D02*
X147450000Y-88200000D01*
X143500000Y-89000000D02*
X142550000Y-89950000D01*
X144550000Y-89000000D02*
X143500000Y-89000000D01*
X144550000Y-85300000D02*
X144500000Y-85250000D01*
X144550000Y-86000000D02*
X144550000Y-85300000D01*
X147450000Y-85300000D02*
X147500000Y-85250000D01*
X147450000Y-86000000D02*
X147450000Y-85300000D01*
X149050000Y-86100000D02*
X148350000Y-86100000D01*
X148250000Y-86000000D02*
X147450000Y-86000000D01*
X148350000Y-86100000D02*
X148250000Y-86000000D01*
X166450000Y-97000000D02*
X166450000Y-97450000D01*
X166900000Y-97900000D02*
X166900000Y-98750000D01*
X166450000Y-97450000D02*
X166900000Y-97900000D01*
X166900000Y-99900000D02*
X167000000Y-100000000D01*
X166900000Y-98750000D02*
X166900000Y-99900000D01*
X167000000Y-100000000D02*
X167000000Y-100750000D01*
X167000000Y-100750000D02*
X166250000Y-100750000D01*
X166250000Y-100750000D02*
X166250000Y-100000000D01*
X146000000Y-92600000D02*
X146000000Y-93750000D01*
X146000000Y-92600000D02*
X146000000Y-91500000D01*
X157000000Y-91000000D02*
X156250000Y-90250000D01*
X157000000Y-91000000D02*
X157750000Y-90250000D01*
X157000000Y-91000000D02*
X156250000Y-91750000D01*
X157000000Y-91000000D02*
X157750000Y-91750000D01*
X163500000Y-91250000D02*
X164000000Y-90750000D01*
X163500000Y-91300000D02*
X163500000Y-91250000D01*
D40*
X145050000Y-90200000D02*
X145050000Y-90400000D01*
D41*
X145450000Y-90000000D02*
X145450000Y-89000000D01*
X145050000Y-90400000D02*
X145450000Y-90000000D01*
X145450000Y-89000000D02*
X145450000Y-88550000D01*
X145500000Y-88500000D02*
X145500000Y-87950000D01*
X145450000Y-88550000D02*
X145500000Y-88500000D01*
D43*
X146950000Y-92600000D02*
X147600000Y-92600000D01*
X147950000Y-92950000D02*
X148500000Y-92950000D01*
X147600000Y-92600000D02*
X147950000Y-92950000D01*
X149500000Y-92950000D02*
X149550000Y-93000000D01*
X148500000Y-92950000D02*
X149500000Y-92950000D01*
X148550000Y-92000000D02*
X148500000Y-92050000D01*
X149550000Y-92000000D02*
X148550000Y-92000000D01*
X148500000Y-92050000D02*
X148500000Y-90950000D01*
D44*
X152500000Y-92050000D02*
X152950000Y-92050000D01*
X153365000Y-91635000D02*
X154300000Y-91635000D01*
X152950000Y-92050000D02*
X153365000Y-91635000D01*
D43*
X151500000Y-92050000D02*
X151050000Y-92050000D01*
X151000000Y-92000000D02*
X150450000Y-92000000D01*
X151050000Y-92050000D02*
X151000000Y-92000000D01*
X152500000Y-92050000D02*
X152050000Y-92050000D01*
X152050000Y-92050000D02*
X151500000Y-92050000D01*
D45*
X154949240Y-103050000D02*
X155000000Y-102999240D01*
X146600000Y-103050000D02*
X154949240Y-103050000D01*
D41*
X159700000Y-89095000D02*
X159700000Y-89700000D01*
X159700000Y-89700000D02*
X159700000Y-90365000D01*
X161500000Y-89900000D02*
X160850000Y-89900000D01*
X160385000Y-90365000D02*
X159700000Y-90365000D01*
X160850000Y-89900000D02*
X160385000Y-90365000D01*
X161500000Y-89900000D02*
X162350000Y-89900000D01*
X162800000Y-89450000D02*
X163250000Y-89450000D01*
X162350000Y-89900000D02*
X162800000Y-89450000D01*
X163250000Y-89450000D02*
X164550000Y-89450000D01*
X164750000Y-89250000D02*
X164750000Y-88750000D01*
X164550000Y-89450000D02*
X164750000Y-89250000D01*
X164750000Y-88750000D02*
X165500000Y-88750000D01*
X164750000Y-88750000D02*
X164750000Y-89750000D01*
X164750000Y-89750000D02*
X165500000Y-89750000D01*
X138450000Y-87500000D02*
X142750000Y-87500000D01*
X142950000Y-87300000D02*
X142950000Y-86100000D01*
X142750000Y-87500000D02*
X142950000Y-87300000D01*
X139000000Y-86150000D02*
X138950000Y-86100000D01*
D45*
X150949240Y-107050000D02*
X151000000Y-106999240D01*
X146600000Y-107050000D02*
X150949240Y-107050000D01*
D41*
X154300000Y-92905000D02*
X154300000Y-93450000D01*
X154100000Y-93650000D02*
X154100000Y-94750000D01*
X154300000Y-93450000D02*
X154100000Y-93650000D01*
X154100000Y-94750000D02*
X154100000Y-95600000D01*
X154550000Y-96050000D02*
X154550000Y-96500000D01*
X154100000Y-95600000D02*
X154550000Y-96050000D01*
X152500000Y-96250000D02*
X151750000Y-96250000D01*
X151750000Y-95250000D02*
X152500000Y-95250000D01*
X151750000Y-96250000D02*
X151750000Y-95250000D01*
X152500000Y-96250000D02*
X153500000Y-96250000D01*
X153750000Y-96500000D02*
X154550000Y-96500000D01*
X153500000Y-96250000D02*
X153750000Y-96500000D01*
X138950000Y-87000000D02*
X138450000Y-87500000D01*
X138950000Y-86100000D02*
X138950000Y-87000000D01*
D45*
X150949240Y-99050000D02*
X151000000Y-98999240D01*
X146600000Y-99050000D02*
X150949240Y-99050000D01*
D42*
X163325000Y-98150000D02*
X163325000Y-98925000D01*
X163325000Y-98925000D02*
X163800000Y-99400000D01*
X163800000Y-99400000D02*
X164200000Y-99400000D01*
X164850000Y-98750000D02*
X165100000Y-98750000D01*
X164200000Y-99400000D02*
X164850000Y-98750000D01*
X165550000Y-97000000D02*
X165550000Y-97450000D01*
X165100000Y-97900000D02*
X165100000Y-98750000D01*
X165550000Y-97450000D02*
X165100000Y-97900000D01*
X165550000Y-95950000D02*
X165750000Y-95750000D01*
X165550000Y-97000000D02*
X165550000Y-95950000D01*
X165750000Y-95750000D02*
X166500000Y-95750000D01*
X165750000Y-95750000D02*
X165750000Y-94750000D01*
X165750000Y-94750000D02*
X166500000Y-94750000D01*
D45*
X154949240Y-111050000D02*
X155000000Y-110999240D01*
X146600000Y-111050000D02*
X154949240Y-111050000D01*
D42*
X162250000Y-95500000D02*
X161500000Y-95500000D01*
X161100000Y-95100000D02*
X160000000Y-95100000D01*
X161500000Y-95500000D02*
X161100000Y-95100000D01*
X160000000Y-95100000D02*
X159150000Y-95100000D01*
X158700000Y-95550000D02*
X158250000Y-95550000D01*
X159150000Y-95100000D02*
X158700000Y-95550000D01*
X162025000Y-95275000D02*
X162250000Y-95500000D01*
X162025000Y-93850000D02*
X162025000Y-95275000D01*
X162250000Y-95500000D02*
X162500000Y-95500000D01*
D46*
X162250000Y-95500000D02*
X163000000Y-96000000D01*
X163250000Y-96000000D02*
X163750000Y-95500000D01*
X163000000Y-96000000D02*
X163250000Y-96000000D01*
X163750000Y-96500000D02*
X163000000Y-96000000D01*
X162250000Y-96500000D02*
X163000000Y-96000000D01*
D43*
X145050000Y-92600000D02*
X143350000Y-92600000D01*
X143250000Y-92500000D02*
X140000000Y-92500000D01*
X143350000Y-92600000D02*
X143250000Y-92500000D01*
D41*
X153450000Y-86500000D02*
X155250000Y-86500000D01*
X155730000Y-86020000D02*
X155730000Y-84500000D01*
X155250000Y-86500000D02*
X155730000Y-86020000D01*
D43*
X163000000Y-106750000D02*
X163000000Y-110000000D01*
X162750000Y-106500000D02*
X163000000Y-106750000D01*
X162750000Y-106500000D02*
X162750000Y-104750000D01*
X162750000Y-104750000D02*
X163500000Y-104750000D01*
X162750000Y-104750000D02*
X162000000Y-104750000D01*
D46*
X144400000Y-104000000D02*
X143000000Y-104000000D01*
X142460000Y-103460000D02*
X139500000Y-103460000D01*
X143000000Y-104000000D02*
X142460000Y-103460000D01*
X144400000Y-108000000D02*
X143000000Y-108000000D01*
X142460000Y-108540000D02*
X139500000Y-108540000D01*
X143000000Y-108000000D02*
X142460000Y-108540000D01*
D41*
X152550000Y-86500000D02*
X152000000Y-86500000D01*
X151600000Y-86100000D02*
X150950000Y-86100000D01*
X152000000Y-86500000D02*
X151600000Y-86100000D01*
X137050000Y-85050000D02*
X137050000Y-86100000D01*
X137000000Y-85000000D02*
X137050000Y-85050000D01*
X137550000Y-87500000D02*
X137250000Y-87500000D01*
X137050000Y-87300000D02*
X137050000Y-86100000D01*
X137250000Y-87500000D02*
X137050000Y-87300000D01*
X149900000Y-84000000D02*
X150000000Y-83900000D01*
X147500000Y-84000000D02*
X149900000Y-84000000D01*
X146550000Y-86000000D02*
X146550000Y-83800000D01*
X146550000Y-83800000D02*
X145250000Y-82500000D01*
X145250000Y-82500000D02*
X138500000Y-82500000D01*
X138000000Y-83000000D02*
X138000000Y-83900000D01*
X138500000Y-82500000D02*
X138000000Y-83000000D01*
X141050000Y-86100000D02*
X141050000Y-85050000D01*
X139900000Y-83900000D02*
X138000000Y-83900000D01*
X141050000Y-85050000D02*
X139900000Y-83900000D01*
X146500000Y-87050000D02*
X146500000Y-86500000D01*
X146550000Y-86450000D02*
X146550000Y-86000000D01*
X146500000Y-86500000D02*
X146550000Y-86450000D01*
X145450000Y-86000000D02*
X145450000Y-84450000D01*
X144900000Y-83900000D02*
X142000000Y-83900000D01*
X145450000Y-84450000D02*
X144900000Y-83900000D01*
X145500000Y-87050000D02*
X145500000Y-86500000D01*
X145450000Y-86450000D02*
X145450000Y-86000000D01*
X145500000Y-86500000D02*
X145450000Y-86450000D01*
X152500000Y-89950000D02*
X152050000Y-89950000D01*
X152000000Y-90000000D02*
X151450000Y-90000000D01*
X152050000Y-89950000D02*
X152000000Y-90000000D01*
X154300000Y-90365000D02*
X153365000Y-90365000D01*
X152950000Y-89950000D02*
X152500000Y-89950000D01*
X153365000Y-90365000D02*
X152950000Y-89950000D01*
X154300000Y-89095000D02*
X153345000Y-89095000D01*
X153300000Y-89050000D02*
X152500000Y-89050000D01*
X153345000Y-89095000D02*
X153300000Y-89050000D01*
D43*
X162541633Y-100250000D02*
X162759002Y-100250000D01*
X162000000Y-100250000D02*
X162541633Y-100250000D01*
X162541633Y-100250000D02*
X163500000Y-100250000D01*
D40*
X165450000Y-93200000D02*
X165450000Y-92500000D01*
X165500000Y-93250000D02*
X165450000Y-93200000D01*
D42*
X162759002Y-100250000D02*
X162759002Y-99259002D01*
X162675000Y-99175000D02*
X162675000Y-98150000D01*
X162759002Y-99259002D02*
X162675000Y-99175000D01*
D41*
X164550000Y-92500000D02*
X163500000Y-92500000D01*
X163500000Y-92500000D02*
X163500000Y-92200000D01*
D42*
X163500000Y-92500000D02*
X163500000Y-92750000D01*
X163325000Y-92925000D02*
X163325000Y-93850000D01*
X163500000Y-92750000D02*
X163325000Y-92925000D01*
D43*
X160500000Y-101750000D02*
X162000000Y-101750000D01*
X162000000Y-101750000D02*
X163500000Y-101750000D01*
X165000000Y-101750000D02*
X163500000Y-101750000D01*
X162000000Y-103250000D02*
X163500000Y-103250000D01*
X162000000Y-103250000D02*
X160500000Y-103250000D01*
X163500000Y-103250000D02*
X165000000Y-103250000D01*
D42*
X162675000Y-93850000D02*
X162675000Y-92925000D01*
X161385000Y-91635000D02*
X159700000Y-91635000D01*
X162675000Y-92925000D02*
X161385000Y-91635000D01*
D46*
X144400000Y-100000000D02*
X143000000Y-100000000D01*
X142080000Y-100920000D02*
X139500000Y-100920000D01*
X143000000Y-100000000D02*
X142080000Y-100920000D01*
X144400000Y-112000000D02*
X143000000Y-112000000D01*
X142080000Y-111080000D02*
X139500000Y-111080000D01*
X143000000Y-112000000D02*
X142080000Y-111080000D01*
D44*
G36*
X165873000Y-90123000D02*
X164695230Y-90123000D01*
X164661145Y-90088855D01*
X164530327Y-89957808D01*
X164186799Y-89815162D01*
X163814833Y-89814838D01*
X163471057Y-89956883D01*
X163304649Y-90123000D01*
X162373000Y-90123000D01*
X162373000Y-90623000D01*
X158877000Y-90623000D01*
X158877000Y-88627000D01*
X160140000Y-88627000D01*
X160140000Y-88801309D01*
X160236673Y-89034698D01*
X160373000Y-89171025D01*
X160373000Y-89377000D01*
X162553974Y-89377000D01*
X162590301Y-89413327D01*
X162823690Y-89510000D01*
X163076309Y-89510000D01*
X163676309Y-89510000D01*
X163909698Y-89413327D01*
X163946025Y-89377000D01*
X164377000Y-89377000D01*
X164377000Y-88377000D01*
X165873000Y-88377000D01*
X165873000Y-90123000D01*
X165873000Y-90123000D01*
G37*
X165873000Y-90123000D02*
X164695230Y-90123000D01*
X164661145Y-90088855D01*
X164530327Y-89957808D01*
X164186799Y-89815162D01*
X163814833Y-89814838D01*
X163471057Y-89956883D01*
X163304649Y-90123000D01*
X162373000Y-90123000D01*
X162373000Y-90623000D01*
X158877000Y-90623000D01*
X158877000Y-88627000D01*
X160140000Y-88627000D01*
X160140000Y-88801309D01*
X160236673Y-89034698D01*
X160373000Y-89171025D01*
X160373000Y-89377000D01*
X162553974Y-89377000D01*
X162590301Y-89413327D01*
X162823690Y-89510000D01*
X163076309Y-89510000D01*
X163676309Y-89510000D01*
X163909698Y-89413327D01*
X163946025Y-89377000D01*
X164377000Y-89377000D01*
X164377000Y-88377000D01*
X165873000Y-88377000D01*
X165873000Y-90123000D01*
G36*
X155123000Y-93373000D02*
X154623000Y-93373000D01*
X154623000Y-95803974D01*
X154586673Y-95840301D01*
X154490000Y-96073690D01*
X154490000Y-96326309D01*
X154490000Y-96873000D01*
X151377000Y-96873000D01*
X151377000Y-94877000D01*
X152873000Y-94877000D01*
X152873000Y-96127000D01*
X153627000Y-96127000D01*
X153627000Y-94076087D01*
X153684838Y-93936799D01*
X153685000Y-93750000D01*
X153685162Y-93564833D01*
X153627000Y-93424069D01*
X153627000Y-92627000D01*
X155000000Y-92627000D01*
X155123000Y-92627000D01*
X155123000Y-93373000D01*
X155123000Y-93373000D01*
G37*
X155123000Y-93373000D02*
X154623000Y-93373000D01*
X154623000Y-95803974D01*
X154586673Y-95840301D01*
X154490000Y-96073690D01*
X154490000Y-96326309D01*
X154490000Y-96873000D01*
X151377000Y-96873000D01*
X151377000Y-94877000D01*
X152873000Y-94877000D01*
X152873000Y-96127000D01*
X153627000Y-96127000D01*
X153627000Y-94076087D01*
X153684838Y-93936799D01*
X153685000Y-93750000D01*
X153685162Y-93564833D01*
X153627000Y-93424069D01*
X153627000Y-92627000D01*
X155000000Y-92627000D01*
X155123000Y-92627000D01*
X155123000Y-93373000D01*
G36*
X163623000Y-96623000D02*
X161377000Y-96623000D01*
X161377000Y-95623000D01*
X158946025Y-95623000D01*
X158909699Y-95586673D01*
X158676310Y-95490000D01*
X158423691Y-95490000D01*
X157935009Y-95490000D01*
X157935162Y-95314833D01*
X157877000Y-95174069D01*
X157877000Y-95076087D01*
X157934838Y-94936799D01*
X157935107Y-94627000D01*
X161127000Y-94627000D01*
X161127000Y-93377000D01*
X161815000Y-93377000D01*
X161815000Y-94376644D01*
X161880464Y-94705752D01*
X162066888Y-94984756D01*
X162123000Y-95022248D01*
X162123000Y-95377000D01*
X163623000Y-95377000D01*
X163623000Y-96623000D01*
X163623000Y-96623000D01*
G37*
X163623000Y-96623000D02*
X161377000Y-96623000D01*
X161377000Y-95623000D01*
X158946025Y-95623000D01*
X158909699Y-95586673D01*
X158676310Y-95490000D01*
X158423691Y-95490000D01*
X157935009Y-95490000D01*
X157935162Y-95314833D01*
X157877000Y-95174069D01*
X157877000Y-95076087D01*
X157934838Y-94936799D01*
X157935107Y-94627000D01*
X161127000Y-94627000D01*
X161127000Y-93377000D01*
X161815000Y-93377000D01*
X161815000Y-94376644D01*
X161880464Y-94705752D01*
X162066888Y-94984756D01*
X162123000Y-95022248D01*
X162123000Y-95377000D01*
X163623000Y-95377000D01*
X163623000Y-96623000D01*
G36*
X166873000Y-96065000D02*
X166648691Y-96065000D01*
X166450000Y-96065000D01*
X165998691Y-96065000D01*
X165858666Y-96123000D01*
X165623000Y-96123000D01*
X165623000Y-96303974D01*
X165586673Y-96340301D01*
X165490000Y-96573690D01*
X165490000Y-96826309D01*
X165490000Y-97426309D01*
X165529030Y-97520537D01*
X165586173Y-97807809D01*
X165623000Y-97862924D01*
X165623000Y-99304769D01*
X165457808Y-99469673D01*
X165456426Y-99473000D01*
X164541515Y-99473000D01*
X164538327Y-99465302D01*
X164448036Y-99375010D01*
X164583112Y-99284756D01*
X164769536Y-99005752D01*
X164835000Y-98676644D01*
X164835000Y-97627000D01*
X165377000Y-97627000D01*
X165377000Y-94377000D01*
X166873000Y-94377000D01*
X166873000Y-96065000D01*
X166873000Y-96065000D01*
G37*
X166873000Y-96065000D02*
X166648691Y-96065000D01*
X166450000Y-96065000D01*
X165998691Y-96065000D01*
X165858666Y-96123000D01*
X165623000Y-96123000D01*
X165623000Y-96303974D01*
X165586673Y-96340301D01*
X165490000Y-96573690D01*
X165490000Y-96826309D01*
X165490000Y-97426309D01*
X165529030Y-97520537D01*
X165586173Y-97807809D01*
X165623000Y-97862924D01*
X165623000Y-99304769D01*
X165457808Y-99469673D01*
X165456426Y-99473000D01*
X164541515Y-99473000D01*
X164538327Y-99465302D01*
X164448036Y-99375010D01*
X164583112Y-99284756D01*
X164769536Y-99005752D01*
X164835000Y-98676644D01*
X164835000Y-97627000D01*
X165377000Y-97627000D01*
X165377000Y-94377000D01*
X166873000Y-94377000D01*
X166873000Y-96065000D01*
G36*
X163623000Y-87615000D02*
X163615000Y-87615000D01*
X163615000Y-88490000D01*
X163423691Y-88490000D01*
X162823691Y-88490000D01*
X162729462Y-88529030D01*
X162442191Y-88586173D01*
X162399048Y-88615000D01*
X161135000Y-88615000D01*
X161135000Y-87865000D01*
X160127000Y-87865000D01*
X160127000Y-85877000D01*
X163623000Y-85877000D01*
X163623000Y-87615000D01*
X163623000Y-87615000D01*
G37*
X163623000Y-87615000D02*
X163615000Y-87615000D01*
X163615000Y-88490000D01*
X163423691Y-88490000D01*
X162823691Y-88490000D01*
X162729462Y-88529030D01*
X162442191Y-88586173D01*
X162399048Y-88615000D01*
X161135000Y-88615000D01*
X161135000Y-87865000D01*
X160127000Y-87865000D01*
X160127000Y-85877000D01*
X163623000Y-85877000D01*
X163623000Y-87615000D01*
G36*
X161123000Y-98373000D02*
X155377000Y-98373000D01*
X155377000Y-97635000D01*
X155385000Y-97635000D01*
X155385000Y-97188025D01*
X155413327Y-97159699D01*
X155510000Y-96926310D01*
X155510000Y-96673691D01*
X155510000Y-96073691D01*
X155470969Y-95979462D01*
X155413827Y-95692191D01*
X155385000Y-95649048D01*
X155385000Y-94135000D01*
X155885000Y-94135000D01*
X155885000Y-93627000D01*
X157373000Y-93627000D01*
X157373000Y-93865000D01*
X157115000Y-93865000D01*
X157115000Y-96385000D01*
X157561974Y-96385000D01*
X157590301Y-96413327D01*
X157823690Y-96510000D01*
X158076309Y-96510000D01*
X158676309Y-96510000D01*
X158909698Y-96413327D01*
X158938025Y-96385000D01*
X160615000Y-96385000D01*
X160615000Y-97385000D01*
X161123000Y-97385000D01*
X161123000Y-98373000D01*
X161123000Y-98373000D01*
G37*
X161123000Y-98373000D02*
X155377000Y-98373000D01*
X155377000Y-97635000D01*
X155385000Y-97635000D01*
X155385000Y-97188025D01*
X155413327Y-97159699D01*
X155510000Y-96926310D01*
X155510000Y-96673691D01*
X155510000Y-96073691D01*
X155470969Y-95979462D01*
X155413827Y-95692191D01*
X155385000Y-95649048D01*
X155385000Y-94135000D01*
X155885000Y-94135000D01*
X155885000Y-93627000D01*
X157373000Y-93627000D01*
X157373000Y-93865000D01*
X157115000Y-93865000D01*
X157115000Y-96385000D01*
X157561974Y-96385000D01*
X157590301Y-96413327D01*
X157823690Y-96510000D01*
X158076309Y-96510000D01*
X158676309Y-96510000D01*
X158909698Y-96413327D01*
X158938025Y-96385000D01*
X160615000Y-96385000D01*
X160615000Y-97385000D01*
X161123000Y-97385000D01*
X161123000Y-98373000D01*
G36*
X152865000Y-94115000D02*
X150615000Y-94115000D01*
X150615000Y-94373000D01*
X150127000Y-94373000D01*
X150127000Y-93882937D01*
X150234698Y-93838327D01*
X150413327Y-93659699D01*
X150510000Y-93426310D01*
X150510000Y-93173691D01*
X150510000Y-92985000D01*
X150901309Y-92985000D01*
X150957321Y-92961798D01*
X151073690Y-93010000D01*
X151326309Y-93010000D01*
X151926309Y-93010000D01*
X152030177Y-92966976D01*
X152073690Y-92985000D01*
X152326309Y-92985000D01*
X152865000Y-92985000D01*
X152865000Y-94115000D01*
X152865000Y-94115000D01*
G37*
X152865000Y-94115000D02*
X150615000Y-94115000D01*
X150615000Y-94373000D01*
X150127000Y-94373000D01*
X150127000Y-93882937D01*
X150234698Y-93838327D01*
X150413327Y-93659699D01*
X150510000Y-93426310D01*
X150510000Y-93173691D01*
X150510000Y-92985000D01*
X150901309Y-92985000D01*
X150957321Y-92961798D01*
X151073690Y-93010000D01*
X151326309Y-93010000D01*
X151926309Y-93010000D01*
X152030177Y-92966976D01*
X152073690Y-92985000D01*
X152326309Y-92985000D01*
X152865000Y-92985000D01*
X152865000Y-94115000D01*
G36*
X150873000Y-91015000D02*
X150648691Y-91015000D01*
X150001310Y-91015000D01*
X149998691Y-91015000D01*
X149748691Y-91015000D01*
X149435000Y-91015000D01*
X149435000Y-90498691D01*
X149338327Y-90265302D01*
X149159699Y-90086673D01*
X148926310Y-89990000D01*
X148673691Y-89990000D01*
X148127000Y-89990000D01*
X148127000Y-89373000D01*
X147671025Y-89373000D01*
X147609699Y-89311673D01*
X147510000Y-89270376D01*
X147510000Y-89173691D01*
X147510000Y-88573691D01*
X147470969Y-88479462D01*
X147435000Y-88298634D01*
X147435000Y-88123691D01*
X147435000Y-87950000D01*
X147435000Y-87877000D01*
X150873000Y-87877000D01*
X150873000Y-88750000D01*
X150873000Y-89127418D01*
X150790302Y-89161673D01*
X150611673Y-89340301D01*
X150515000Y-89573690D01*
X150515000Y-89826309D01*
X150515000Y-90000000D01*
X150515000Y-90426309D01*
X150611673Y-90659698D01*
X150790301Y-90838327D01*
X150873000Y-90872582D01*
X150873000Y-91015000D01*
X150873000Y-91015000D01*
G37*
X150873000Y-91015000D02*
X150648691Y-91015000D01*
X150001310Y-91015000D01*
X149998691Y-91015000D01*
X149748691Y-91015000D01*
X149435000Y-91015000D01*
X149435000Y-90498691D01*
X149338327Y-90265302D01*
X149159699Y-90086673D01*
X148926310Y-89990000D01*
X148673691Y-89990000D01*
X148127000Y-89990000D01*
X148127000Y-89373000D01*
X147671025Y-89373000D01*
X147609699Y-89311673D01*
X147510000Y-89270376D01*
X147510000Y-89173691D01*
X147510000Y-88573691D01*
X147470969Y-88479462D01*
X147435000Y-88298634D01*
X147435000Y-88123691D01*
X147435000Y-87950000D01*
X147435000Y-87877000D01*
X150873000Y-87877000D01*
X150873000Y-88750000D01*
X150873000Y-89127418D01*
X150790302Y-89161673D01*
X150611673Y-89340301D01*
X150515000Y-89573690D01*
X150515000Y-89826309D01*
X150515000Y-90000000D01*
X150515000Y-90426309D01*
X150611673Y-90659698D01*
X150790301Y-90838327D01*
X150873000Y-90872582D01*
X150873000Y-91015000D01*
G36*
X167315000Y-101123000D02*
X166103647Y-101123000D01*
X166038327Y-100965302D01*
X165877000Y-100803974D01*
X165877000Y-100235000D01*
X166385000Y-100235000D01*
X166385000Y-97688025D01*
X166413327Y-97659699D01*
X166510000Y-97426310D01*
X166510000Y-97173691D01*
X166510000Y-96885000D01*
X167315000Y-96885000D01*
X167315000Y-101123000D01*
X167315000Y-101123000D01*
G37*
X167315000Y-101123000D02*
X166103647Y-101123000D01*
X166038327Y-100965302D01*
X165877000Y-100803974D01*
X165877000Y-100235000D01*
X166385000Y-100235000D01*
X166385000Y-97688025D01*
X166413327Y-97659699D01*
X166510000Y-97426310D01*
X166510000Y-97173691D01*
X166510000Y-96885000D01*
X167315000Y-96885000D01*
X167315000Y-101123000D01*
M02*
