G04 #@! TF.FileFunction,Soldermask,Bot*
%FSLAX46Y46*%
G04 Gerber Fmt 4.6, Leading zero omitted, Abs format (unit mm)*
G04 Created by KiCad (PCBNEW (2014-11-13 BZR 5275)-product) date Sun 16 Nov 2014 09:12:01 PM EST*
%MOMM*%
G01*
G04 APERTURE LIST*
%ADD10C,0.100000*%
%ADD11R,1.524000X2.286000*%
%ADD12O,1.524000X2.286000*%
%ADD13R,1.524000X1.524000*%
%ADD14C,1.524000*%
%ADD15C,2.000000*%
%ADD16C,2.200000*%
%ADD17R,2.286000X1.524000*%
%ADD18O,2.286000X1.524000*%
%ADD19C,0.254000*%
G04 APERTURE END LIST*
D10*
D11*
X155730000Y-84500000D03*
D12*
X158270000Y-84500000D03*
D13*
X155000000Y-102999240D03*
D14*
X155000000Y-105000760D03*
D13*
X151000000Y-109000760D03*
D14*
X151000000Y-106999240D03*
D13*
X151000000Y-98999240D03*
D14*
X151000000Y-101000760D03*
D13*
X155000000Y-113000760D03*
D14*
X155000000Y-110999240D03*
D15*
X140000000Y-92500000D03*
D16*
X137450000Y-89950000D03*
X142550000Y-89950000D03*
X137450000Y-95050000D03*
X142550000Y-95050000D03*
D15*
X163000000Y-110000000D03*
D16*
X160450000Y-107450000D03*
X165550000Y-107450000D03*
X160450000Y-112550000D03*
X165550000Y-112550000D03*
D17*
X139500000Y-100920000D03*
D18*
X139500000Y-103460000D03*
X139500000Y-106000000D03*
X139500000Y-108540000D03*
X139500000Y-111080000D03*
D19*
G36*
X164123000Y-96873000D02*
X161877000Y-96873000D01*
X161877000Y-95127000D01*
X164123000Y-95127000D01*
X164123000Y-96873000D01*
X164123000Y-96873000D01*
G37*
X164123000Y-96873000D02*
X161877000Y-96873000D01*
X161877000Y-95127000D01*
X164123000Y-95127000D01*
X164123000Y-96873000D01*
G36*
X158123000Y-92123000D02*
X155877000Y-92123000D01*
X155877000Y-89877000D01*
X158123000Y-89877000D01*
X158123000Y-92123000D01*
X158123000Y-92123000D01*
G37*
X158123000Y-92123000D02*
X155877000Y-92123000D01*
X155877000Y-89877000D01*
X158123000Y-89877000D01*
X158123000Y-92123000D01*
G36*
X166873000Y-85373000D02*
X161127000Y-85373000D01*
X161127000Y-83627000D01*
X166873000Y-83627000D01*
X166873000Y-85373000D01*
X166873000Y-85373000D01*
G37*
X166873000Y-85373000D02*
X161127000Y-85373000D01*
X161127000Y-83627000D01*
X166873000Y-83627000D01*
X166873000Y-85373000D01*
M02*
