G04 #@! TF.FileFunction,Legend,Bot*
%FSLAX46Y46*%
G04 Gerber Fmt 4.6, Leading zero omitted, Abs format (unit mm)*
G04 Created by KiCad (PCBNEW (2014-11-13 BZR 5275)-product) date Sun 16 Nov 2014 06:17:14 PM EST*
%MOMM*%
G01*
G04 APERTURE LIST*
%ADD10C,0.100000*%
%ADD11C,0.200000*%
%ADD12C,0.150000*%
%ADD13C,0.250000*%
%ADD14C,0.300000*%
G04 APERTURE END LIST*
D10*
D11*
X159000000Y-92500000D02*
X159500000Y-92250000D01*
X158500000Y-93000000D02*
X159000000Y-92500000D01*
X165000000Y-91000000D02*
X164500000Y-91000000D01*
X166000000Y-91500000D02*
X165000000Y-91000000D01*
X151000000Y-94500000D02*
X148500000Y-94000000D01*
X155500000Y-94500000D02*
X151000000Y-94500000D01*
X155500000Y-87500000D02*
X155500000Y-86000000D01*
X154000000Y-90500000D02*
X155500000Y-87500000D01*
X145000000Y-95500000D02*
X145500000Y-95000000D01*
X144000000Y-97000000D02*
X145000000Y-95500000D01*
X142000000Y-98000000D02*
X144000000Y-97000000D01*
X140000000Y-97500000D02*
X142000000Y-98000000D01*
X139500000Y-96000000D02*
X140000000Y-97500000D01*
X167500000Y-94500000D02*
X167500000Y-98500000D01*
X167000000Y-92500000D02*
X167500000Y-94500000D01*
X166000000Y-91500000D02*
X167000000Y-92500000D01*
X164500000Y-91500000D02*
X165000000Y-91500000D01*
X155500000Y-94500000D02*
X158500000Y-93000000D01*
X159500000Y-89000000D02*
X159500000Y-94000000D01*
X164500000Y-89000000D02*
X164500000Y-94000000D01*
X164000000Y-88500000D02*
X160000000Y-88500000D01*
X164500000Y-89000000D02*
X164000000Y-88500000D01*
X164000000Y-94500000D02*
X164500000Y-94000000D01*
X160000000Y-94500000D02*
X164000000Y-94500000D01*
X159500000Y-94000000D02*
X160000000Y-94500000D01*
X160000000Y-88500000D02*
X159500000Y-89000000D01*
D12*
X163009524Y-94021429D02*
X163009524Y-93421429D01*
X162742857Y-93850000D01*
X162476190Y-93421429D01*
X162476190Y-94021429D01*
X162095238Y-94021429D02*
X162095238Y-93421429D01*
X162095238Y-93707143D02*
X161638095Y-93707143D01*
X161638095Y-94021429D02*
X161638095Y-93421429D01*
X161333333Y-93621429D02*
X160914286Y-93621429D01*
X161333333Y-94021429D01*
X160914286Y-94021429D01*
D13*
X163238095Y-92047619D02*
X163190476Y-92000000D01*
X163095238Y-91952381D01*
X162857142Y-91952381D01*
X162761904Y-92000000D01*
X162714285Y-92047619D01*
X162666666Y-92142857D01*
X162666666Y-92238095D01*
X162714285Y-92380952D01*
X163285714Y-92952381D01*
X162666666Y-92952381D01*
X162047619Y-91952381D02*
X161952380Y-91952381D01*
X161857142Y-92000000D01*
X161809523Y-92047619D01*
X161761904Y-92142857D01*
X161714285Y-92333333D01*
X161714285Y-92571429D01*
X161761904Y-92761905D01*
X161809523Y-92857143D01*
X161857142Y-92904762D01*
X161952380Y-92952381D01*
X162047619Y-92952381D01*
X162142857Y-92904762D01*
X162190476Y-92857143D01*
X162238095Y-92761905D01*
X162285714Y-92571429D01*
X162285714Y-92333333D01*
X162238095Y-92142857D01*
X162190476Y-92047619D01*
X162142857Y-92000000D01*
X162047619Y-91952381D01*
X161095238Y-91952381D02*
X160999999Y-91952381D01*
X160904761Y-92000000D01*
X160857142Y-92047619D01*
X160809523Y-92142857D01*
X160761904Y-92333333D01*
X160761904Y-92571429D01*
X160809523Y-92761905D01*
X160857142Y-92857143D01*
X160904761Y-92904762D01*
X160999999Y-92952381D01*
X161095238Y-92952381D01*
X161190476Y-92904762D01*
X161238095Y-92857143D01*
X161285714Y-92761905D01*
X161333333Y-92571429D01*
X161333333Y-92333333D01*
X161285714Y-92142857D01*
X161238095Y-92047619D01*
X161190476Y-92000000D01*
X161095238Y-91952381D01*
D11*
X163752381Y-89663810D02*
X163638095Y-89701905D01*
X163447619Y-89701905D01*
X163371429Y-89663810D01*
X163333333Y-89625714D01*
X163295238Y-89549524D01*
X163295238Y-89473333D01*
X163333333Y-89397143D01*
X163371429Y-89359048D01*
X163447619Y-89320952D01*
X163600000Y-89282857D01*
X163676191Y-89244762D01*
X163714286Y-89206667D01*
X163752381Y-89130476D01*
X163752381Y-89054286D01*
X163714286Y-88978095D01*
X163676191Y-88940000D01*
X163600000Y-88901905D01*
X163409524Y-88901905D01*
X163295238Y-88940000D01*
X162952381Y-89701905D02*
X162952381Y-88901905D01*
X162647619Y-88901905D01*
X162571428Y-88940000D01*
X162533333Y-88978095D01*
X162495238Y-89054286D01*
X162495238Y-89168571D01*
X162533333Y-89244762D01*
X162571428Y-89282857D01*
X162647619Y-89320952D01*
X162952381Y-89320952D01*
X162152381Y-89282857D02*
X161885714Y-89282857D01*
X161771428Y-89701905D02*
X162152381Y-89701905D01*
X162152381Y-88901905D01*
X161771428Y-88901905D01*
X161428571Y-89282857D02*
X161161904Y-89282857D01*
X161047618Y-89701905D02*
X161428571Y-89701905D01*
X161428571Y-88901905D01*
X161047618Y-88901905D01*
X160704761Y-89701905D02*
X160704761Y-88901905D01*
X160514285Y-88901905D01*
X160399999Y-88940000D01*
X160323808Y-89016190D01*
X160285713Y-89092381D01*
X160247618Y-89244762D01*
X160247618Y-89359048D01*
X160285713Y-89511429D01*
X160323808Y-89587619D01*
X160399999Y-89663810D01*
X160514285Y-89701905D01*
X160704761Y-89701905D01*
X162895237Y-91021905D02*
X163276190Y-91021905D01*
X163276190Y-90221905D01*
X162628571Y-91021905D02*
X162628571Y-90221905D01*
X162247619Y-91021905D02*
X162247619Y-90221905D01*
X161980952Y-90793333D01*
X161714285Y-90221905D01*
X161714285Y-91021905D01*
X161333333Y-91021905D02*
X161333333Y-90221905D01*
X161066667Y-90221905D02*
X160609524Y-90221905D01*
X160838095Y-91021905D02*
X160838095Y-90221905D01*
X154000000Y-90500000D02*
X153500000Y-93000000D01*
D14*
X145499999Y-111107143D02*
X144357142Y-111107143D01*
X142857142Y-111678571D02*
X143714285Y-111678571D01*
X143285713Y-111678571D02*
X143285713Y-110178571D01*
X143428570Y-110392857D01*
X143571428Y-110535714D01*
X143714285Y-110607143D01*
X141928571Y-110178571D02*
X141785714Y-110178571D01*
X141642857Y-110250000D01*
X141571428Y-110321429D01*
X141499999Y-110464286D01*
X141428571Y-110750000D01*
X141428571Y-111107143D01*
X141499999Y-111392857D01*
X141571428Y-111535714D01*
X141642857Y-111607143D01*
X141785714Y-111678571D01*
X141928571Y-111678571D01*
X142071428Y-111607143D01*
X142142857Y-111535714D01*
X142214285Y-111392857D01*
X142285714Y-111107143D01*
X142285714Y-110750000D01*
X142214285Y-110464286D01*
X142142857Y-110321429D01*
X142071428Y-110250000D01*
X141928571Y-110178571D01*
X144785714Y-108607143D02*
X143642857Y-108607143D01*
X142214285Y-107678571D02*
X142928571Y-107678571D01*
X143000000Y-108392857D01*
X142928571Y-108321429D01*
X142785714Y-108250000D01*
X142428571Y-108250000D01*
X142285714Y-108321429D01*
X142214285Y-108392857D01*
X142142857Y-108535714D01*
X142142857Y-108892857D01*
X142214285Y-109035714D01*
X142285714Y-109107143D01*
X142428571Y-109178571D01*
X142785714Y-109178571D01*
X142928571Y-109107143D01*
X143000000Y-109035714D01*
X144642857Y-105250000D02*
X144785714Y-105178571D01*
X145000000Y-105178571D01*
X145214285Y-105250000D01*
X145357143Y-105392857D01*
X145428571Y-105535714D01*
X145500000Y-105821429D01*
X145500000Y-106035714D01*
X145428571Y-106321429D01*
X145357143Y-106464286D01*
X145214285Y-106607143D01*
X145000000Y-106678571D01*
X144857143Y-106678571D01*
X144642857Y-106607143D01*
X144571428Y-106535714D01*
X144571428Y-106035714D01*
X144857143Y-106035714D01*
X143928571Y-106678571D02*
X143928571Y-105178571D01*
X143071428Y-106678571D01*
X143071428Y-105178571D01*
X142357142Y-106678571D02*
X142357142Y-105178571D01*
X141999999Y-105178571D01*
X141785714Y-105250000D01*
X141642856Y-105392857D01*
X141571428Y-105535714D01*
X141499999Y-105821429D01*
X141499999Y-106035714D01*
X141571428Y-106321429D01*
X141642856Y-106464286D01*
X141785714Y-106607143D01*
X141999999Y-106678571D01*
X142357142Y-106678571D01*
X144785714Y-103607143D02*
X143642857Y-103607143D01*
X144214286Y-104178571D02*
X144214286Y-103035714D01*
X142214285Y-102678571D02*
X142928571Y-102678571D01*
X143000000Y-103392857D01*
X142928571Y-103321429D01*
X142785714Y-103250000D01*
X142428571Y-103250000D01*
X142285714Y-103321429D01*
X142214285Y-103392857D01*
X142142857Y-103535714D01*
X142142857Y-103892857D01*
X142214285Y-104035714D01*
X142285714Y-104107143D01*
X142428571Y-104178571D01*
X142785714Y-104178571D01*
X142928571Y-104107143D01*
X143000000Y-104035714D01*
X145499999Y-101107143D02*
X144357142Y-101107143D01*
X144928571Y-101678571D02*
X144928571Y-100535714D01*
X142857142Y-101678571D02*
X143714285Y-101678571D01*
X143285713Y-101678571D02*
X143285713Y-100178571D01*
X143428570Y-100392857D01*
X143571428Y-100535714D01*
X143714285Y-100607143D01*
X141928571Y-100178571D02*
X141785714Y-100178571D01*
X141642857Y-100250000D01*
X141571428Y-100321429D01*
X141499999Y-100464286D01*
X141428571Y-100750000D01*
X141428571Y-101107143D01*
X141499999Y-101392857D01*
X141571428Y-101535714D01*
X141642857Y-101607143D01*
X141785714Y-101678571D01*
X141928571Y-101678571D01*
X142071428Y-101607143D01*
X142142857Y-101535714D01*
X142214285Y-101392857D01*
X142285714Y-101107143D01*
X142285714Y-100750000D01*
X142214285Y-100464286D01*
X142142857Y-100321429D01*
X142071428Y-100250000D01*
X141928571Y-100178571D01*
D11*
X155422471Y-94907481D02*
X155137057Y-95613907D01*
X155115663Y-96683798D02*
X155329724Y-96153978D01*
X155222693Y-96418887D02*
X154295510Y-96044281D01*
X154463641Y-96009493D01*
X154587621Y-95956866D01*
X154667449Y-95886402D01*
X153849549Y-97148072D02*
X154027933Y-96706555D01*
X154487287Y-96840788D01*
X154425297Y-96867101D01*
X154345469Y-96937565D01*
X154256277Y-97158324D01*
X154264752Y-97264466D01*
X154291065Y-97326456D01*
X154361530Y-97406284D01*
X154582288Y-97495476D01*
X154688430Y-97487002D01*
X154750420Y-97460688D01*
X154830248Y-97390224D01*
X154919440Y-97169465D01*
X154910966Y-97063323D01*
X154884652Y-97001333D01*
X154437803Y-98361559D02*
X153510619Y-97986953D01*
X154393651Y-98343721D02*
X154473480Y-98273256D01*
X154544834Y-98096649D01*
X154536359Y-97990507D01*
X154510046Y-97928517D01*
X154439581Y-97848689D01*
X154174671Y-97741658D01*
X154068529Y-97750133D01*
X154006539Y-97776446D01*
X153926711Y-97846911D01*
X153855357Y-98023518D01*
X153863832Y-98129660D01*
X153648882Y-98915914D02*
X153639518Y-99066207D01*
X153665832Y-99128197D01*
X153736297Y-99208026D01*
X153868752Y-99261541D01*
X153974893Y-99253066D01*
X154036883Y-99226753D01*
X154116712Y-99156288D01*
X154259419Y-98803075D01*
X153332235Y-98428468D01*
X153207366Y-98737530D01*
X153215841Y-98843672D01*
X153242154Y-98905662D01*
X153312619Y-98985490D01*
X153400922Y-99021167D01*
X153507064Y-99012692D01*
X153569053Y-98986379D01*
X153648882Y-98915914D01*
X153773751Y-98606852D01*
X153500000Y-96000000D02*
X153500000Y-96500000D01*
X153000000Y-95500000D02*
X153500000Y-96000000D01*
X154500000Y-95000000D02*
X153000000Y-95500000D01*
X152500000Y-94500000D02*
X154500000Y-95000000D01*
X154500000Y-94000000D02*
X152500000Y-94500000D01*
X153500000Y-93500000D02*
X154500000Y-94000000D01*
X153500000Y-93000000D02*
X153500000Y-93500000D01*
X163287820Y-104321255D02*
X163006778Y-103769679D01*
X162818678Y-104239631D01*
X162753822Y-104112343D01*
X162668156Y-104049104D01*
X162604108Y-104028294D01*
X162497631Y-104029103D01*
X162285487Y-104137195D01*
X162222248Y-104222861D01*
X162201438Y-104286909D01*
X162202246Y-104393385D01*
X162331958Y-104647959D01*
X162417624Y-104711198D01*
X162481671Y-104732008D01*
X161683400Y-103375092D02*
X161942823Y-103884239D01*
X161813112Y-103629666D02*
X162704118Y-103175675D01*
X162620069Y-103325389D01*
X162578448Y-103453484D01*
X162579257Y-103559960D01*
X161294265Y-102611372D02*
X162185272Y-102157382D01*
X161336694Y-102589753D02*
X161337502Y-102696230D01*
X161423977Y-102865946D01*
X161509643Y-102929185D01*
X161573690Y-102949995D01*
X161680167Y-102949187D01*
X161934741Y-102819475D01*
X161997980Y-102733809D01*
X162018790Y-102669762D01*
X162017982Y-102563285D01*
X161931507Y-102393569D01*
X161845841Y-102330330D01*
X161393467Y-101652276D02*
X161286182Y-101546608D01*
X161222134Y-101525798D01*
X161115658Y-101526607D01*
X160988371Y-101591462D01*
X160925132Y-101677128D01*
X160904322Y-101741176D01*
X160905130Y-101847652D01*
X161078079Y-102187084D01*
X161969086Y-101733093D01*
X161817755Y-101436090D01*
X161732089Y-101372851D01*
X161668042Y-101352041D01*
X161561566Y-101352849D01*
X161476708Y-101396086D01*
X161413469Y-101481752D01*
X161392659Y-101545800D01*
X161393467Y-101652276D01*
X161544797Y-101949279D01*
X139500000Y-96000000D02*
X139750000Y-94000000D01*
X146500000Y-94000000D02*
X145500000Y-95000000D01*
X148500000Y-94000000D02*
X146500000Y-94000000D01*
X163500000Y-105000000D02*
X164000000Y-104500000D01*
X163000000Y-106500000D02*
X163500000Y-105000000D01*
X163000000Y-108500000D02*
X163000000Y-106500000D01*
X164000000Y-104500000D02*
X164000000Y-101000000D01*
X167000000Y-103000000D02*
X164000000Y-104500000D01*
X165500000Y-102000000D02*
X167000000Y-103000000D01*
X165500000Y-102000000D02*
X164000000Y-101000000D01*
X167500000Y-98500000D02*
X165500000Y-102000000D01*
M02*
