G04 #@! TF.FileFunction,Soldermask,Top*
%FSLAX46Y46*%
G04 Gerber Fmt 4.6, Leading zero omitted, Abs format (unit mm)*
G04 Created by KiCad (PCBNEW (2014-11-13 BZR 5275)-product) date Sun 16 Nov 2014 09:12:01 PM EST*
%MOMM*%
G01*
G04 APERTURE LIST*
%ADD10C,0.100000*%
%ADD11R,1.550000X0.600000*%
%ADD12O,1.550000X0.600000*%
%ADD13R,2.290000X2.290000*%
%ADD14R,0.900000X1.300000*%
%ADD15R,0.800000X1.300000*%
%ADD16R,1.524000X2.286000*%
%ADD17O,1.524000X2.286000*%
%ADD18R,0.650000X0.600000*%
%ADD19R,0.600000X0.650000*%
%ADD20R,1.450000X1.150000*%
%ADD21R,1.150000X1.450000*%
%ADD22R,1.524000X1.524000*%
%ADD23C,1.524000*%
%ADD24C,2.000000*%
%ADD25C,2.200000*%
%ADD26R,2.286000X1.524000*%
%ADD27O,2.286000X1.524000*%
%ADD28R,0.700000X0.650000*%
%ADD29R,0.650000X0.700000*%
%ADD30R,1.300000X0.900000*%
%ADD31R,1.300000X0.800000*%
%ADD32R,0.600000X0.600000*%
%ADD33R,1.000000X0.850000*%
%ADD34R,0.600000X1.100000*%
%ADD35R,0.450000X1.450000*%
%ADD36O,0.450000X1.450000*%
%ADD37R,1.890000X1.570000*%
G04 APERTURE END LIST*
D10*
D11*
X154300000Y-89095000D03*
D12*
X154300000Y-90365000D03*
X154300000Y-91635000D03*
X154300000Y-92905000D03*
X159700000Y-92905000D03*
X159700000Y-91635000D03*
X159700000Y-90365000D03*
X159700000Y-89095000D03*
D13*
X157000000Y-91000000D03*
D14*
X141050000Y-86100000D03*
X142950000Y-86100000D03*
D15*
X142000000Y-83900000D03*
D16*
X155730000Y-84500000D03*
D17*
X158270000Y-84500000D03*
D18*
X146550000Y-89000000D03*
X147450000Y-89000000D03*
X145450000Y-89000000D03*
X144550000Y-89000000D03*
X149550000Y-93000000D03*
X150450000Y-93000000D03*
D19*
X148500000Y-90950000D03*
X148500000Y-90050000D03*
X151500000Y-92050000D03*
X151500000Y-92950000D03*
D20*
X161500000Y-89900000D03*
X161500000Y-88100000D03*
D21*
X154100000Y-94750000D03*
X155900000Y-94750000D03*
X165100000Y-98750000D03*
X166900000Y-98750000D03*
D20*
X160000000Y-95100000D03*
X160000000Y-96900000D03*
D19*
X163250000Y-89450000D03*
X163250000Y-88550000D03*
D18*
X154550000Y-96500000D03*
X155450000Y-96500000D03*
X165550000Y-97000000D03*
X166450000Y-97000000D03*
D19*
X158250000Y-95550000D03*
X158250000Y-96450000D03*
D22*
X155000000Y-102999240D03*
D23*
X155000000Y-105000760D03*
D22*
X151000000Y-109000760D03*
D23*
X151000000Y-106999240D03*
D22*
X151000000Y-98999240D03*
D23*
X151000000Y-101000760D03*
D22*
X155000000Y-113000760D03*
D23*
X155000000Y-110999240D03*
D24*
X140000000Y-92500000D03*
D25*
X137450000Y-89950000D03*
X142550000Y-89950000D03*
X137450000Y-95050000D03*
X142550000Y-95050000D03*
D24*
X163000000Y-110000000D03*
D25*
X160450000Y-107450000D03*
X165550000Y-107450000D03*
X160450000Y-112550000D03*
X165550000Y-112550000D03*
D26*
X139500000Y-100920000D03*
D27*
X139500000Y-103460000D03*
X139500000Y-106000000D03*
X139500000Y-108540000D03*
X139500000Y-111080000D03*
D28*
X148500000Y-92050000D03*
X148500000Y-92950000D03*
D29*
X150450000Y-92000000D03*
X149550000Y-92000000D03*
D14*
X149050000Y-86100000D03*
X150950000Y-86100000D03*
D15*
X150000000Y-83900000D03*
D14*
X137050000Y-86100000D03*
X138950000Y-86100000D03*
D15*
X138000000Y-83900000D03*
D30*
X146600000Y-100950000D03*
X146600000Y-99050000D03*
D31*
X144400000Y-100000000D03*
D30*
X146600000Y-104950000D03*
X146600000Y-103050000D03*
D31*
X144400000Y-104000000D03*
D32*
X153450000Y-86500000D03*
X152550000Y-86500000D03*
X137550000Y-87500000D03*
X138450000Y-87500000D03*
X147450000Y-86000000D03*
X146550000Y-86000000D03*
X146500000Y-87950000D03*
X146500000Y-87050000D03*
X145500000Y-87950000D03*
X145500000Y-87050000D03*
X144550000Y-86000000D03*
X145450000Y-86000000D03*
X151450000Y-90000000D03*
X150550000Y-90000000D03*
X152500000Y-92050000D03*
X152500000Y-92950000D03*
X152500000Y-89050000D03*
X152500000Y-89950000D03*
X165450000Y-92500000D03*
X164550000Y-92500000D03*
X163500000Y-92200000D03*
X163500000Y-91300000D03*
D33*
X162000000Y-101750000D03*
X162000000Y-100250000D03*
X163500000Y-101750000D03*
X163500000Y-100250000D03*
X160500000Y-103250000D03*
X160500000Y-101750000D03*
X165000000Y-103250000D03*
X165000000Y-101750000D03*
X163500000Y-104750000D03*
X163500000Y-103250000D03*
X162000000Y-104750000D03*
X162000000Y-103250000D03*
D34*
X145050000Y-92600000D03*
X146950000Y-92600000D03*
X146000000Y-92600000D03*
X146950000Y-90400000D03*
X145050000Y-90400000D03*
D35*
X163975000Y-93850000D03*
D36*
X163325000Y-93850000D03*
X162675000Y-93850000D03*
X162025000Y-93850000D03*
X162025000Y-98150000D03*
X162675000Y-98150000D03*
X163325000Y-98150000D03*
X163975000Y-98150000D03*
D37*
X163000000Y-96000000D03*
D30*
X146600000Y-108950000D03*
X146600000Y-107050000D03*
D31*
X144400000Y-108000000D03*
D30*
X146600000Y-112950000D03*
X146600000Y-111050000D03*
D31*
X144400000Y-112000000D03*
M02*
